<?xml version="1.0" encoding="UTF-8" standalone="no"?>
<svg
   xmlns:dc="http://purl.org/dc/elements/1.1/"
   xmlns:cc="http://creativecommons.org/ns#"
   xmlns:rdf="http://www.w3.org/1999/02/22-rdf-syntax-ns#"
   xmlns:svg="http://www.w3.org/2000/svg"
   xmlns="http://www.w3.org/2000/svg"
   xmlns:sodipodi="http://sodipodi.sourceforge.net/DTD/sodipodi-0.dtd"
   xmlns:inkscape="http://www.inkscape.org/namespaces/inkscape"
   width="6.8576794mm"
   height="5.6696787mm"
   viewBox="0 0 6.8576791 5.6696787"
   version="1.1"
   id="svg46"
   inkscape:version="1.0.2-2 (e86c870879, 2021-01-15)"
   sodipodi:docname="heart.svg">
  <defs
     id="defs40" />
  <sodipodi:namedview
     id="base"
     pagecolor="#ffffff"
     bordercolor="#666666"
     borderopacity="1.0"
     inkscape:pageopacity="0.0"
     inkscape:pageshadow="2"
     inkscape:zoom="22.4"
     inkscape:cx="11.033181"
     inkscape:cy="11.242316"
     inkscape:document-units="mm"
     inkscape:current-layer="layer5"
     inkscape:document-rotation="0"
     showgrid="false"
     inkscape:window-width="1280"
     inkscape:window-height="961"
     inkscape:window-x="-8"
     inkscape:window-y="46"
     inkscape:window-maximized="1" />
  <metadata
     id="metadata43">
    <rdf:RDF>
      <cc:Work
         rdf:about="">
        <dc:format>image/svg+xml</dc:format>
        <dc:type
           rdf:resource="http://purl.org/dc/dcmitype/StillImage" />
        <dc:title />
      </cc:Work>
    </rdf:RDF>
  </metadata>
  <g
     inkscape:groupmode="layer"
     id="layer5"
     inkscape:label="Layer 3"
     transform="translate(-351.71357,-15.48567)">
    <path
       id="path626-5"
       style="display:inline;mix-blend-mode:darken;fill:#9fa18b;fill-opacity:1;stroke:#9fa18b;stroke-width:0;stroke-linecap:round;stroke-linejoin:round;stroke-miterlimit:4;stroke-dasharray:none;stroke-opacity:1"
       d="m 353.00195,15.503906 c -1.13574,0.1782 -1.70757,1.690159 -0.93215,2.556714 0.79974,1.137665 1.7147,2.239577 2.81692,3.089771 0.91014,0.08494 1.33447,-0.943233 1.96329,-1.436591 0.65844,-0.78801 1.56909,-1.553369 1.7203,-2.618097 0.0431,-1.15326 -1.40126,-2.115194 -2.35937,-1.316406 -0.39931,0.24924 -0.72531,0.589885 -1.07813,0.896484 -0.60608,-0.509149 -1.25219,-1.312649 -2.13086,-1.171875 z" />
  </g>
  <g
     inkscape:label="Layer 1"
     inkscape:groupmode="layer"
     id="layer1"
     style="display:inline"
     transform="translate(-351.71357,-15.48567)"
     sodipodi:insensitive="true">
    <path
       style="mix-blend-mode:darken;fill:#070707;fill-opacity:1;stroke:#9fa18b;stroke-width:0;stroke-linecap:round;stroke-linejoin:round;stroke-miterlimit:4;stroke-dasharray:none;stroke-opacity:1"
       d="m 355.13504,20.680299 c -0.0733,0.02638 -0.75833,-0.64495 -1.52231,-1.491857 -0.76399,-0.846906 -1.38907,-1.767416 -1.38907,-2.045577 0,-0.278161 0.14288,-0.648622 0.3175,-0.823247 0.17463,-0.174625 0.49554,-0.3175 0.71313,-0.3175 0.2176,0 0.72956,0.319932 1.13771,0.710959 0.74208,0.71096 0.74208,0.71096 1.48416,0 0.40815,-0.391027 0.92011,-0.710959 1.13771,-0.710959 0.21759,0 0.5385,0.142875 0.71313,0.3175 0.17462,0.174625 0.3175,0.550074 0.3175,0.834331 0,0.284257 -0.62465,1.183179 -1.38811,1.997604 -0.76346,0.814425 -1.44807,1.502361 -1.52135,1.528746 z"
       id="path626" />
  </g>
</svg>
