<?xml version="1.0" encoding="UTF-8" standalone="no"?>
<svg
   xmlns:dc="http://purl.org/dc/elements/1.1/"
   xmlns:cc="http://creativecommons.org/ns#"
   xmlns:rdf="http://www.w3.org/1999/02/22-rdf-syntax-ns#"
   xmlns:svg="http://www.w3.org/2000/svg"
   xmlns="http://www.w3.org/2000/svg"
   xmlns:sodipodi="http://sodipodi.sourceforge.net/DTD/sodipodi-0.dtd"
   xmlns:inkscape="http://www.inkscape.org/namespaces/inkscape"
   width="8.69592mm"
   height="7.4795141mm"
   viewBox="0 0 8.6959197 7.4795141"
   version="1.1"
   id="svg46"
   inkscape:version="1.0.2-2 (e86c870879, 2021-01-15)"
   sodipodi:docname="korok_seed.svg">
  <defs
     id="defs40" />
  <sodipodi:namedview
     id="base"
     pagecolor="#ffffff"
     bordercolor="#666666"
     borderopacity="1.0"
     inkscape:pageopacity="0.0"
     inkscape:pageshadow="2"
     inkscape:zoom="11.2"
     inkscape:cx="20.162997"
     inkscape:cy="17.072078"
     inkscape:document-units="mm"
     inkscape:current-layer="layer5"
     inkscape:document-rotation="0"
     showgrid="false"
     inkscape:window-width="1280"
     inkscape:window-height="961"
     inkscape:window-x="-8"
     inkscape:window-y="46"
     inkscape:window-maximized="1" />
  <metadata
     id="metadata43">
    <rdf:RDF>
      <cc:Work
         rdf:about="">
        <dc:format>image/svg+xml</dc:format>
        <dc:type
           rdf:resource="http://purl.org/dc/dcmitype/StillImage" />
        <dc:title />
      </cc:Work>
    </rdf:RDF>
  </metadata>
  <g
     inkscape:groupmode="layer"
     id="layer5"
     inkscape:label="Layer 3"
     transform="translate(-350.93533,-56.544922)">
    <path
       id="path610-9"
       style="display:inline;mix-blend-mode:normal;fill:#9fa18b;fill-opacity:1;stroke:#9fa18b;stroke-width:0;stroke-linecap:round;stroke-linejoin:round;stroke-miterlimit:4;stroke-dasharray:none;stroke-opacity:1"
       d="M 13.074219,0 C 9.3117747,0.80591244 7.1092647,4.5121584 4.4589844,7.0117188 0.72651193,10.817684 -2.0250567,17.623489 1.9414062,22.189453 7.764222,28.044108 17.039664,29.885922 24.6875,26.769531 29.12648,25.419843 33.154315,21.602526 32.849609,16.654297 31.73446,12.234729 27.90727,8.6641948 23.837891,6.8574219 19.763636,5.5634855 17.561538,0.17840504 13.074219,0 Z M 7.4921875,14.085938 a 5.6696428,5.6696428 0 0 0 0.00586,0.06641 c -0.00594,-0.01366 -0.013846,-0.02514 -0.019531,-0.03906 0.00394,-0.0094 0.00971,-0.01792 0.013672,-0.02734 z"
       transform="matrix(0.26458333,0,0,0.26458333,350.93533,56.544922)" />
  </g>
  <g
     inkscape:label="Layer 1"
     inkscape:groupmode="layer"
     id="layer1"
     style="display:inline"
     transform="translate(-350.93533,-56.544922)">
    <path
       id="path610"
       style="mix-blend-mode:normal;fill:#070707;fill-opacity:1;stroke:#9fa18b;stroke-width:0;stroke-linecap:round;stroke-linejoin:round;stroke-miterlimit:4;stroke-dasharray:none;stroke-opacity:1"
       d="m 355.53101,63.50853 c -0.58209,0.0338 -1.53459,-0.148034 -2.11667,-0.404077 -0.58208,-0.256042 -1.28271,-0.716743 -1.55694,-1.023781 -0.37898,-0.424297 -0.46041,-0.793657 -0.33941,-1.539317 0.11501,-0.708747 0.54195,-1.368631 1.53811,-2.377318 1.37891,-1.396251 1.37891,-1.396251 2.51631,-0.347835 0.62557,0.576628 1.29605,1.048417 1.48996,1.048417 0.1939,0 0.73234,0.371316 1.19653,0.825146 0.46419,0.453829 0.84398,1.056968 0.84398,1.34031 0,0.283342 -0.12865,0.755544 -0.28588,1.049338 -0.15723,0.293793 -0.72278,0.721706 -1.25677,0.950917 -0.53399,0.229209 -1.44714,0.4444 -2.02922,0.4782 z m -1.09236,-2.262661 c 0.76087,0 1.52627,-0.142875 1.7009,-0.3175 0.17462,-0.174625 0.3175,-0.450358 0.3175,-0.612738 0,-0.16238 -0.47657,-0.563081 -1.05903,-0.890444 -0.93104,-0.523275 -1.03862,-0.681046 -0.89017,-1.305492 0.16886,-0.710284 0.16886,-0.710284 -0.68438,0.08347 -0.46929,0.436562 -1.02033,1.113552 -1.22454,1.504418 -0.32435,0.620824 -0.31897,0.762984 0.0425,1.124479 0.26983,0.269833 0.89513,0.413811 1.7972,0.413811 z" />
  </g>
</svg>
