<?xml version="1.0" encoding="UTF-8" standalone="no"?>
<svg
   xmlns:dc="http://purl.org/dc/elements/1.1/"
   xmlns:cc="http://creativecommons.org/ns#"
   xmlns:rdf="http://www.w3.org/1999/02/22-rdf-syntax-ns#"
   xmlns:svg="http://www.w3.org/2000/svg"
   xmlns="http://www.w3.org/2000/svg"
   xmlns:sodipodi="http://sodipodi.sourceforge.net/DTD/sodipodi-0.dtd"
   xmlns:inkscape="http://www.inkscape.org/namespaces/inkscape"
   width="6.1402884mm"
   height="9.2756443mm"
   viewBox="0 0 6.1402881 9.2756443"
   version="1.1"
   id="svg46"
   inkscape:version="1.0.2-2 (e86c870879, 2021-01-15)"
   sodipodi:docname="rupee.svg">
  <defs
     id="defs40" />
  <sodipodi:namedview
     id="base"
     pagecolor="#ffffff"
     bordercolor="#666666"
     borderopacity="1.0"
     inkscape:pageopacity="0.0"
     inkscape:pageshadow="2"
     inkscape:zoom="11.2"
     inkscape:cx="9.0308519"
     inkscape:cy="17.61142"
     inkscape:document-units="mm"
     inkscape:current-layer="layer5"
     inkscape:document-rotation="0"
     showgrid="false"
     inkscape:window-width="1280"
     inkscape:window-height="961"
     inkscape:window-x="-8"
     inkscape:window-y="46"
     inkscape:window-maximized="1" />
  <metadata
     id="metadata43">
    <rdf:RDF>
      <cc:Work
         rdf:about="">
        <dc:format>image/svg+xml</dc:format>
        <dc:type
           rdf:resource="http://purl.org/dc/dcmitype/StillImage" />
        <dc:title />
      </cc:Work>
    </rdf:RDF>
  </metadata>
  <g
     inkscape:groupmode="layer"
     id="layer5"
     inkscape:label="Layer 3"
     transform="translate(-352.17,-66.803824)"
     sodipodi:insensitive="true">
    <path
       id="path480-5"
       style="display:inline;mix-blend-mode:darken;fill:#9fa18b;fill-opacity:1;stroke:#9fa18b;stroke-width:0;stroke-linecap:round;stroke-linejoin:round;stroke-miterlimit:4;stroke-dasharray:none;stroke-opacity:1"
       d="m 354.60352,66.960938 c -0.75496,0.79263 -1.68404,1.464794 -2.32879,2.334219 -0.1998,1.012923 -0.0283,2.102063 -0.0853,3.144296 -0.0547,0.648356 -0.033,1.369762 0.59763,1.740923 0.74351,0.601728 1.30639,1.484725 2.18167,1.882124 1.05002,0.16778 1.57692,-0.950853 2.30662,-1.497204 0.52123,-0.475061 1.19676,-0.978338 1.00002,-1.782483 -0.0528,-1.152051 0.10544,-2.347423 -0.0788,-3.472501 -0.59742,-0.846974 -1.50586,-1.478261 -2.22282,-2.241989 -0.34851,-0.340769 -0.9607,-0.324981 -1.37027,-0.107385 z" />
  </g>
  <g
     inkscape:label="Layer 1"
     inkscape:groupmode="layer"
     id="layer1"
     style="display:inline"
     transform="translate(-352.17,-66.803824)"
     sodipodi:insensitive="true">
    <path
       id="path480"
       style="mix-blend-mode:normal;fill:#070707;fill-opacity:1;stroke:#9fa18b;stroke-width:0;stroke-linecap:round;stroke-linejoin:round;stroke-miterlimit:4;stroke-dasharray:none;stroke-opacity:1"
       d="m 355.23241,75.534125 h -0.26458 l -1.12448,-1.07537 -1.12448,-1.07538 v -1.94458 -1.94459 l 1.12448,-1.07538 1.12448,-1.07537 h 0.26458 0.26458 l 1.12448,1.07537 1.12448,1.07538 v 1.94459 1.94458 l -1.12448,1.07538 -1.12448,1.07537 z m -0.0424,-1.05997 0.2222,0.007 0.76999,-0.72674 0.76999,-0.72675 v -1.58922 -1.58921 l -0.76999,-0.72675 -0.76999,-0.72675 h -0.17982 -0.17981 l -0.76999,0.72674 -0.76999,0.72675 v 1.56631 1.56631 l 0.72761,0.7423 0.7276,0.74231 0.2222,0.007 z m -0.004,-1.05099 h -0.26889 l -0.43788,-0.48385 -0.43788,-0.48386 v -1.06263 -1.06264 l 0.48385,-0.43789 0.48386,-0.43788 h 0.26888 0.26889 l 0.43788,0.48386 0.43789,0.48385 v 1.06264 1.06264 l -0.48386,0.43788 -0.48385,0.43788 z" />
  </g>
</svg>
