<?xml version="1.0" encoding="UTF-8" standalone="no"?>
<svg
   xmlns:dc="http://purl.org/dc/elements/1.1/"
   xmlns:cc="http://creativecommons.org/ns#"
   xmlns:rdf="http://www.w3.org/1999/02/22-rdf-syntax-ns#"
   xmlns:svg="http://www.w3.org/2000/svg"
   xmlns="http://www.w3.org/2000/svg"
   xmlns:xlink="http://www.w3.org/1999/xlink"
   xmlns:sodipodi="http://sodipodi.sourceforge.net/DTD/sodipodi-0.dtd"
   xmlns:inkscape="http://www.inkscape.org/namespaces/inkscape"
   width="6.1402884mm"
   height="9.2756443mm"
   viewBox="0 0 6.1402881 9.2756443"
   version="1.1"
   id="svg46"
   inkscape:version="1.0.2-2 (e86c870879, 2021-01-15)"
   sodipodi:docname="rupee.svg">
  <defs
     id="defs40" />
  <sodipodi:namedview
     id="base"
     pagecolor="#ffffff"
     bordercolor="#666666"
     borderopacity="1.0"
     inkscape:pageopacity="0.0"
     inkscape:pageshadow="2"
     inkscape:zoom="2.8"
     inkscape:cx="-74.275118"
     inkscape:cy="-33.969118"
     inkscape:document-units="mm"
     inkscape:current-layer="layer1"
     inkscape:document-rotation="0"
     showgrid="false"
     inkscape:window-width="1280"
     inkscape:window-height="961"
     inkscape:window-x="-8"
     inkscape:window-y="46"
     inkscape:window-maximized="1" />
  <metadata
     id="metadata43">
    <rdf:RDF>
      <cc:Work
         rdf:about="">
        <dc:format>image/svg+xml</dc:format>
        <dc:type
           rdf:resource="http://purl.org/dc/dcmitype/StillImage" />
        <dc:title></dc:title>
      </cc:Work>
    </rdf:RDF>
  </metadata>
  <g
     inkscape:groupmode="layer"
     id="layer2"
     inkscape:label="Layer 2"
     style="display:none"
     sodipodi:insensitive="true"
     transform="translate(-352.17,-66.803824)">
    <image
       sodipodi:absref="P:\www\static\botw-stats-theme\botw.png"
       xlink:href="../../botw.png"
       y="1.0772318"
       x="198.17291"
       id="image492"
       preserveAspectRatio="none"
       height="110.86042"
       width="180.44583" />
  </g>
  <g
     inkscape:groupmode="layer"
     id="layer5"
     inkscape:label="Layer 3"
     transform="translate(-352.17,-66.803824)">
    <path
       id="path626-5"
       style="display:inline;mix-blend-mode:darken;fill:#9fa18b;fill-opacity:1;stroke:#9fa18b;stroke-width:0;stroke-linecap:round;stroke-linejoin:round;stroke-miterlimit:4;stroke-dasharray:none;stroke-opacity:1"
       d="m 353.00195,15.503906 c -1.13574,0.1782 -1.70757,1.690159 -0.93215,2.556714 0.79974,1.137665 1.7147,2.239577 2.81692,3.089771 0.91014,0.08494 1.33447,-0.943233 1.96329,-1.436591 0.65844,-0.78801 1.56909,-1.553369 1.7203,-2.618097 0.0431,-1.15326 -1.40126,-2.115194 -2.35937,-1.316406 -0.39931,0.24924 -0.72531,0.589885 -1.07813,0.896484 -0.60608,-0.509149 -1.25219,-1.312649 -2.13086,-1.171875 z" />
    <path
       id="path624-5"
       style="display:inline;mix-blend-mode:darken;fill:#9fa18b;fill-opacity:1;stroke:#9fa18b;stroke-width:0;stroke-linecap:round;stroke-linejoin:round;stroke-miterlimit:4;stroke-dasharray:none;stroke-opacity:1"
       d="m 345.06445,15.503906 c -1.13574,0.1782 -1.70757,1.690159 -0.93215,2.556714 0.79974,1.137665 1.7147,2.239577 2.81692,3.089771 0.91014,0.08494 1.33447,-0.943233 1.96329,-1.436591 0.65844,-0.78801 1.56909,-1.553369 1.7203,-2.618097 0.0431,-1.15326 -1.40126,-2.115194 -2.35937,-1.316406 -0.39931,0.24924 -0.72531,0.589885 -1.07813,0.896484 -0.60608,-0.509149 -1.25219,-1.312649 -2.13086,-1.171875 z" />
    <path
       id="path622-1"
       style="display:inline;mix-blend-mode:darken;fill:#9fa18b;fill-opacity:1;stroke:#9fa18b;stroke-width:0;stroke-linecap:round;stroke-linejoin:round;stroke-miterlimit:4;stroke-dasharray:none;stroke-opacity:1"
       d="m 337.12695,15.503906 c -1.13574,0.1782 -1.70757,1.690159 -0.93215,2.556714 0.79974,1.137665 1.7147,2.239577 2.81692,3.089771 0.91014,0.08494 1.33447,-0.943233 1.96329,-1.436591 0.65844,-0.78801 1.56909,-1.553369 1.7203,-2.618097 0.0431,-1.15326 -1.40126,-2.115194 -2.35937,-1.316406 -0.39931,0.24924 -0.72531,0.589885 -1.07813,0.896484 -0.60608,-0.509149 -1.25219,-1.312649 -2.13086,-1.171875 z" />
    <path
       id="path618-5"
       style="display:inline;mix-blend-mode:darken;fill:#9fa18b;fill-opacity:1;stroke:#9fa18b;stroke-width:0;stroke-linecap:round;stroke-linejoin:round;stroke-miterlimit:4;stroke-dasharray:none;stroke-opacity:1"
       d="m 355.01367,22.957031 c -1.45253,0.05894 -2.83065,0.87265 -3.50229,2.177765 -1.15012,1.851257 -0.36265,4.545608 1.5578,5.551387 1.85157,1.219548 4.61644,0.446373 5.63653,-1.507314 1.21908,-1.850707 0.44672,-4.61387 -1.50498,-5.635203 -0.64244,-0.420297 -1.42156,-0.621702 -2.18706,-0.586635 z m 0.23242,2.84375 c 0.90729,0.160244 1.63093,1.401748 0.84375,2.119141 -0.43954,0.526845 -1.26487,0.693556 -1.76172,0.15039 -0.56805,-0.468286 -0.67433,-1.356085 -0.0723,-1.84375 0.27052,-0.225508 0.62923,-0.440137 0.99023,-0.425781 z" />
    <path
       id="path614-2"
       style="display:inline;mix-blend-mode:darken;fill:#9fa18b;fill-opacity:1;stroke:#9fa18b;stroke-width:0;stroke-linecap:round;stroke-linejoin:round;stroke-miterlimit:4;stroke-dasharray:none;stroke-opacity:1"
       d="m 355.11719,34.070312 c -1.84575,0.168868 -3.5323,1.373933 -4.45703,2.945313 0.15402,0.577545 -0.50684,0.98704 -0.40027,1.60389 -0.16918,2.783876 2.33153,5.264687 5.0448,5.39611 1.5851,-0.44582 3.34324,-1.187009 4.03255,-2.808885 0.633,-1.105466 1.07802,-2.535654 0.36588,-3.710646 -0.47974,-0.176991 -0.21351,-0.80839 -0.58974,-1.143054 -0.83664,-1.169055 -2.22161,-1.872514 -3.57627,-2.25929 -0.13864,-0.01907 -0.28002,-0.02593 -0.41992,-0.02344 z m -1.81641,4.388672 c 0.48944,-0.06716 0.1934,0.668696 0.51563,0.900391 0.57331,0.21797 0.32795,0.967227 -0.0775,0.656229 -0.47133,-0.01286 -0.34122,-0.870356 -0.62469,-0.948197 0.37408,-0.02573 -0.38818,-0.869456 0.18658,-0.608423 z m 3.46484,0.548828 c 0.7154,0.194198 0.36144,0.169809 0.1543,0.72461 -0.35957,-0.318551 -1.2187,0.457052 -0.48633,-0.09766 0.37049,-0.27894 0.13518,-0.952308 0.39814,-1.164126 0.0105,0.141603 -0.0473,0.366425 -0.0661,0.537172 z m -1.50976,0.994141 c -0.28741,0.654687 -0.29682,-0.528665 0,0 z" />
    <path
       id="path610-9"
       style="display:inline;mix-blend-mode:darken;fill:#9fa18b;fill-opacity:1;stroke:#9fa18b;stroke-width:0;stroke-linecap:round;stroke-linejoin:round;stroke-miterlimit:4;stroke-dasharray:none;stroke-opacity:1"
       d="m 354.39453,56.544922 c -0.99548,0.213231 -1.57817,1.19374 -2.27939,1.855082 -0.98755,1.006995 -1.71538,2.807934 -0.66592,4.016012 1.54062,1.549044 3.99475,2.036069 6.01824,1.211524 1.17448,-0.357105 2.24011,-1.367149 2.15949,-2.676368 -0.29505,-1.169344 -1.30807,-2.113755 -2.38476,-2.591797 -1.07798,-0.342354 -1.66039,-1.76725 -2.84766,-1.814453 z m -0.38867,2.361328 c 0.36426,0.765324 1.30028,0.932353 1.86719,1.498047 -0.38962,0.400946 -1.11033,0.257427 -1.63341,0.301917 -0.4263,-0.04621 -1.13929,0.02919 -1.32558,-0.426917 0.23551,-0.564237 0.64046,-1.036969 1.06055,-1.472656 l 0.0299,0.09541 z" />
    <path
       id="path550-3"
       style="display:inline;mix-blend-mode:darken;fill:#9fa18b;fill-opacity:1;stroke:#9fa18b;stroke-width:0;stroke-linecap:round;stroke-linejoin:round;stroke-miterlimit:4;stroke-dasharray:none;stroke-opacity:1"
       d="m 249.10938,78.457031 c -0.98166,0.177365 -0.75407,1.413183 -0.73903,2.141971 0.15406,1.834715 0.1447,3.702357 -0.41419,5.475243 -0.36956,1.265294 -0.58954,2.579056 -0.90788,3.852373 -0.42143,1.058835 -1.0741,2.173293 -1.3432,3.204241 -0.72246,-0.882892 -1.97841,-1.535043 -3.125,-1.230468 -0.59561,0.08299 -0.14453,1.13614 -0.72656,0.685547 -1.21002,-0.303873 -2.5577,-0.59001 -3.77149,-0.19336 -0.64036,0.439371 -0.0522,1.221094 0.54492,1.324219 0.86496,0.401249 2.07329,0.516755 2.54493,1.443359 -0.0364,0.525909 -0.22414,1.333451 0.50976,1.466797 0.43348,0.183896 1.15878,-0.384223 1.37084,0.06397 0.38016,0.793773 1.51874,0.598794 1.88697,-0.106939 -0.13002,1.127299 0.0621,2.279556 -0.23183,3.396617 -0.60109,2.815829 -1.05746,5.738139 -2.55738,8.251399 -0.31264,0.75597 -1.19136,1.52553 -0.79672,2.39691 0.78013,0.79017 2.08382,0.13526 2.68554,-0.58594 0.43242,-0.37145 0.34547,-1.02094 0.8418,-1.30274 0.0356,0.256 -0.25147,0.9686 -0.12662,1.41246 0.21165,0.86618 1.278,0.53643 1.77625,0.12928 0.93929,-0.45345 0.91087,-1.70017 0.92654,-2.49486 0.29183,0.78431 1.36617,1.12425 1.93945,0.42773 0.35586,-0.35757 0.37231,-0.91914 0.23829,-1.37695 0.63338,0.52422 1.38194,-0.229 1.25,-0.91797 0.0361,-0.44379 -0.61408,-0.90947 0.13086,-0.78519 1.15411,-0.3217 0.62894,-2.18022 -0.49415,-2.03317 -0.71966,0.27683 -0.14834,-0.53982 -0.22346,-0.93764 0.14096,-0.96546 -0.20356,-1.96691 0.0223,-2.908061 0.29341,-0.166736 0.76301,0.509134 1.22577,0.09009 0.50007,-0.181414 1.00493,-0.416506 1.35431,-0.832272 0.74402,0.532027 1.64658,-0.04553 2.33203,-0.408203 1.03155,0.942636 2.34516,1.890378 3.80301,1.813724 0.41587,-0.08899 0.95282,-0.438687 0.80637,-0.932865 0.72202,0.216185 1.83195,0.39421 2.1046,-0.545798 0.27542,-0.880091 -0.74654,-1.382142 -1.45226,-1.522561 0.47364,-0.678973 -0.43604,-1.449385 -1.08178,-1.561802 -1.11606,-0.240404 -2.2527,0.142022 -3.35572,0.313755 -0.15076,0.642199 -0.76535,-0.338908 -1.08643,-0.497202 -0.27465,-0.400198 -0.93464,-0.35457 -1.11995,-0.682593 -0.29631,-0.639143 -0.87664,-1.429189 -1.67057,-1.326065 -0.3038,-0.698988 -0.0812,-1.433869 0.36632,-2.010476 0.3789,-0.640005 0.69024,-1.331361 0.85047,-2.059836 0.79124,0.5725 2.24542,-0.125132 1.88086,-1.181641 -0.29185,-0.440949 -0.48361,-0.482707 -0.0488,-0.886718 0.34839,-0.567396 0.0171,-1.530486 -0.75196,-1.378907 0.97106,-0.604622 0.5833,-2.562755 -0.66406,-2.416015 -0.31651,-0.03179 -1.12775,0.887416 -0.80355,0.310186 0.45404,-0.784646 0.84957,-1.804447 0.2292,-2.620864 -0.23356,-0.580487 -1.03137,-1.262861 -1.55846,-0.597525 -0.34888,0.443403 -0.47646,1.005673 -0.62696,1.537109 -0.20358,-1.004106 -0.0981,-2.203771 -0.80211,-3.01898 -0.30848,-0.27175 -0.72445,-0.450513 -1.14124,-0.383364 z m 3.66015,7.91211 c -9.2e-4,0.0063 -0.009,-0.0044 0,0 z m -1.46875,1.310547 c -0.0219,0.26576 -0.0344,0.140256 0,0 z m 2.07031,-0.0039 c -0.006,0.02615 -0.0188,-0.01337 0,0 z m -10.21289,6.035157 c 0.19092,0.25087 0.87312,0.441828 0.70703,0.787109 -0.61131,0.287321 -0.71162,-0.502436 -0.85546,-0.900391 l 0.0795,0.06067 z m 5.39453,11.587895 c 0.19745,0.37882 -0.42838,0.0444 0,0 z" />
    <path
       id="path546-1"
       style="display:inline;mix-blend-mode:darken;fill:#9fa18b;fill-opacity:1;stroke:#9fa18b;stroke-width:0;stroke-linecap:round;stroke-linejoin:round;stroke-miterlimit:4;stroke-dasharray:none;stroke-opacity:1"
       d="m 346.64062,89.613281 c -0.59757,-0.02993 -0.98271,0.692767 -0.62695,1.173828 -0.42883,-0.490608 -1.1591,-1.353497 -1.82812,-0.724609 -0.42866,0.425678 -0.57375,1.161202 -0.79297,1.617188 -0.92492,-0.537236 -2.06331,-0.534978 -3.08399,-0.810547 -0.72055,-0.269405 -1.51613,0.08877 -1.7539,0.828125 -0.9051,1.993788 -1.20774,4.182058 -1.40039,6.341796 -1.32569,0.32533 -2.73731,0.307264 -4.02344,0.767579 -0.66687,0.303387 -0.58061,1.361009 0.18359,1.453129 1.38105,0.39352 2.848,0.28428 4.24414,0.55664 0.52375,0.2579 0.57031,1.03111 1.15821,1.19921 -0.49908,0.63029 0.12382,1.47956 0.7832,1.66016 -0.46324,0.44505 -0.18146,1.29484 0.27148,1.5625 -0.42142,0.39429 -0.23525,1.05701 0.13672,1.41406 -0.93191,0.12305 -2.32512,0.38741 -2.36132,1.57227 -0.12156,0.67953 0.1468,1.57271 0.97851,1.55078 0.82664,0.0261 1.67405,-0.004 2.44922,0.28711 1.08166,0.0524 1.26955,-1.23748 1.1875,-2.05664 0.0832,-0.49301 -0.5353,-0.92023 0.10937,-1.13672 0.47641,-0.47435 0.62319,-1.51926 -0.0918,-1.8457 0.42146,0.004 0.56772,-1.03921 0.73633,-0.52735 0.77097,1.12264 1.47228,2.38212 1.40234,3.78907 0.40778,0.54525 -0.35563,0.53693 -0.52539,1.01367 -0.4307,0.60594 -0.44616,1.77516 0.49414,1.86719 1.44934,0.10228 2.92511,0.0483 4.36719,-0.12891 1.19482,-0.19969 1.11371,-2.025 0.0645,-2.39258 0.0375,-0.27032 0.32334,-0.86959 0.26981,-1.31874 -0.0153,-0.92765 0.37218,-2.19774 1.51362,-2.14212 0.76355,-0.002 1.97154,-0.20335 2.19788,0.78145 0.3864,0.82297 0.16258,1.83604 0.68861,2.59347 -0.9941,0.28082 -1.64795,1.81694 -0.6582,2.48438 1.4154,0.31588 2.9055,0.12923 4.34375,0.0488 0.88173,0.0342 1.51016,-0.94925 1.06445,-1.71875 -0.0289,-0.42304 -0.8111,-0.60579 -0.66214,-0.85934 0.41171,-0.81353 0.27751,-1.80548 0.74755,-2.61513 0.43791,-1.23089 1.51255,-2.36145 1.29154,-3.74038 -0.26449,-0.73637 -0.66037,-1.41828 -1.07031,-2.08203 0.91083,0.5872 1.86671,-0.458037 2.22266,-1.238279 0.41127,-0.623481 -0.0986,-1.432945 -0.83985,-1.330079 -0.79685,0.0265 -1.77707,-0.156562 -2.42187,0.371094 0.44167,-0.719862 0.56698,-1.635045 0.0658,-2.362452 -0.4345,-0.821553 -1.01497,-1.731751 -1.96224,-1.99497 0.71652,-0.672156 -0.19581,-1.70697 -0.89112,-1.9682 -0.44696,-0.227665 -1.06724,-0.197931 -1.41943,0.184997 -0.1827,-0.905091 -1.30973,-0.84337 -2.01313,-1.048789 -0.45877,-0.325884 -0.9263,0.6573 -1.05024,0.03273 -0.71599,-0.738104 -1.88198,-0.676434 -2.80329,-1.014815 -0.22672,-0.04996 -0.45815,-0.105141 -0.69194,-0.09412 z m 0.75977,2.994141 c 0.42352,0.435027 0.8683,0.895369 1.45117,1.107422 -0.43008,0.731411 -0.25453,1.682965 -0.32999,2.508125 -0.0221,1.539445 0.14024,3.338424 -1.07235,4.505551 -0.76832,0.31821 -1.64733,0.40121 -2.36992,0.87011 -0.83346,0.45882 -1.80608,1.19272 -2.2668,1.86817 -0.0173,-0.48633 -1.17939,-0.37765 -0.67578,-0.69727 0.58065,-0.55219 0.1823,-1.59944 -0.45703,-1.91211 0.51213,-0.59096 0.0527,-1.329061 -0.44141,-1.738279 -0.53434,-0.80653 -1.21155,-1.586804 -1.49125,-2.516049 -0.14315,-0.787925 0.14274,-1.611544 0.71391,-2.165592 -0.60047,0.810921 -0.97714,2.041376 -0.24024,2.896484 0.51741,0.993715 1.67821,1.37962 2.73612,1.189084 1.62228,-0.154378 2.19608,-2.230736 1.65646,-3.554318 0.58041,0.808994 0.47926,1.903469 -0.11238,2.674418 -0.39971,0.628568 -0.72339,1.495984 -0.0942,2.10202 0.46396,0.659532 1.46522,1.562152 2.25542,0.870042 1.0521,-1.205341 1.84734,-2.784131 1.84238,-4.410505 -0.071,-1.393162 -0.58124,-2.72705 -1.35605,-3.878553 0.084,0.09375 0.16797,0.1875 0.25195,0.28125 z m 5.83984,0.484375 c 0.50163,0.463571 -0.43248,0.358002 0,0 z m -10.03125,0.111328 c -0.068,0.322928 0.92928,1.057036 0.28656,0.697982 -0.46525,-0.261621 -1.24234,-0.316489 -1.61077,-0.266341 0.45043,-0.08707 0.96956,-0.254283 1.32421,-0.431641 z m 7.03516,0.08594 c 0.30437,0.408617 -0.3734,0.129692 0,0 z" />
    <path
       id="path542-3"
       style="display:inline;mix-blend-mode:darken;fill:#9fa18b;fill-opacity:1;stroke:#9fa18b;stroke-width:0;stroke-linecap:round;stroke-linejoin:round;stroke-miterlimit:4;stroke-dasharray:none;stroke-opacity:1"
       d="m 275.69141,85.369141 c -0.71799,0.195218 -1.48373,0.58355 -2.00196,1.019531 -0.64377,-0.724702 -1.9139,-0.871663 -2.60351,-0.126953 -0.68942,-0.538238 -1.67167,-1.056533 -2.55664,-0.761719 -0.96347,0.612129 -0.52669,1.92386 -0.11208,2.746613 0.26383,0.887137 1.02513,1.814402 2.05739,1.540496 0.49306,-0.248459 0.68097,-0.237158 1.08203,0.152344 0.22031,0.151747 -0.65201,0.531015 -0.61328,0.957031 -0.26533,0.359212 0.0489,1.24755 -0.62891,0.97461 -0.91007,-0.119856 -1.17023,0.902259 -1.14648,1.611328 -0.17914,0.70608 0.54508,1.288404 1.20344,0.999475 0.39575,-0.386951 0.67479,0.474666 0.17547,0.289587 -0.92182,-0.09504 -1.18751,0.998009 -0.97276,1.703101 0.0253,0.783326 0.87789,1.45173 1.60752,0.988306 0.55511,-0.145108 0.2312,0.571123 -0.26858,0.403071 -0.95081,0.32892 -0.44544,1.510419 -0.0322,2.089116 0.35354,0.716312 1.51355,1.034602 1.91211,0.193362 0.28424,-0.0648 0.36083,0.21688 0.0772,0.31366 -0.61556,0.3717 -0.69019,1.21512 -0.15383,1.69157 0.40897,0.58409 1.21062,1.35052 1.93016,0.76821 0.42551,-0.13029 0.33211,-0.94892 0.76461,-0.84039 0.65744,0.11786 1.79514,0.35142 1.9268,-0.59321 0.0375,-1.43677 -1.52112,-1.930362 -2.41797,-2.728514 -0.80303,-0.657411 -1.2449,-1.636451 -1.58203,-2.59375 0.54368,1.068467 1.37064,2.306251 2.68555,2.376953 0.67759,-0.5042 0.47253,0.288756 0.5392,0.799585 -0.0323,0.543175 0.38535,1.280706 1.00572,0.977756 -0.0389,0.68892 -0.30601,1.57821 0.26953,2.10938 0.68752,-0.0548 0.0719,0.79019 0.45111,1.16893 0.0293,0.41547 0.67546,0.74056 0.56452,1.05177 -0.58214,0.74884 -0.10898,1.68259 0.20703,2.42383 0.0716,0.5507 -0.15077,1.16694 0.19531,1.6914 -0.6732,0.0186 -0.85621,0.81054 -0.4453,1.25997 0.30923,0.58317 0.94549,1.62326 1.69921,1.03886 0.59863,-0.51356 1.14927,-1.81431 0.19531,-2.24804 -0.008,-0.2587 0.39537,-0.85972 0.25603,-1.31305 -0.20188,-0.41028 0.0757,-0.65068 0.23225,-1.00531 0.20044,-0.62375 0.1426,-1.32638 -0.1543,-1.91016 0.4729,-0.57716 0.90188,-1.43711 0.64844,-2.16016 0.40356,0.12896 0.84639,-0.0443 1.09961,-0.37304 0.24292,0.55093 1.00352,0.30296 0.64655,1.04334 0.0232,0.40745 0.24356,0.78911 0.54486,1.05627 -0.49766,0.86823 0.094,1.89515 0.41992,2.67968 -0.16236,0.6401 -0.0394,1.33574 0.19336,1.94336 -0.96286,0.43406 -0.39992,1.74782 0.24023,2.22266 0.70841,0.67021 1.57429,-0.18801 1.7513,-0.9094 0.30463,-0.54808 0.0892,-1.34268 -0.56966,-1.42654 0.49305,-1.19896 0.52703,-2.52589 0.73828,-3.79101 -0.23561,-0.54182 0.095,-0.75188 0.32227,-1.18946 0.13269,-0.40808 0.0314,-0.84885 -0.14063,-1.22851 0.83239,0.16708 1.14623,-0.79574 0.96875,-1.44922 0.0765,-0.36017 -0.53841,-1.361265 -0.20522,-1.214877 1.03025,0.410937 1.74452,1.502007 2.9064,1.566437 1.14915,-0.24572 1.69115,-1.489038 2.18993,-2.435648 0.28647,-0.494453 0.51936,-1.060195 0.12647,-1.558491 -0.99553,-0.272306 -2.08032,0.0094 -3.07422,-0.240234 -0.50601,-1.252796 -0.93245,-2.588651 -1.92169,-3.568529 -0.44789,-0.382724 -0.5758,-0.5582 -0.0197,-0.88069 0.41085,-0.598937 1.04918,-1.590212 0.33593,-2.197266 -0.0131,-1.498863 -1.44862,-3.017967 -2.99804,-2.707031 -1.12835,0.310408 -2.05126,1.364838 -2.07813,2.552735 -0.4089,0.02517 -0.8736,-0.08054 -0.87109,-0.583985 -0.32106,-1.45615 -2.03917,-2.461293 -3.43013,-1.837866 -1.07154,0.519408 -1.511,1.74954 -1.5855,2.863257 -0.28419,0.444835 -0.61709,0.986652 -0.27811,1.518396 0.5776,0.849424 -0.17832,1.788684 -0.42068,2.619871 -0.306,0.2069 -0.23016,1.333109 -0.53956,0.989315 -1.15766,-0.787974 -1.90614,-2.051615 -2.06778,-3.439862 -0.2147,-0.84681 -0.30167,-1.871611 -1.06301,-2.427954 0.47546,-0.03929 0.65575,-0.717148 1.09571,-0.291016 0.87478,0.305708 1.87254,-0.133104 2.18207,-1.019259 0.36963,-0.851543 0.98193,-1.836711 0.62976,-2.77873 -0.19819,-0.414197 -0.65905,-0.718231 -1.12433,-0.565292 z" />
    <path
       id="path361-1"
       style="display:inline;mix-blend-mode:darken;fill:#9fa18b;fill-opacity:1;stroke:#9fa18b;stroke-width:0;stroke-linecap:round;stroke-linejoin:round;stroke-miterlimit:4;stroke-dasharray:none;stroke-opacity:1"
       d="m 324.5957,88.158203 c -0.69271,0.01905 -0.43767,0.920233 -1.02717,1.077315 -0.50732,0.19392 -1.21045,0.705486 -0.74236,1.291826 0.44004,0.59036 1.37756,1.114377 1.99219,0.453125 0.47996,-0.364676 1.29001,-0.75666 1.73047,-0.128907 0.79481,0.671553 2.14418,0.02719 2.44336,-0.867187 0.0977,-0.637563 -0.60277,-0.958088 -1.13281,-0.792969 -0.65767,-0.005 -0.35162,-0.962112 -1.01567,-0.992039 -0.62517,-0.07701 -1.26629,0.511142 -1.85152,0.02915 -0.12521,-0.05072 -0.26148,-0.07705 -0.39649,-0.07031 z m -18.38476,2.017578 c -0.74626,0.07197 -0.72351,1.004498 -0.27399,1.419844 0.21613,0.475059 0.8771,0.550832 1.19196,0.496172 0.0602,0.451188 0.71875,0.562822 0.83034,0.786486 -0.33274,0.468395 0.42788,0.857614 0.30061,1.128601 -0.37812,0.303881 0.21038,1.096876 -0.48838,0.789991 -1.24286,-0.05933 -1.99872,1.483176 -3.28844,1.111156 -0.36295,-0.193666 -1.21105,0.138639 -1.22718,-0.230297 -0.0941,-1.070868 -1.42851,-1.112671 -2.22945,-1.347142 -0.972,-0.150564 -1.99206,-0.441075 -2.96782,-0.219264 -0.73973,0.598014 -0.028,1.539142 0.18067,2.231668 0.48798,0.965308 0.85273,2.143838 1.78613,2.764426 0.61373,0.15608 1.11429,-0.373769 1.52539,-0.748047 -0.15472,0.969334 1.10695,1.385425 1.0554,2.344755 0.494,0.40637 0.39788,0.58053 0.14382,1.16696 -0.0651,0.54676 0.0876,1.10134 0.32227,1.5918 -0.46246,0.24314 -0.41035,0.71849 -1.00782,0.49609 -0.50096,0.1471 -0.4327,0.85765 -1.00586,0.42188 -0.45041,-0.33669 -1.10394,0.38311 -0.99414,-0.37305 -0.24364,-0.90065 -1.83413,-1.10989 -2.01172,-0.0742 -0.0923,0.89261 1.10411,1.9322 1.84375,1.14649 0.16852,-0.62694 0.13483,0.54451 0.69336,0.58203 0.4124,0.34504 1.12265,0.84104 1.55078,0.25 0.45366,0.30102 1.17849,-0.0276 1.18555,-0.57422 0.50526,0.1137 1.25212,-0.18738 1.22266,-0.7832 1.06981,0.39528 2.17141,-0.52936 2.55859,-1.47071 0.47167,1.11365 1.8854,1.14726 2.89837,1.42059 0.653,0.19629 1.5111,0.0407 2.02351,0.53449 0.11534,0.70206 0.5972,1.32801 1.22265,1.66211 -0.36763,0.7197 0.41582,1.39644 1.03516,1.44336 -0.28587,0.51054 0.0646,1.31659 0.69922,1.27149 0.0777,0.75835 1.028,1.01369 1.64258,0.75781 0.13764,0.80637 1.1072,0.67511 1.57421,0.24609 0.63437,-0.26303 0.58293,-1.15992 -0.041,-1.40039 -0.40682,-0.29364 -1.12185,-0.55809 -1.42773,0.01 -0.28929,-0.41788 -0.85838,-0.46387 -0.85463,-1.02524 -0.45863,-0.25392 0.16657,-0.83719 -0.36803,-1.14664 -0.72805,-0.30326 0.43971,-0.41055 0.58445,-0.81164 0.33046,-0.35838 0.64327,-0.92531 0.355,-1.39734 1.64283,-0.29353 3.34636,-0.78225 4.67578,-1.82032 0.42423,-0.54751 -0.28464,-1.11664 -0.83656,-0.9491 -2.42342,0.15221 -4.77607,0.84208 -7.18445,0.20784 -1.52537,-0.33612 -3.04188,-0.83801 -4.3911,-1.63374 1.83806,0.52788 3.67912,1.1391 5.615,1.12335 1.50955,0.0407 3.08673,0.29906 4.5543,-0.14383 0.72027,-0.16167 0.7452,-1.16894 0.0553,-1.40139 -0.475,-0.349085 -1.16458,-0.399168 -1.55273,-0.841797 -0.0277,-0.869092 -0.29417,-1.82916 -1.04297,-2.351562 0.44614,-0.240687 0.12884,-0.88748 0.72852,-0.810547 -0.83449,-0.536952 -0.64969,-0.511898 0.14597,-0.134648 0.43125,-0.168582 0.23823,-0.919338 0.86438,-0.763409 0.83747,-0.170399 0.73369,-1.434621 -0.10215,-1.510146 -0.43105,-0.09241 -0.95715,0.106255 -1.10742,0.544921 -0.63981,-0.210071 -1.41203,0.304126 -1.38477,0.949219 -0.65977,-0.02171 -1.40397,0.82161 -0.78711,1.369141 -1.1922,0.209694 -2.21689,1.712161 -1.57617,2.841797 -1.19282,-0.2811 -2.25897,-1.034128 -3.48828,-1.134766 -0.025,-0.206867 0.45433,-0.766425 0.45312,-1.185547 0.11296,-0.470358 -0.12538,-1.032729 -0.39062,-1.320312 0.85197,-0.184156 0.81346,-1.3965 0.37695,-1.919922 0.45049,-0.726513 -0.43803,-1.65878 -1.19922,-1.576172 0.10682,-0.685985 -0.68395,-1.213267 -1.30664,-1.091797 0.0256,-0.698038 -0.75864,-1.04537 -1.35937,-0.919922 z m 19.33398,0.998047 c -0.62867,0.06706 -1.61363,0.314295 -1.45117,1.148438 0.3657,0.898797 1.59435,0.77456 2.38477,0.652343 0.63494,-0.01773 1.43972,-0.719142 0.86718,-1.324218 -0.50244,-0.363363 -1.18962,-0.495049 -1.80078,-0.476563 z m -0.002,2.357422 c -0.46501,1.025181 -0.29627,2.236992 -0.68559,3.302377 -0.38395,1.60064 -2.10148,2.148445 -3.35672,2.902231 -0.91205,0.500982 -1.01075,2.272192 0.0853,2.580552 0.96158,-0.0984 1.68772,-0.90172 2.45992,-1.41907 1.15585,-0.962204 2.57382,-1.971656 2.69798,-3.610691 0.10923,-1.221473 0.28658,-2.570984 -0.27509,-3.704618 -0.24588,-0.352197 -0.6193,-0.287089 -0.92578,-0.05078 z m -6.08985,0.07813 c -1.07997,0.149994 -1.01988,2.27327 0.16016,2.068359 0.77357,-0.09395 1.53004,-1.072778 0.8418,-1.722656 -0.26405,-0.247658 -0.63785,-0.399414 -1.00196,-0.345703 z" />
    <path
       id="path1465-9"
       style="display:inline;mix-blend-mode:darken;fill:#9fa18b;fill-opacity:1;stroke:#9fa18b;stroke-width:0;stroke-linecap:round;stroke-linejoin:round;stroke-miterlimit:4;stroke-dasharray:none;stroke-opacity:1"
       d="m 354.58203,45.003906 c -1.57566,1.583844 -3.15183,3.167177 -4.72851,4.75 -0.19681,0.696505 0.31574,1.100552 0.77525,1.526464 1.3591,1.331731 2.65992,2.749842 4.05519,4.027967 0.69622,0.384744 1.41686,-0.09969 1.83368,-0.670911 1.3679,-1.375145 2.73664,-2.749468 4.10541,-4.123754 0.19704,-0.696747 -0.31614,-1.100163 -0.77622,-1.525508 -1.36069,-1.328708 -2.66092,-2.746504 -4.05633,-4.022719 -0.36883,-0.201333 -0.84742,-0.155967 -1.20847,0.03846 z m 1.16602,2.699219 c -0.87754,0.252262 -0.60274,-0.677369 -0.0939,-0.09634 l 0.0698,0.07162 z m 1.00781,1.035156 c 0.46354,0.475912 0.92708,0.951823 1.39062,1.427735 -0.38747,0.714942 -0.79914,-0.01842 -1.20011,-0.353902 -0.0918,-0.296784 -0.21497,-0.924725 -0.19051,-1.073833 z m -2.89844,0.304688 c -0.13567,0.601588 -0.39466,1.157861 -0.875,1.568359 -0.76156,-0.442495 -0.0541,-0.843494 0.34834,-1.254166 0.19068,-0.118429 0.84239,-1.019258 0.52666,-0.314193 z m 1.50781,2.816406 c 0.31053,0.08141 0.45762,1.265084 -0.25195,0.925781 0.12437,-0.23628 -0.13537,-0.993392 0.25195,-0.925781 z" />
    <path
       id="path480-5"
       style="display:inline;mix-blend-mode:darken;fill:#9fa18b;fill-opacity:1;stroke:#9fa18b;stroke-width:0;stroke-linecap:round;stroke-linejoin:round;stroke-miterlimit:4;stroke-dasharray:none;stroke-opacity:1"
       d="m 354.60352,66.960938 c -0.75496,0.79263 -1.68404,1.464794 -2.32879,2.334219 -0.1998,1.012923 -0.0283,2.102063 -0.0853,3.144296 -0.0547,0.648356 -0.033,1.369762 0.59763,1.740923 0.74351,0.601728 1.30639,1.484725 2.18167,1.882124 1.05002,0.16778 1.57692,-0.950853 2.30662,-1.497204 0.52123,-0.475061 1.19676,-0.978338 1.00002,-1.782483 -0.0528,-1.152051 0.10544,-2.347423 -0.0788,-3.472501 -0.59742,-0.846974 -1.50586,-1.478261 -2.22282,-2.241989 -0.34851,-0.340769 -0.9607,-0.324981 -1.37027,-0.107385 z" />
  </g>
  <g
     inkscape:label="Layer 1"
     inkscape:groupmode="layer"
     id="layer1"
     style="display:inline"
     transform="translate(-352.17,-66.803824)">
    <image
       sodipodi:absref="P:\www\static\botw-stats-theme\rounded.png"
       xlink:href="../../rounded.png"
       sodipodi:insensitive="true"
       y="0.51025534"
       x="-186.22888"
       id="image58"
       preserveAspectRatio="none"
       height="110.86042"
       width="180.44583" />
    <path
       style="mix-blend-mode:darken;fill:#070707;fill-opacity:1;stroke:#9fa18b;stroke-width:0;stroke-linecap:round;stroke-linejoin:round;stroke-miterlimit:4;stroke-dasharray:none;stroke-opacity:1"
       d="m 355.13504,20.680299 c -0.0733,0.02638 -0.75833,-0.64495 -1.52231,-1.491857 -0.76399,-0.846906 -1.38907,-1.767416 -1.38907,-2.045577 0,-0.278161 0.14288,-0.648622 0.3175,-0.823247 0.17463,-0.174625 0.49554,-0.3175 0.71313,-0.3175 0.2176,0 0.72956,0.319932 1.13771,0.710959 0.74208,0.71096 0.74208,0.71096 1.48416,0 0.40815,-0.391027 0.92011,-0.710959 1.13771,-0.710959 0.21759,0 0.5385,0.142875 0.71313,0.3175 0.17462,0.174625 0.3175,0.550074 0.3175,0.834331 0,0.284257 -0.62465,1.183179 -1.38811,1.997604 -0.76346,0.814425 -1.44807,1.502361 -1.52135,1.528746 z"
       id="path626" />
    <path
       style="mix-blend-mode:darken;fill:#070707;fill-opacity:1;stroke:#9fa18b;stroke-width:0;stroke-linecap:round;stroke-linejoin:round;stroke-miterlimit:4;stroke-dasharray:none;stroke-opacity:1"
       d="m 347.19754,20.680299 c -0.0733,0.02638 -0.75833,-0.64495 -1.52231,-1.491857 -0.76399,-0.846906 -1.38907,-1.767416 -1.38907,-2.045577 0,-0.278161 0.14288,-0.648622 0.3175,-0.823247 0.17463,-0.174625 0.49554,-0.3175 0.71313,-0.3175 0.2176,0 0.72956,0.319932 1.13771,0.710959 0.74208,0.71096 0.74208,0.71096 1.48416,0 0.40815,-0.391027 0.92011,-0.710959 1.13771,-0.710959 0.21759,0 0.5385,0.142875 0.71313,0.3175 0.17462,0.174625 0.3175,0.550074 0.3175,0.834331 0,0.284257 -0.62465,1.183179 -1.38811,1.997604 -0.76346,0.814425 -1.44806,1.502361 -1.52135,1.528746 z"
       id="path624" />
    <path
       style="mix-blend-mode:darken;fill:#070707;fill-opacity:1;stroke:#9fa18b;stroke-width:0;stroke-linecap:round;stroke-linejoin:round;stroke-miterlimit:4;stroke-dasharray:none;stroke-opacity:1"
       d="m 339.26004,20.680299 c -0.0733,0.02638 -0.75833,-0.64495 -1.52231,-1.491857 -0.76399,-0.846906 -1.38907,-1.767416 -1.38907,-2.045577 0,-0.278161 0.14288,-0.648622 0.3175,-0.823247 0.17463,-0.174625 0.49554,-0.3175 0.71313,-0.3175 0.2176,0 0.72956,0.319932 1.13771,0.710959 0.74208,0.71096 0.74208,0.71096 1.48416,0 0.40815,-0.391027 0.92012,-0.710959 1.13771,-0.710959 0.21759,0 0.5385,0.142875 0.71313,0.3175 0.17462,0.174625 0.3175,0.550074 0.3175,0.834331 0,0.284257 -0.62465,1.183179 -1.38811,1.997604 -0.76346,0.814425 -1.44806,1.502361 -1.52135,1.528746 z"
       id="path622" />
    <path
       id="path618"
       style="mix-blend-mode:darken;fill:#070707;fill-opacity:1;stroke:#9fa18b;stroke-width:0;stroke-linecap:round;stroke-linejoin:round;stroke-miterlimit:4;stroke-dasharray:none;stroke-opacity:1"
       d="m 355.50805,30.719725 c -0.69272,0.08481 -1.3357,-0.03107 -1.94266,-0.350107 -0.49898,-0.262282 -1.13278,-0.784839 -1.40844,-1.161241 -0.27567,-0.376399 -0.55825,-1.150305 -0.62798,-1.719791 -0.0848,-0.692722 0.0311,-1.335701 0.35011,-1.94266 0.26228,-0.498979 0.78484,-1.132777 1.16124,-1.40844 0.3764,-0.275663 1.15031,-0.558252 1.71979,-0.627974 0.69272,-0.08481 1.3357,0.03107 1.94266,0.350106 0.49898,0.262281 1.13278,0.784839 1.40844,1.16124 0.27567,0.3764 0.55825,1.150306 0.62798,1.719791 0.0848,0.692723 -0.0311,1.335703 -0.35011,1.942663 -0.26228,0.498977 -0.78484,1.132773 -1.16124,1.408438 -0.3764,0.275664 -1.15031,0.558252 -1.71979,0.627975 z M 355.097,28.966702 c 0.36544,0 0.94,-0.258879 1.2768,-0.575287 0.3368,-0.31641 0.61236,-0.874281 0.61236,-1.239719 0,-0.365437 -0.25888,-0.939995 -0.57528,-1.276796 -0.31641,-0.336801 -0.87428,-0.612365 -1.23972,-0.612365 -0.36544,0 -0.94,0.258879 -1.2768,0.575287 -0.3368,0.316408 -0.61236,0.874281 -0.61236,1.239718 0,0.365437 0.25888,0.939995 0.57528,1.276797 0.31641,0.336801 0.87428,0.612365 1.23972,0.612365 z" />
    <path
       id="path614"
       style="mix-blend-mode:darken;fill:#070707;fill-opacity:1;stroke:#9fa18b;stroke-width:0;stroke-linecap:round;stroke-linejoin:round;stroke-miterlimit:4;stroke-dasharray:none;stroke-opacity:1"
       d="m 355.14833,43.498656 c -0.22609,-0.01106 -0.80485,-0.162798 -1.28614,-0.337172 -0.48129,-0.174374 -1.2718,-0.704945 -1.75668,-1.17905 -0.53151,-0.519686 -0.99784,-1.323551 -1.17427,-2.024237 -0.16947,-0.673018 -0.20056,-1.411192 -0.0739,-1.753695 0.18541,-0.501206 0.24452,-0.524423 0.38738,-0.152133 0.10451,0.272333 0.49861,0.454401 1.03679,0.478975 0.82312,0.03758 0.8296,0.04545 0.12487,0.151384 -0.52639,0.07913 -0.71627,0.241298 -0.65061,0.55567 0.0605,0.289468 0.30823,0.419844 0.71213,0.374711 0.50862,-0.05684 0.56354,-0.0019 0.30703,0.307174 -0.21323,0.256939 -0.22433,0.430807 -0.035,0.547854 0.15259,0.0943 0.3965,0.09788 0.54202,0.0079 0.14552,-0.08994 0.26458,-0.03743 0.26458,0.116676 0,0.154109 0.16986,0.280199 0.37748,0.280199 0.20761,0 0.43016,-0.208359 0.49456,-0.463021 0.0798,-0.315671 0.18072,-0.189372 0.31705,0.396875 0.10999,0.472943 0.28927,0.859896 0.39841,0.859896 0.10914,0 0.28843,-0.386953 0.39841,-0.859896 0.13634,-0.586247 0.23723,-0.712546 0.31706,-0.396875 0.0644,0.254662 0.29968,0.463021 0.52286,0.463021 0.26754,0 0.34901,-0.147963 0.23913,-0.434297 -0.13739,-0.358043 -0.0979,-0.377272 0.22469,-0.109514 0.21523,0.178631 0.5214,0.244403 0.68036,0.146158 0.19909,-0.123047 0.20443,-0.280548 0.0171,-0.506208 -0.20275,-0.244303 -0.12194,-0.322395 0.31788,-0.307174 0.35524,0.0123 0.58975,-0.136371 0.58975,-0.373867 0,-0.223977 -0.34284,-0.467587 -0.79375,-0.564007 -0.79375,-0.169732 -0.79375,-0.169732 0.10313,-0.201038 0.5075,-0.0177 1.03911,-0.225827 1.2245,-0.479367 0.29042,-0.397174 0.34906,-0.350491 0.51632,0.41102 0.14444,0.657622 0.0255,1.192686 -0.50732,2.281674 -0.57982,1.185106 -0.92379,1.536097 -2.06046,2.102522 -0.75044,0.373962 -1.54942,0.670872 -1.77551,0.659802 z m 0.06,-4.103677 c -0.32297,0.03599 -0.70992,-0.05728 -0.8599,-0.207259 -0.14997,-0.149976 -0.27268,-0.486997 -0.27268,-0.748935 0,-0.2643 -0.1924,-0.47625 -0.43233,-0.47625 -0.23778,0 -0.89262,-0.137909 -1.45521,-0.306464 -0.56258,-0.168556 -1.02288,-0.386837 -1.02288,-0.485069 0,-0.09823 0.42279,-0.601395 0.93953,-1.118137 0.54663,-0.546632 1.42998,-1.076846 2.11233,-1.267891 1.08362,-0.303398 1.27875,-0.276434 2.5662,0.354584 0.76637,0.375624 1.5913,1.010759 1.83318,1.411417 0.43979,0.728464 0.43979,0.728464 -0.52916,1.06603 -0.53293,0.185658 -1.17731,0.339355 -1.43198,0.341545 -0.31643,0.0027 -0.46302,0.21339 -0.46302,0.665443 0,0.363803 -0.0893,0.671381 -0.19843,0.683507 -0.10914,0.01212 -0.46269,0.05149 -0.78565,0.08748 z" />
    <path
       id="path610"
       style="mix-blend-mode:darken;fill:#070707;fill-opacity:1;stroke:#9fa18b;stroke-width:0;stroke-linecap:round;stroke-linejoin:round;stroke-miterlimit:4;stroke-dasharray:none;stroke-opacity:1"
       d="m 355.53101,63.50853 c -0.58209,0.0338 -1.53459,-0.148034 -2.11667,-0.404077 -0.58208,-0.256042 -1.28271,-0.716743 -1.55694,-1.023781 -0.37898,-0.424297 -0.46041,-0.793657 -0.33941,-1.539317 0.11501,-0.708747 0.54195,-1.368631 1.53811,-2.377318 1.37891,-1.396251 1.37891,-1.396251 2.51631,-0.347835 0.62557,0.576628 1.29605,1.048417 1.48996,1.048417 0.1939,0 0.73234,0.371316 1.19653,0.825146 0.46419,0.453829 0.84398,1.056968 0.84398,1.34031 0,0.283342 -0.12865,0.755544 -0.28588,1.049338 -0.15723,0.293793 -0.72278,0.721706 -1.25677,0.950917 -0.53399,0.229209 -1.44714,0.4444 -2.02922,0.4782 z m -1.09236,-2.262661 c 0.76087,0 1.52627,-0.142875 1.7009,-0.3175 0.17462,-0.174625 0.3175,-0.450358 0.3175,-0.612738 0,-0.16238 -0.47657,-0.563081 -1.05903,-0.890444 -0.93104,-0.523275 -1.03862,-0.681046 -0.89017,-1.305492 0.16886,-0.710284 0.16886,-0.710284 -0.68438,0.08347 -0.46929,0.436562 -1.02033,1.113552 -1.22454,1.504418 -0.32435,0.620824 -0.31897,0.762984 0.0425,1.124479 0.26983,0.269833 0.89513,0.413811 1.7972,0.413811 z" />
    <path
       id="path550"
       style="mix-blend-mode:darken;fill:#070707;fill-opacity:1;stroke:#9fa18b;stroke-width:0;stroke-linecap:round;stroke-linejoin:round;stroke-miterlimit:4;stroke-dasharray:none;stroke-opacity:1"
       d="m 242.24776,110.45841 c -0.46103,0 -0.56435,-0.10917 -0.43821,-0.46302 0.0908,-0.25466 0.25369,-0.58209 0.36201,-0.72761 0.10832,-0.14552 0.56349,-0.98856 1.01148,-1.87342 0.44799,-0.88487 1.00671,-2.49221 1.2416,-3.57188 0.23489,-1.07967 0.58084,-2.6774 0.76878,-3.55053 0.18794,-0.87312 0.29,-2.039389 0.22679,-2.591701 -0.0683,-0.596866 0.0515,-1.337789 0.29533,-1.826588 0.22565,-0.452311 0.41026,-1.273223 0.41026,-1.82425 0,-0.596818 0.32091,-1.620377 0.79375,-2.531739 0.43656,-0.841434 0.79375,-1.728489 0.79375,-1.971231 0,-0.242742 0.30849,-1.615244 0.68553,-3.050003 0.58378,-2.221471 0.66434,-2.971903 0.54284,-5.05605 -0.13314,-2.283685 -0.10882,-2.447396 0.3635,-2.447396 0.2784,0 0.61718,0.208359 0.75283,0.463021 0.13566,0.254661 0.33249,1.268349 0.4374,2.252636 0.10492,0.98429 0.29228,1.852361 0.41636,1.929051 0.12409,0.07669 0.29933,-0.192858 0.38942,-0.598991 0.0901,-0.406135 0.28142,-1.125378 0.42515,-1.598321 0.14374,-0.472943 0.36737,-0.859896 0.49696,-0.859896 0.12959,0 0.40407,0.321519 0.60997,0.714486 0.3438,0.656177 0.31211,0.836986 -0.38842,2.215542 -0.41954,0.825582 -0.76279,1.62016 -0.76279,1.765731 0,0.145571 0.31014,0.819565 0.68919,1.497767 0.54918,0.982585 0.65307,1.432803 0.51138,2.216139 -0.0978,0.540674 -0.47862,1.443821 -0.84626,2.006992 -0.48014,0.735512 -0.6212,1.219962 -0.50074,1.719792 0.0922,0.382714 0.18276,0.842782 0.20117,1.022371 0.0236,0.230357 0.13063,0.24588 0.3634,0.0527 0.23838,-0.197836 0.48355,-0.108955 0.88343,0.320273 0.30442,0.326755 0.49895,0.779291 0.43228,1.005634 -0.0667,0.226343 -0.18748,0.76872 -0.26846,1.205283 -0.14725,0.79375 -0.14725,0.79375 0.18587,-0.04716 0.18321,-0.462499 0.4242,-0.930611 0.53552,-1.040249 0.11132,-0.109638 0.58757,0.168553 1.05833,0.618199 0.69909,0.667734 1.21955,0.874665 2.84031,1.129297 1.09141,0.171466 2.10344,0.33849 2.24896,0.371163 0.14552,0.03267 0.53247,0.149453 0.85989,0.259511 0.32742,0.110057 0.59532,0.357937 0.59532,0.550842 0,0.192905 -0.15134,0.408813 -0.33631,0.47979 -0.18497,0.07098 -1.01541,-0.08106 -1.84541,-0.337868 -0.83,-0.256807 -1.95858,-0.541467 -2.50796,-0.632576 -0.96548,-0.160118 -0.97676,-0.153252 -0.33741,0.205396 0.3638,0.204078 1.16748,0.521779 1.78594,0.706003 0.61846,0.184222 1.12448,0.426437 1.12448,0.53825 0,0.11182 -0.20836,0.25037 -0.46302,0.30789 -0.25466,0.0575 -0.91445,-0.11728 -1.46619,-0.388447 -0.55174,-0.271172 -1.25249,-0.742363 -1.55721,-1.047092 -0.53411,-0.534103 -0.58184,-0.537641 -1.32564,-0.09826 -0.42438,0.250682 -0.95637,0.384879 -1.18222,0.298214 -0.23139,-0.08879 -0.34452,-0.329835 -0.25919,-0.552217 0.0833,-0.217053 0.0444,-0.394644 -0.0864,-0.394644 -0.13084,0 -0.27593,0.249089 -0.32243,0.553532 -0.0512,0.335338 -0.43451,0.699958 -0.97235,0.925002 -0.78016,0.326432 -0.86939,0.323477 -0.73591,-0.02437 0.0836,-0.217709 0.0631,-0.395837 -0.0455,-0.395837 -0.10857,0 -0.44853,0.175895 -0.75546,0.390874 -0.49502,0.346728 -0.543,0.578385 -0.42479,2.051075 0.0929,1.15722 0.01,1.95574 -0.27434,2.63575 -0.25182,0.60267 -0.81987,1.23579 -1.48617,1.65641 -1.07856,0.68087 -1.07856,0.68087 -1.07856,2.51463 0,1.59502 -0.0765,1.88738 -0.58804,2.24564 -0.32342,0.22653 -0.72939,0.41188 -0.90217,0.41188 -0.23941,0 -0.23338,-0.34742 0.0253,-1.46033 0.1867,-0.80318 0.24347,-1.51966 0.12614,-1.59217 -0.11733,-0.0725 -0.42556,0.22745 -0.68496,0.66658 -0.25939,0.43913 -0.56502,0.79842 -0.67917,0.79842 -0.11414,0 -0.20753,0.17395 -0.20753,0.38656 0,0.21262 -0.26058,0.62933 -0.57906,0.92604 -0.31848,0.29672 -0.85053,0.53948 -1.18232,0.53948 z m 4.30538,-5.5643 c 0.16228,0.004 0.61534,-0.24389 1.0068,-0.55182 0.51112,-0.40204 0.68899,-0.75631 0.631,-1.25677 -0.0469,-0.40491 -0.24596,-0.6969 -0.47504,-0.6969 -0.23078,0 -0.45106,0.32779 -0.5312,0.79052 -0.0874,0.50433 -0.32143,0.82605 -0.64657,0.88866 -0.28031,0.054 -0.66634,-0.11615 -0.85786,-0.37807 -0.32775,-0.44822 -0.34822,-0.44291 -0.34822,0.0904 0,0.31162 0.20836,0.68795 0.46302,0.83627 0.25466,0.14833 0.59579,0.27331 0.75807,0.27773 z m 4.4287,-16.131534 c 0.22935,0 0.54567,-0.240401 0.70292,-0.534223 0.21133,-0.394888 0.19651,-0.715629 -0.0568,-1.229765 -0.18851,-0.382548 -0.59353,-0.859692 -0.90005,-1.060315 -0.49183,-0.321913 -0.63172,-0.299606 -1.19063,0.18987 -0.63331,0.554644 -0.63331,0.554644 0.0303,0.414922 0.36502,-0.07685 0.82016,-0.043 1.01143,0.07521 0.24308,0.150236 0.29329,0.505322 0.16679,1.179618 -0.14602,0.778359 -0.10043,0.964682 0.23604,0.964683 z m -2.44994,19.314814 c -0.2744,0 -0.58191,-0.37111 -0.79438,-0.95869 -0.28691,-0.79345 -0.2862,-0.99606 0.004,-1.17549 0.1987,-0.1228 0.50429,-0.0894 0.70484,0.077 0.19472,0.16161 0.46618,0.50336 0.60323,0.75945 0.13706,0.25609 0.17735,0.65283 0.0895,0.88166 -0.0878,0.22882 -0.36112,0.41604 -0.60736,0.41604 z m 1.60366,-1.5875 c -0.12297,0 -0.43106,-0.22927 -0.68465,-0.50948 -0.25359,-0.28022 -0.42087,-0.70019 -0.37174,-0.93328 0.0816,-0.3872 0.14074,-0.38761 0.68465,-0.005 0.32743,0.23051 0.59532,0.65048 0.59532,0.93327 0,0.2828 -0.10061,0.51417 -0.22358,0.51417 z m 0.65285,-1.85208 c -0.20047,0 -0.51153,-0.17719 -0.69126,-0.39375 -0.26411,-0.31823 -0.24738,-0.42421 0.0872,-0.55261 0.2277,-0.0874 0.53876,-0.0818 0.69125,0.0125 0.15249,0.0942 0.27726,0.34292 0.27726,0.55261 0,0.20969 -0.16402,0.38126 -0.36448,0.38126 z m 9.3218,-8.01722 c -0.0516,0.120245 -0.98675,0.08368 -2.07816,-0.08127 -1.0914,-0.164944 -1.92484,-0.324162 -1.85208,-0.353817 0.0728,-0.02966 0.42995,-0.101137 0.79375,-0.158848 0.3638,-0.05771 1.02169,-0.156104 1.46197,-0.218651 0.44028,-0.06255 1.01826,0.0455 1.28441,0.240114 0.26614,0.194609 0.44169,0.452221 0.39011,0.572469 z m -16.16722,0.07537 c -0.25466,0.0024 -0.46302,-0.18773 -0.46302,-0.422207 0,-0.346831 -0.17907,-0.392726 -0.96041,-0.246147 -0.91953,0.172503 -0.95496,0.151651 -0.83233,-0.489841 0.088,-0.460145 -0.0463,-0.82866 -0.42865,-1.176473 -0.3062,-0.278551 -1.03299,-0.654566 -1.61507,-0.835591 -0.58208,-0.181025 -1.17144,-0.433814 -1.30969,-0.561756 -0.14756,-0.136564 0.23483,-0.232013 0.92605,-0.231145 0.64756,7.94e-4 1.62177,0.124889 2.1649,0.275728 0.79529,0.220869 1.03009,0.439465 1.20627,1.123003 0.15574,0.604274 0.39616,0.874471 0.83465,0.938045 0.33874,0.04911 0.71683,-0.06995 0.8402,-0.264583 0.12337,-0.194633 0.22613,-0.442428 0.22836,-0.550656 0.002,-0.108228 -0.47238,-0.541904 -1.05469,-0.963724 -0.80451,-0.582784 -0.95979,-0.804915 -0.64667,-0.925073 0.22664,-0.08697 0.81255,0.0092 1.30203,0.213722 0.48948,0.204515 1.03275,0.63866 1.20728,0.964767 0.26606,0.497146 0.21608,0.799258 -0.30944,1.870368 -0.39051,0.795944 -0.80127,1.278999 -1.08977,1.281563 z m 10.1047,-7.933423 c -0.28246,0 -0.51355,-0.164709 -0.51355,-0.366017 0,-0.201308 0.238,-0.428257 0.5289,-0.504328 0.2909,-0.07607 0.59558,-0.03043 0.67707,0.101434 0.0815,0.13186 0.0746,0.358806 -0.0153,0.504327 -0.0899,0.145521 -0.39462,0.264584 -0.67708,0.264584 z m -0.26272,-1.5875 c -0.51855,0 -0.78527,-0.116491 -0.71937,-0.314193 0.0576,-0.172807 0.43216,-0.423333 0.83234,-0.556728 0.40018,-0.133393 0.7944,-0.175737 0.87604,-0.09409 0.0817,0.08164 0.0779,0.332169 -0.008,0.556726 -0.0948,0.247071 -0.48209,0.408287 -0.98079,0.408287 z m -1.02873,-1.322917 c -0.1231,0 -0.28711,-0.164923 -0.36446,-0.366498 -0.0773,-0.201573 0.18432,-0.677823 0.58148,-1.058334 0.39717,-0.380508 0.8517,-0.691835 1.01007,-0.691835 0.15837,0 0.35647,0.178594 0.44024,0.396875 0.0838,0.218281 0.0899,0.559343 0.0138,0.757912 -0.0762,0.19857 -0.43525,0.496226 -0.7979,0.661459 -0.36264,0.165232 -0.76007,0.300421 -0.88318,0.300421 z" />
    <path
       id="path546"
       style="mix-blend-mode:darken;fill:#070707;fill-opacity:1;stroke:#9fa18b;stroke-width:0;stroke-linecap:round;stroke-linejoin:round;stroke-miterlimit:4;stroke-dasharray:none;stroke-opacity:1"
       d="m 346.46903,110.66678 c -2.20497,0.0685 -2.44657,0.0292 -2.43899,-0.39688 0.005,-0.26012 0.15346,-0.65154 0.33073,-0.86982 0.20715,-0.25507 0.90789,-0.42668 1.96113,-0.48027 0.90135,-0.0459 1.89084,0.0515 2.19887,0.21634 0.36212,0.19379 0.531,0.5038 0.47785,0.87714 -0.0768,0.53945 -0.2431,0.58241 -2.52959,0.65349 z m 8.91418,-5.3e-4 c -1.24219,0.0416 -2.34217,-0.008 -2.44442,-0.11025 -0.10225,-0.10213 -0.18591,-0.33603 -0.18591,-0.51967 0,-0.18363 0.1871,-0.52097 0.41577,-0.74965 0.2891,-0.2891 0.91858,-0.41577 2.0661,-0.41577 0.94685,0 1.85332,0.14843 2.12654,0.34822 0.26192,0.19152 0.43216,0.57847 0.37832,0.85989 -0.0863,0.45085 -0.36639,0.52068 -2.3564,0.58735 z m -14.11384,-1.18042 c -0.20405,0.0783 -0.45252,0.0613 -0.55216,-0.0378 -0.0996,-0.0991 -0.73634,-0.18021 -1.41492,-0.18021 -1.19408,0 -1.23378,-0.0255 -1.23378,-0.79259 0,-0.68177 0.13879,-0.83807 0.99259,-1.11779 0.54593,-0.17885 1.3496,-0.25378 1.78594,-0.16651 0.71296,0.14259 0.79334,0.25967 0.79334,1.15562 0,0.61121 -0.14355,1.05204 -0.37101,1.13932 z m 5.33195,-0.93333 c -1.78594,0.0782 -1.78594,0.0782 -1.78594,-0.87044 0,-0.52177 -0.23937,-1.39041 -0.53194,-1.93032 -0.29256,-0.5399 -0.67261,-1.18002 -0.84455,-1.42249 -0.2452,-0.34576 -0.23117,-0.53897 0.065,-0.89588 0.20771,-0.25027 0.85565,-0.76626 1.43987,-1.14666 0.58421,-0.38038 1.47578,-0.75114 1.98125,-0.8239 0.73416,-0.10568 1.03932,-0.3452 1.517,-1.19063 0.50648,-0.89642 0.59863,-1.453006 0.60232,-3.63802 0.002,-1.418828 0.0936,-2.584035 0.20279,-2.589345 0.10914,-0.0053 1.44859,-0.06286 2.97656,-0.127891 1.92127,-0.08177 2.98214,-0.0154 3.43958,0.215196 0.36381,0.183385 0.91045,0.806484 1.21477,1.384662 0.51106,0.970971 0.52305,1.115671 0.15701,1.895242 -0.38778,0.825863 -0.3714,0.882222 0.76184,2.621576 0.63697,0.97767 1.19635,2.06299 1.24307,2.41182 0.0485,0.36249 -0.28541,1.27981 -0.7794,2.14092 -0.47538,0.82867 -0.92683,2.04245 -1.0032,2.6973 -0.13888,1.19062 -0.13888,1.19062 -1.85764,1.19062 -1.71876,0 -1.71876,0 -1.89121,-1.40452 -0.0948,-0.77248 -0.38166,-1.63569 -0.63735,-1.91823 -0.34605,-0.38238 -0.81464,-0.5137 -1.83298,-0.5137 -1.07688,0 -1.48696,0.12671 -1.92658,0.59531 -0.37893,0.40391 -0.58516,1.02064 -0.64143,1.91823 -0.0829,1.32291 -0.0829,1.32291 -1.86887,1.40115 z m -5.09323,-1.86681 c -0.29104,0.0349 -0.73753,-0.0603 -0.99219,-0.21159 -0.25466,-0.1513 -0.46302,-0.44777 -0.46302,-0.65882 0,-0.27238 0.31242,-0.38372 1.07674,-0.38372 0.96527,0 1.06798,0.0616 0.99218,0.59531 -0.0514,0.36221 -0.29174,0.62018 -0.61371,0.65882 z m -0.47684,-1.88269 c -0.50452,0.0397 -0.99059,-10e-4 -1.08014,-0.0906 -0.0896,-0.0896 -0.16281,-0.30866 -0.16281,-0.48691 0,-0.17826 0.32742,-0.41688 0.7276,-0.53027 0.40018,-0.11339 0.95551,-0.2156 1.23406,-0.22712 0.27854,-0.0115 0.5445,0.0981 0.59101,0.24363 0.0465,0.14552 -0.0228,0.43433 -0.15392,0.64179 -0.13116,0.20747 -0.65127,0.40972 -1.1558,0.44945 z m -0.87487,-1.63106 c -0.34654,0.0962 -0.69249,-0.007 -0.913,-0.27291 -0.30533,-0.3679 -0.26426,-0.49652 0.29338,-0.9187 0.35662,-0.27 0.93477,-0.56333 1.28477,-0.65185 0.39125,-0.0989 0.7209,-0.0276 0.85585,0.18513 0.12071,0.19034 0.22131,0.47478 0.22353,0.63209 0.002,0.15731 -0.26384,0.41772 -0.59126,0.57868 -0.32742,0.16097 -0.84639,0.36237 -1.15327,0.44756 z m -0.5777,-1.86985 c -0.69563,0.35972 -0.7541,0.34281 -1.14016,-0.32986 -0.27898,-0.48611 -0.65068,-0.72509 -1.18222,-0.7601 -0.42641,-0.0281 -1.51943,-0.12484 -2.42894,-0.21501 -0.90951,-0.0902 -1.65365,-0.27725 -1.65365,-0.41576 0,-0.13851 0.14883,-0.30627 0.33073,-0.3728 0.1819,-0.0665 1.14706,-0.234211 2.1448,-0.372604 0.99773,-0.138392 1.87233,-0.309895 1.94355,-0.381116 0.0712,-0.07122 0.17948,-0.882081 0.24057,-1.80191 0.0611,-0.91983 0.39308,-2.505853 0.73773,-3.524499 0.49083,-1.450655 0.73367,-1.843217 1.12037,-1.811174 0.27154,0.02249 0.79137,0.11134 1.15517,0.197422 0.3638,0.08608 1.05438,0.23087 1.53461,0.321752 0.60914,0.115276 0.8485,0.293176 0.79165,0.588372 -0.0504,0.26166 -0.50753,0.507392 -1.19791,0.643919 -0.66681,0.131869 -1.42638,0.530736 -1.88606,0.990412 -0.47335,0.473359 -0.81151,1.128433 -0.87844,1.701705 -0.0599,0.512641 1.9e-4,1.142098 0.13343,1.398792 0.13323,0.256693 0.55561,0.942967 0.93862,1.52505 0.38302,0.582079 0.78569,1.098019 0.89483,1.146529 0.10914,0.0485 0.19844,0.24413 0.19844,0.43471 0,0.19059 -0.20836,0.42647 -0.46302,0.5242 -0.25467,0.0977 -0.49404,0.16758 -0.53194,0.15524 -0.0379,-0.0123 -0.39888,0.14818 -0.80216,0.35673 z m 6.53468,-0.95592 c -0.21739,0.0419 -0.6579,-0.20346 -0.97891,-0.54516 -0.32101,-0.3417 -0.58365,-0.755617 -0.58365,-0.91982 0,-0.164203 0.25101,-0.723993 0.55781,-1.243976 0.43096,-0.73043 0.51575,-1.169625 0.37286,-1.931337 -0.11631,-0.619977 -0.5077,-1.281271 -1.05451,-1.781677 -0.86954,-0.795769 -0.86954,-0.795769 -0.47126,-2.184832 0.22541,-0.786156 0.55212,-1.389062 0.7527,-1.389062 0.19493,0 0.83189,0.632407 1.41547,1.40535 0.58358,0.772943 1.24228,1.919007 1.46378,2.546808 0.2215,0.6278 0.40273,1.58914 0.40273,2.136309 0,0.575583 -0.31224,1.592548 -0.74088,2.413066 -0.40749,0.780011 -0.91875,1.452461 -1.13614,1.494331 z m 13.32519,-0.80487 c -0.48551,0.32236 -0.59958,0.28604 -1.10013,-0.35031 -0.30715,-0.39048 -0.55846,-0.812969 -0.55846,-0.938866 0,-0.125896 0.59148,-0.228901 1.3144,-0.228901 1.2411,0 1.30244,0.0323 1.10012,0.57921 -0.11784,0.318566 -0.45801,0.741057 -0.75593,0.938867 z m -17.00022,-1.518077 c -0.79124,0 -1.14882,-0.158528 -1.5725,-0.69714 -0.3016,-0.383427 -0.54837,-0.851927 -0.54837,-1.041109 0,-0.189183 0.11337,-0.642136 0.25192,-1.006565 0.13856,-0.364427 0.50273,-0.796825 0.80927,-0.96088 0.30654,-0.164057 0.90878,-0.221099 1.3383,-0.126759 0.42953,0.09434 0.95833,0.348895 1.17511,0.565679 0.21679,0.216786 0.39415,0.775878 0.39415,1.242425 0,0.466551 -0.18534,1.112891 -0.41187,1.436309 -0.305,0.435444 -0.67764,0.58804 -1.43601,0.58804 z m 6.80882,-4.762862 c -0.38494,-8.5e-5 -0.99267,-0.461545 -1.71979,-1.305875 -0.61846,-0.718161 -1.12448,-1.445384 -1.12448,-1.616054 0,-0.204705 0.24761,-0.250537 0.7276,-0.134673 0.40019,0.0966 1.17409,0.292687 1.7198,0.435756 0.95939,0.251526 0.99218,0.299132 0.99218,1.440547 0,1.047798 -0.0669,1.180413 -0.59531,1.180299 z m 2.4474,1.29e-4 c -1.05834,0 -1.05834,0 -1.05834,-1.079357 0,-1.079177 1.5e-4,-1.079325 0.8599,-0.894926 0.47294,0.101436 0.94919,0.236984 1.05833,0.30122 0.10914,0.06424 0.19844,0.466955 0.19844,0.894929 0,0.731435 -0.0635,0.778134 -1.05833,0.778134 z m 2.76233,0 c -0.32398,0 -0.66132,-0.18833 -0.74965,-0.418515 -0.0883,-0.230182 -0.1606,-0.527838 -0.1606,-0.661458 0,-0.133617 0.21967,-0.242943 0.48816,-0.242943 0.26849,0 0.68547,0.218022 0.92662,0.484492 0.24115,0.266469 0.35882,0.564126 0.26149,0.661458 -0.0973,0.09733 -0.44204,0.176966 -0.76602,0.176966 z" />
    <path
       id="path542"
       style="mix-blend-mode:darken;fill:#070707;fill-opacity:1;stroke:#9fa18b;stroke-width:0;stroke-linecap:round;stroke-linejoin:round;stroke-miterlimit:4;stroke-dasharray:none;stroke-opacity:1"
       d="m 280.0468,110.72298 c -0.10539,0 -0.35893,-0.26789 -0.5634,-0.59531 -0.20448,-0.32742 -0.38195,-0.65231 -0.39438,-0.72197 -0.0124,-0.0697 0.30233,-0.15164 0.69946,-0.18216 0.39712,-0.0305 0.78958,0.0538 0.87213,0.18734 0.0825,0.13356 0.0213,0.48342 -0.13605,0.77747 -0.15737,0.29405 -0.37236,0.53463 -0.47776,0.53463 z m 5.3908,0 c -0.15992,0 -0.4425,-0.24296 -0.62795,-0.53993 -0.18546,-0.29696 -0.2666,-0.65415 -0.18033,-0.79375 0.0863,-0.1396 0.42766,-0.25382 0.75862,-0.25382 0.33096,0 0.67316,0.0714 0.76044,0.15869 0.0873,0.0873 0.0285,0.44447 -0.13067,0.79375 -0.15914,0.34929 -0.42019,0.63506 -0.58011,0.63506 z m -0.0239,-2.11442 c -0.24341,0.20201 -0.36828,0.0611 -0.49137,-0.55433 -0.0908,-0.45385 -0.0958,-0.93722 -0.0111,-1.07417 0.0846,-0.13695 0.041,-0.39261 -0.097,-0.56814 -0.13798,-0.17552 -0.33373,-0.66503 -0.43499,-1.08779 -0.12331,-0.51478 -0.0698,-0.84408 0.16195,-0.99703 0.27291,-0.18009 0.24819,-0.28606 -0.11695,-0.50126 -0.25466,-0.15009 -0.46302,-0.49807 -0.46302,-0.7733 0,-0.27522 0.11907,-0.57399 0.26459,-0.66392 0.14552,-0.0899 0.26457,-0.35891 0.26457,-0.5977 0,-0.3377 -0.0706,-0.36362 -0.31749,-0.11668 -0.17462,0.17463 -0.47963,0.3175 -0.67778,0.3175 -0.26472,0 -0.32047,-0.25047 -0.21019,-0.94437 0.0825,-0.5194 0.35778,-1.22545 0.61163,-1.569 0.25385,-0.34355 0.68814,-0.686109 0.9651,-0.761251 0.27696,-0.07514 0.81933,0.02667 1.20526,0.226243 0.38594,0.199578 0.84395,0.675048 1.0178,1.056608 0.17385,0.38157 0.31609,0.99527 0.31609,1.36379 0,0.61777 -0.0671,0.65549 -0.8599,0.48365 -0.8385,-0.18173 -0.84837,-0.17351 -0.39687,0.33055 0.25466,0.2843 0.46302,0.77542 0.46302,1.09139 0,0.35352 -0.1651,0.57448 -0.42927,0.57448 -0.32623,0 -0.35948,0.0841 -0.13852,0.35033 0.15991,0.19268 0.22995,0.63917 0.15564,0.99219 -0.0743,0.35302 -0.20705,1.20649 -0.29497,1.89661 -0.0879,0.69012 -0.30671,1.37664 -0.4862,1.5256 z m -5.43395,-0.002 c -0.12137,0 -0.27092,-0.0893 -0.33234,-0.19844 -0.0614,-0.10914 -0.0833,-0.4961 -0.0487,-0.8599 0.0346,-0.3638 -0.024,-0.78052 -0.13031,-0.92604 -0.10632,-0.14552 -0.25775,-0.52809 -0.3365,-0.85017 -0.0833,-0.34064 0.0147,-0.71665 0.23436,-0.89892 0.32196,-0.26721 0.29845,-0.38704 -0.15961,-0.81379 -0.29543,-0.27524 -0.53716,-0.77894 -0.53716,-1.11932 0,-0.34237 0.26598,-0.80442 0.59531,-1.03415 0.59532,-0.41527 0.59532,-0.41527 0.0156,-0.42915 -0.31883,-0.008 -0.65328,0.10519 -0.74322,0.25071 -0.0899,0.14552 -0.26994,0.26458 -0.40002,0.26458 -0.13008,0 -0.16438,-0.62508 -0.0762,-1.38906 0.0881,-0.76398 0.2899,-1.4734 0.44834,-1.576483 0.20661,-0.134416 0.20412,-0.271388 -0.009,-0.484327 -0.21949,-0.219491 -0.39099,-0.08438 -0.65769,0.51815 -0.19843,0.44828 -0.45078,0.81506 -0.56078,0.81506 -0.11,0 -0.20284,-0.38696 -0.20631,-0.8599 -0.003,-0.472943 -0.11359,-1.322319 -0.2447,-1.8875 -0.13234,-0.570458 -0.1384,-1.21783 -0.0136,-1.455209 0.12362,-0.235183 0.42039,-0.956162 0.65948,-1.602176 0.35791,-0.967089 0.3764,-1.283507 0.10464,-1.791282 -0.25357,-0.473798 -0.25771,-0.689049 -0.0179,-0.928868 0.17168,-0.171683 0.31215,-0.62947 0.31215,-1.017304 0,-0.387834 0.24677,-1.018866 0.54837,-1.402292 0.35095,-0.446156 0.80603,-0.69714 1.26405,-0.69714 0.39362,0 0.97827,0.183928 1.29922,0.408731 0.32095,0.224803 0.68172,0.79035 0.80172,1.256771 0.181,0.703572 0.36206,0.862163 1.06282,0.93095 0.75516,0.07412 0.84466,0.0098 0.84466,-0.607341 0,-0.380077 0.29182,-0.982075 0.64943,-1.339678 0.35718,-0.357188 0.95791,-0.649433 1.33494,-0.649433 0.37703,0 0.97775,0.292245 1.33494,0.649433 0.35719,0.357188 0.64943,0.942578 0.64943,1.300866 0,0.358291 0.12397,0.692762 0.27549,0.743268 0.17358,0.05786 0.11991,0.403693 -0.14508,0.934879 -0.27226,0.545764 -0.55601,0.791075 -0.80465,0.695661 -0.21123,-0.08106 -0.38407,-0.253712 -0.38407,-0.383665 0,-0.12995 -0.65484,-0.236275 -1.45521,-0.236275 -0.80036,0 -1.4552,0.103724 -1.4552,0.230497 0,0.126772 0.61587,0.312195 1.3686,0.412049 1.10758,0.146925 1.55109,0.369596 2.32546,1.167532 0.52628,0.54229 1.11189,1.398667 1.30136,1.903055 0.18947,0.504391 0.45014,1.184966 0.57928,1.512388 0.20723,0.525457 0.42173,0.595312 1.82795,0.595312 0.87625,0 1.59318,0.03717 1.59318,0.08259 0,0.04543 -0.22722,0.552887 -0.50494,1.127689 -0.27771,0.574802 -0.74406,1.261492 -1.03632,1.525982 -0.44825,0.40566 -0.62798,0.43001 -1.14871,0.15562 -0.33953,-0.1789 -0.67686,-0.41254 -0.74962,-0.51921 -0.0728,-0.10667 -0.94585,-0.62463 -1.9402,-1.151018 -0.99435,-0.526391 -2.0076,-0.957074 -2.25166,-0.957074 -0.24406,0 -0.76452,0.297434 -1.15657,0.660963 -0.39205,0.36353 -0.78623,1.048139 -0.87596,1.521349 -0.0897,0.47321 -0.33129,1.08877 -0.5368,1.36791 -0.32289,0.43853 -0.46881,0.46416 -1.07376,0.18853 -0.38505,-0.17545 -0.76335,-0.25573 -0.84067,-0.17841 -0.0773,0.0773 0.0728,0.37639 0.33367,0.66461 0.41055,0.45365 0.42971,0.63156 0.14267,1.32454 -0.18237,0.44028 -0.46001,0.8005 -0.61698,0.8005 -0.18631,0 -0.17517,0.11024 0.0321,0.3175 0.17462,0.17463 0.3175,0.64385 0.3175,1.04272 0,0.39887 -0.12391,0.8018 -0.27535,0.89539 -0.15144,0.0936 -0.20827,0.38151 -0.12629,0.6398 0.082,0.2583 0.0741,0.66499 -0.0175,0.90378 -0.0916,0.23878 -0.2659,0.43415 -0.38726,0.43415 z m 2.12936,-7.14375 c 0.14552,0 0.26458,-0.42375 0.26458,-0.94166 0,-0.5604 -0.10713,-0.87545 -0.26458,-0.77814 -0.14553,0.0899 -0.26459,0.51369 -0.26459,0.94166 0,0.42797 0.11906,0.77814 0.26459,0.77814 z m -7.7622,1.02263 c -0.26979,0.22391 -0.48979,0.14898 -0.92604,-0.31539 -0.3147,-0.33498 -0.57218,-0.70732 -0.57218,-0.82742 0,-0.1201 0.19794,-0.3631 0.43986,-0.54 0.26056,-0.19052 0.3718,-0.49902 0.27289,-0.75677 -0.0918,-0.23933 -0.40884,-0.43514 -0.70445,-0.43514 -0.29561,0 -0.53747,0.11906 -0.53747,0.26459 0,0.14552 -0.17553,0.26458 -0.39008,0.26458 -0.21454,0 -0.56698,-0.34209 -0.7832,-0.76021 -0.21621,-0.418107 -0.31849,-0.834826 -0.22728,-0.926039 0.0912,-0.09121 0.38412,-0.165835 0.65091,-0.165835 0.29071,0 0.48507,-0.19082 0.48507,-0.47625 0,-0.261938 -0.1373,-0.613553 -0.30512,-0.781368 -0.20127,-0.201273 -0.46196,-0.221175 -0.76596,-0.05848 -0.31123,0.166566 -0.5406,0.14107 -0.70646,-0.07853 -0.13509,-0.178845 -0.23689,-0.622826 -0.22622,-0.986628 0.0161,-0.54836 0.13603,-0.649653 0.70159,-0.592415 0.6214,0.06289 0.6716,-0.0032 0.56323,-0.74158 -0.10918,-0.74391 -0.1832,-0.79652 -0.89928,-0.639241 -0.75352,0.165499 -0.7774,0.141002 -0.69552,-0.713626 0.076,-0.793483 0.16003,-0.876213 0.81238,-0.799931 0.59334,0.06938 0.72761,-0.01929 0.72761,-0.480417 0,-0.311021 0.12325,-0.795793 0.27389,-1.077267 0.15064,-0.281475 0.49338,-0.511773 0.76165,-0.511773 0.28864,0 0.6007,0.297032 0.76443,0.727604 0.15216,0.400182 0.3552,1.203854 0.45119,1.785937 0.096,0.582084 0.39505,1.417278 0.66458,1.855986 0.26954,0.438709 0.85485,1.067351 1.3007,1.396982 0.52392,0.387347 0.81064,0.83049 0.81064,1.252871 0,0.375838 -0.15347,0.653537 -0.36119,0.653537 -0.19866,0 -0.65577,-0.231715 -1.01581,-0.514919 -0.36004,-0.283205 -0.95578,-1.205939 -1.32388,-2.050521 -0.3681,-0.844582 -0.74358,-1.751507 -0.83441,-2.015392 -0.0908,-0.263885 -0.26681,-0.416955 -0.39107,-0.340154 -0.12427,0.0768 -0.13984,0.649893 -0.0346,1.27354 0.10523,0.623647 0.3821,1.647666 0.61528,2.275597 0.23318,0.62793 0.67367,1.461368 0.97887,1.852083 0.3052,0.390716 0.97973,0.969219 1.49896,1.285559 0.51922,0.31634 1.04414,0.73306 1.16649,0.92604 0.12234,0.19298 0.22427,0.51016 0.2265,0.70486 0.003,0.26667 -0.25699,0.30988 -1.05428,0.17518 -0.83461,-0.14101 -1.05834,-0.0968 -1.05834,0.20893 0,0.21325 -0.15923,0.51989 -0.35386,0.68141 z m -1.99496,-12.929124 c -0.60745,0 -0.82863,-0.156864 -1.02591,-0.727605 -0.13832,-0.400182 -0.21867,-0.945261 -0.17855,-1.211286 0.0401,-0.266025 0.13157,-0.636458 0.20322,-0.823182 0.0717,-0.186725 0.37078,-0.402389 0.66472,-0.479258 0.29394,-0.07687 0.78027,0.03242 1.08073,0.242871 0.30045,0.210447 0.54628,0.665787 0.54628,1.011862 0,0.346078 -0.11612,0.934641 -0.25804,1.307915 -0.19586,0.515165 -0.44461,0.678683 -1.03245,0.678683 z m -2.25124,-0.264584 c -0.4543,0 -0.74279,-0.241099 -1.0289,-0.859896 -0.21868,-0.472942 -0.46765,-1.09802 -0.55328,-1.389062 -0.0856,-0.291042 -0.0535,-0.691896 0.0714,-0.890791 0.1835,-0.29219 0.40645,-0.302432 1.16119,-0.05335 0.51374,0.169553 1.00414,0.490847 1.08977,0.713994 0.0856,0.223144 0.15569,0.458457 0.15569,0.522917 0,0.06446 -0.32743,0.244729 -0.72761,0.400598 -0.7276,0.283395 -0.7276,0.283395 -0.13229,0.687181 0.32742,0.22208 0.59531,0.508325 0.59531,0.636095 0,0.127773 -0.28409,0.232312 -0.63131,0.232312 z m 4.53392,-0.0054 c -0.40019,0.003 -0.72761,-0.106931 -0.72761,-0.244202 0,-0.137269 0.26789,-0.437841 0.59531,-0.667938 0.59532,-0.418357 0.59532,-0.418357 0,-0.575027 -0.33403,-0.08791 -0.59531,-0.362141 -0.59531,-0.624832 0,-0.272357 0.37637,-0.646758 0.89988,-0.895184 0.49494,-0.234862 1.01798,-0.427021 1.16232,-0.427021 0.14434,0 0.33369,0.18569 0.42078,0.412647 0.0871,0.226954 -0.10853,0.998439 -0.43471,1.71441 -0.49954,1.096491 -0.7078,1.302615 -1.32066,1.307147 z" />
    <path
       id="path361"
       style="mix-blend-mode:darken;fill:#070707;fill-opacity:1;stroke:#9fa18b;stroke-width:0;stroke-linecap:round;stroke-linejoin:round;stroke-miterlimit:4;stroke-dasharray:none;stroke-opacity:1"
       d="m 317.29599,110.25938 c -0.10914,0.002 -0.19844,-0.23407 -0.19844,-0.52511 0,-0.29104 0.0893,-0.52735 0.19844,-0.52512 0.10914,0.002 0.37703,0.12129 0.59531,0.26459 0.35278,0.23158 0.35278,0.28948 0,0.52106 -0.21828,0.14329 -0.48617,0.26236 -0.59531,0.26458 z m -1.22438,-0.52511 c -0.32277,0 -0.56156,-0.16876 -0.56156,-0.39688 0,-0.21828 0.10449,-0.39687 0.23219,-0.39687 0.1277,0 0.3804,0.17859 0.56156,0.39687 0.27519,0.33158 0.23698,0.39688 -0.23219,0.39688 z m -1.04112,-0.85439 c -0.1728,0.0576 -0.31419,-0.0838 -0.31419,-0.31419 0,-0.23041 0.18852,-0.41892 0.41892,-0.41892 0.23041,0 0.3718,0.14138 0.3142,0.31419 -0.0576,0.17281 -0.24612,0.36132 -0.41893,0.41892 z m -0.43086,-1.26227 c -0.35522,0 -0.72433,-0.12698 -0.82025,-0.28218 -0.0959,-0.15521 -0.117,-0.33959 -0.0468,-0.40976 0.0702,-0.0702 0.43927,-0.0493 0.82024,0.0463 0.38098,0.0956 0.69268,0.28001 0.69268,0.40975 0,0.12975 -0.29063,0.2359 -0.64584,0.2359 z m -0.20534,-1.26353 c -0.47729,0.0853 -0.89965,-0.0399 -1.25677,-0.37263 -0.29584,-0.27562 -0.53789,-0.6605 -0.53789,-0.85529 0,-0.19479 -0.15059,-0.47915 -0.33465,-0.63191 -0.18406,-0.15276 -0.80914,-0.3269 -1.38906,-0.38698 -0.57993,-0.0601 -1.54761,-0.26234 -2.15041,-0.44947 -0.97241,-0.30185 -1.11356,-0.45006 -1.25177,-1.31438 -0.0857,-0.5358 -0.44626,-1.24707 -0.8013,-1.58062 -0.41602,-0.39083 -0.97082,-0.60644 -1.56046,-0.60644 -0.50321,0 -1.16747,0.13516 -1.47614,0.30035 -0.47082,0.25198 -0.56121,0.22703 -0.56121,-0.15493 0,-0.2504 -0.263,-0.73523 -0.58445,-1.0774 -0.58446,-0.622121 -0.58446,-0.622121 0.0538,-1.790548 0.63315,-1.159049 0.64753,-1.167159 1.79082,-1.010454 0.90746,0.124383 1.305,0.04526 1.86952,-0.372115 0.39434,-0.291547 0.9532,-0.60506 1.24192,-0.696696 0.31189,-0.09899 0.86485,0.04011 1.3625,0.342749 0.64858,0.394423 0.82039,0.665922 0.7614,1.203206 -0.0419,0.381617 -0.4117,1.044078 -0.8218,1.472134 -0.67336,0.702834 -0.69468,0.778284 -0.2199,0.778284 0.28916,0 0.66223,-0.13647 0.82903,-0.30328 0.22799,-0.227984 0.61883,-0.168786 1.57427,0.23845 0.69905,0.29796 1.72639,0.66543 2.28299,0.8166 0.58507,0.1589 1.2548,0.1811 1.58751,0.0526 0.44367,-0.17133 0.48458,-0.25505 0.17862,-0.36553 -0.21828,-0.0788 -0.635,-0.18125 -0.92604,-0.22764 -0.29695,-0.0473 -0.5637,-0.32475 -0.60785,-0.632161 -0.0433,-0.301302 0.14252,-0.820983 0.41286,-1.15485 0.30658,-0.378609 0.7782,-0.607029 1.25332,-0.607029 0.46933,0 0.94566,0.227095 1.24078,0.591551 0.26346,0.325355 0.47901,0.936513 0.47901,1.358129 0,0.64738 0.16457,0.83243 1.05833,1.19005 0.58209,0.2329 1.05834,0.51571 1.05834,0.62847 0,0.11276 -0.32463,0.26707 -0.72139,0.34291 -0.39676,0.0759 -1.73622,0.0875 -2.97656,0.0259 -1.24035,-0.0616 -2.55283,-0.16369 -2.91664,-0.2268 -0.3638,-0.0631 -1.3163,-0.30884 -2.11666,-0.54604 -0.80037,-0.2372 -1.7231,-0.49485 -2.05052,-0.57255 -0.41843,-0.0993 -0.59532,-0.0217 -0.59532,0.26129 0,0.22142 0.50602,0.6946 1.12448,1.05151 0.61847,0.3569 1.99133,0.90853 3.05082,1.22584 1.05949,0.31731 2.55206,0.5844 3.31683,0.59353 0.76477,0.009 2.31909,-0.12415 3.45404,-0.29619 1.13496,-0.17204 2.13123,-0.24512 2.21395,-0.1624 0.0827,0.0827 -0.54471,0.4578 -1.39429,0.83352 -0.84957,0.37572 -2.11803,0.75104 -2.81879,0.83403 -0.70077,0.083 -1.27412,0.25338 -1.27412,0.37864 0,0.12525 0.1786,0.22773 0.39688,0.22773 0.21828,0 0.39687,0.16014 0.39687,0.35586 0,0.19573 -0.20836,0.53737 -0.46302,0.75921 -0.25466,0.22183 -0.78652,0.46115 -1.18191,0.53181 z m -12.71089,-0.69664 c -0.0667,0.0667 -0.40606,-0.11363 -0.7541,-0.40077 -0.63279,-0.52207 -0.63279,-0.52207 -0.0334,-0.37156 0.32969,0.0828 0.66904,0.26313 0.7541,0.40077 0.0851,0.13764 0.10008,0.30484 0.0334,0.37156 z m 0.85377,-0.15651 c -0.15009,0 -0.3434,-0.18373 -0.42957,-0.40829 -0.0862,-0.22456 -0.076,-0.489 0.0227,-0.58765 0.0986,-0.0986 0.29014,-0.004 0.42551,0.20985 0.13538,0.21406 0.24797,0.47851 0.2502,0.58765 0.002,0.10914 -0.11874,0.19844 -0.26883,0.19844 z m -3.1097,-0.6967 c -0.13028,0.0805 -0.375,0.008 -0.54381,-0.16053 -0.16882,-0.16882 -0.30694,-0.45119 -0.30694,-0.62749 0,-0.1763 0.20836,-0.29007 0.46302,-0.25281 0.25466,0.0373 0.49938,0.25374 0.54382,0.48108 0.0444,0.22735 -0.0258,0.47924 -0.15609,0.55975 z m 4.31912,-0.005 c -0.25684,0.0986 -0.48924,0.003 -0.58236,-0.23982 -0.0852,-0.2221 -0.0779,-0.4809 0.0163,-0.5751 0.0942,-0.0942 0.35627,0.0137 0.58236,0.23981 0.37174,0.37174 0.37018,0.4268 -0.0163,0.57511 z m 1.39596,-0.65683 c -0.046,-0.0198 -0.35275,-0.0878 -0.68177,-0.15108 -0.32903,-0.0633 -0.75449,-0.43401 -0.94547,-0.82386 -0.19098,-0.38985 -0.29868,-0.94695 -0.23934,-1.23799 0.0593,-0.29104 0.2992,-0.67799 0.53301,-0.8599 0.23382,-0.1819 0.8547,-0.33072 1.37974,-0.33072 0.84908,0 0.99128,0.1014 1.28632,0.91732 0.24218,0.66973 0.25489,1.06087 0.0471,1.44915 -0.15654,0.29249 -0.51219,0.65361 -0.79033,0.80246 -0.27814,0.14886 -0.5433,0.25443 -0.58925,0.23462 z m 16.53896,-2.34522 c -0.20685,0 -0.34938,-0.29836 -0.34759,-0.72761 0.002,-0.59165 0.20924,-0.82646 1.10664,-1.25668 0.60697,-0.291 1.38189,-0.74799 1.72204,-1.015551 0.34014,-0.267557 0.78623,-0.81094 0.99131,-1.207516 0.20508,-0.396576 0.45895,-1.481968 0.56417,-2.411981 0.16268,-1.437868 0.22811,-1.593744 0.43721,-1.04153 0.13524,0.357175 0.20213,1.372132 0.14863,2.255465 -0.0684,1.129861 -0.26438,1.818518 -0.66091,2.322621 -0.31001,0.394112 -1.24927,1.248962 -2.08726,1.899672 -0.83799,0.65071 -1.68139,1.18311 -1.87424,1.18311 z m -21.44424,-3.175003 c -0.19641,0 -0.76328,-0.863203 -1.25971,-1.918229 -0.49644,-1.055026 -0.81948,-2.001319 -0.71787,-2.102874 0.1016,-0.101552 1.04433,-0.03967 2.09495,0.137507 1.05062,0.177183 2.05059,0.46252 2.22214,0.634079 0.23952,0.239517 0.20272,0.483994 -0.15852,1.053118 -0.25876,0.407654 -0.77498,1.068613 -1.14717,1.468795 -0.37219,0.400182 -0.83741,0.727604 -1.03382,0.727604 z m 15.5879,-2.120721 c -0.10056,-0.0021 -0.36142,-0.121291 -0.5797,-0.264584 -0.33646,-0.220874 -0.34055,-0.296809 -0.0269,-0.498858 0.23196,-0.149413 0.49305,-0.124735 0.69983,0.06615 0.18141,0.16746 0.27577,0.393768 0.20969,0.502909 -0.0661,0.109141 -0.2024,0.196615 -0.30295,0.194387 z m 1.07394,-0.97331 c -0.10914,0.06171 -0.34726,0.05881 -0.52916,-0.0064 -0.1819,-0.06525 -0.33073,-0.287309 -0.33073,-0.493461 0,-0.206156 0.23812,-0.374828 0.52917,-0.374828 0.29104,0 0.52916,0.171567 0.52916,0.38126 0,0.209693 -0.0893,0.431752 -0.19844,0.493464 z m -7.31216,-0.366445 c -0.16204,-0.01148 -0.44344,-0.08094 -0.62534,-0.154339 -0.1819,-0.0734 -0.33073,-0.302125 -0.33073,-0.508278 0,-0.206156 0.1786,-0.374828 0.39688,-0.374828 0.21828,0 0.48617,-0.0016 0.59531,-0.0034 0.10914,-0.0019 0.21195,0.236262 0.22846,0.529166 0.0165,0.292905 -0.10255,0.523153 -0.26458,0.511665 z m 9.82571,0.01683 c -0.10914,0.0022 -0.19844,-0.234063 -0.19844,-0.525105 0,-0.291042 0.17157,-0.529167 0.38126,-0.529167 0.20969,0 0.46307,0.132374 0.56306,0.294164 0.1,0.161793 0.0177,0.398092 -0.18282,0.525116 -0.20055,0.127024 -0.45392,0.232775 -0.56306,0.235003 z m -1.65365,-0.525105 c -0.21828,0 -0.39687,-0.119062 -0.39687,-0.264583 0,-0.145521 0.17859,-0.264584 0.39687,-0.264584 0.21828,0 0.39688,0.119063 0.39688,0.264584 0,0.145521 -0.1786,0.264583 -0.39688,0.264583 z m -8.58334,-1.058333 c -0.28246,0 -0.59537,-0.132374 -0.69536,-0.294164 -0.1,-0.161793 -0.0217,-0.393105 0.17395,-0.514032 0.20267,-0.12526 0.50188,-0.09859 0.69535,0.06198 0.18679,0.155014 0.33961,0.386329 0.33961,0.51403 0,0.127704 -0.2311,0.232188 -0.51355,0.232188 z m 16.47031,-1.062382 c -0.46435,0.0021 -0.91839,-0.115853 -1.00896,-0.262401 -0.0906,-0.14655 -0.008,-0.319487 0.18283,-0.384305 0.19112,-0.06482 0.52609,-0.146851 0.74437,-0.182295 0.21828,-0.03544 0.6805,0.03145 1.02715,0.148646 0.48818,0.165049 0.54783,0.265303 0.26458,0.444696 -0.20113,0.127383 -0.74562,0.233431 -1.20997,0.235659 z m -17.50016,-0.260533 c -0.12127,0 -0.29987,-0.07937 -0.39688,-0.17639 -0.097,-0.09701 -0.17639,-0.27187 -0.17639,-0.388569 0,-0.1167 0.17859,-0.143651 0.39688,-0.05989 0.21828,0.08377 0.39687,0.25862 0.39687,0.388573 0,0.12995 -0.0992,0.236275 -0.22048,0.236276 z m -1.31406,-0.694187 c -0.1164,0.07194 -0.35553,-0.09963 -0.53141,-0.38126 -0.27637,-0.442528 -0.24763,-0.512053 0.21163,-0.512053 0.29227,0 0.5314,0.171566 0.5314,0.381259 0,0.209693 -0.0952,0.440119 -0.21162,0.512054 z m 17.67413,-1.025187 c -0.333,0.298755 -0.47894,0.295876 -0.90673,-0.01789 -0.28042,-0.205669 -0.45901,-0.418579 -0.39688,-0.473131 0.0621,-0.05455 0.38087,-0.238567 0.70829,-0.408919 0.32742,-0.170352 0.59532,-0.488325 0.59532,-0.706607 0,-0.310409 0.11151,-0.337193 0.51184,-0.122944 0.33996,0.181941 0.73979,0.187265 1.19062,0.01585 0.53389,-0.202983 0.67879,-0.176739 0.67879,0.122946 0,0.209558 0.20835,0.488181 0.46302,0.619157 0.25466,0.130977 0.61184,0.184775 0.79375,0.119552 0.1819,-0.06522 0.33073,0.01294 0.33073,0.173718 0,0.160766 -0.29037,0.424603 -0.64527,0.586306 -0.52364,0.238588 -0.73029,0.208976 -1.09637,-0.157102 -0.31082,-0.310822 -0.66554,-0.397602 -1.14067,-0.279061 -0.37926,0.09462 -0.86816,0.332272 -1.08644,0.528108 z" />
    <image
       sodipodi:absref="P:\www\static\botw-stats-theme\squared.png"
       xlink:href="../../squared.png"
       y="111.37067"
       x="-186.22888"
       id="image72"
       preserveAspectRatio="none"
       height="110.86042"
       width="180.44583" />
    <path
       id="path1465"
       style="mix-blend-mode:darken;fill:#070707;fill-opacity:1;stroke:#9fa18b;stroke-width:0;stroke-linecap:round;stroke-linejoin:round;stroke-miterlimit:4;stroke-dasharray:none;stroke-opacity:1"
       d="m 355.23751,54.898865 -0.2701,-0.003 -2.36901,-2.38454 -2.36901,-2.38454 2.36349,-2.3745 2.3635,-2.37449 h 0.27561 0.27562 l 2.37022,2.38125 2.37021,2.38125 -2.37021,2.38125 -2.37022,2.38125 -0.2701,-0.003 z m 0.12678,-1.58403 h 0.82569 l -0.0821,-0.99219 -0.0821,-0.99219 h -0.66146 -0.66146 l -0.0821,0.99219 -0.0821,0.99219 z m -2.38125,-2.11667 h 0.18256 l 0.42532,-0.46997 0.42532,-0.46997 0.34445,-1.05138 0.34444,-1.05139 0.46187,0.0331 0.46187,0.0331 0.23514,0.0331 0.23513,0.0331 0.16579,0.88373 0.16579,0.88373 0.66394,0.62374 0.66394,0.62374 0.56589,-0.56588 0.56588,-0.56588 -1.75481,-1.80149 -1.75481,-1.80148 -1.77981,1.77403 -1.77981,1.77403 0.48967,0.54107 0.48967,0.54108 z" />
    <path
       id="path480"
       style="mix-blend-mode:darken;fill:#070707;fill-opacity:1;stroke:#9fa18b;stroke-width:0;stroke-linecap:round;stroke-linejoin:round;stroke-miterlimit:4;stroke-dasharray:none;stroke-opacity:1"
       d="m 355.23241,75.534125 h -0.26458 l -1.12448,-1.07537 -1.12448,-1.07538 v -1.94458 -1.94459 l 1.12448,-1.07538 1.12448,-1.07537 h 0.26458 0.26458 l 1.12448,1.07537 1.12448,1.07538 v 1.94459 1.94458 l -1.12448,1.07538 -1.12448,1.07537 z m -0.0424,-1.05997 0.2222,0.007 0.76999,-0.72674 0.76999,-0.72675 v -1.58922 -1.58921 l -0.76999,-0.72675 -0.76999,-0.72675 h -0.17982 -0.17981 l -0.76999,0.72674 -0.76999,0.72675 v 1.56631 1.56631 l 0.72761,0.7423 0.7276,0.74231 0.2222,0.007 z m -0.004,-1.05099 h -0.26889 l -0.43788,-0.48385 -0.43788,-0.48386 v -1.06263 -1.06264 l 0.48385,-0.43789 0.48386,-0.43788 h 0.26888 0.26889 l 0.43788,0.48386 0.43789,0.48385 v 1.06264 1.06264 l -0.48386,0.43788 -0.48385,0.43788 z" />
  </g>
</svg>
