<?xml version="1.0" encoding="UTF-8" standalone="no"?>
<svg
   xmlns:dc="http://purl.org/dc/elements/1.1/"
   xmlns:cc="http://creativecommons.org/ns#"
   xmlns:rdf="http://www.w3.org/1999/02/22-rdf-syntax-ns#"
   xmlns:svg="http://www.w3.org/2000/svg"
   xmlns="http://www.w3.org/2000/svg"
   xmlns:sodipodi="http://sodipodi.sourceforge.net/DTD/sodipodi-0.dtd"
   xmlns:inkscape="http://www.inkscape.org/namespaces/inkscape"
   width="9.8193712mm"
   height="9.9458065mm"
   viewBox="0 0 9.8193708 9.9458066"
   version="1.1"
   id="svg46"
   inkscape:version="1.0.2-2 (e86c870879, 2021-01-15)"
   sodipodi:docname="spirit_orb.svg">
  <defs
     id="defs40" />
  <sodipodi:namedview
     id="base"
     pagecolor="#ffffff"
     bordercolor="#666666"
     borderopacity="1.0"
     inkscape:pageopacity="0.0"
     inkscape:pageshadow="2"
     inkscape:zoom="11.2"
     inkscape:cx="14.726016"
     inkscape:cy="23.945419"
     inkscape:document-units="mm"
     inkscape:current-layer="layer5"
     inkscape:document-rotation="0"
     showgrid="false"
     inkscape:window-width="1280"
     inkscape:window-height="961"
     inkscape:window-x="-8"
     inkscape:window-y="46"
     inkscape:window-maximized="1" />
  <metadata
     id="metadata43">
    <rdf:RDF>
      <cc:Work
         rdf:about="">
        <dc:format>image/svg+xml</dc:format>
        <dc:type
           rdf:resource="http://purl.org/dc/dcmitype/StillImage" />
        <dc:title />
      </cc:Work>
    </rdf:RDF>
  </metadata>
  <g
     inkscape:groupmode="layer"
     id="layer5"
     inkscape:label="Layer 3"
     transform="translate(-350.24819,-34.069819)">
    <path
       id="path614-2"
       style="display:inline;mix-blend-mode:normal;fill:#9fa18b;fill-opacity:1;stroke:#9fa18b;stroke-width:0;stroke-linecap:round;stroke-linejoin:round;stroke-miterlimit:4;stroke-dasharray:none;stroke-opacity:1"
       d="m 355.11719,34.070312 c -1.84575,0.168868 -3.5323,1.373933 -4.45703,2.945313 0.15402,0.577545 -0.50684,0.98704 -0.40027,1.60389 -0.16918,2.783876 2.33153,5.264687 5.0448,5.39611 1.5851,-0.44582 3.34324,-1.187009 4.03255,-2.808885 0.633,-1.105466 1.07802,-2.535654 0.36588,-3.710646 -0.47974,-0.176991 -0.21351,-0.80839 -0.58974,-1.143054 -0.83664,-1.169055 -2.22161,-1.872514 -3.57627,-2.25929 -0.13864,-0.01907 -0.28002,-0.02593 -0.41992,-0.02344 z m -1.81641,4.388672 c 0.48944,-0.06716 0.1934,0.668696 0.51563,0.900391 0.57331,0.21797 0.32795,0.967227 -0.0775,0.656229 -0.47133,-0.01286 -0.34122,-0.870356 -0.62469,-0.948197 0.37408,-0.02573 -0.38818,-0.869456 0.18658,-0.608423 z m 3.46484,0.548828 c 0.7154,0.194198 0.36144,0.169809 0.1543,0.72461 -0.35957,-0.318551 -1.2187,0.457052 -0.48633,-0.09766 0.37049,-0.27894 0.13518,-0.952308 0.39814,-1.164126 0.0105,0.141603 -0.0473,0.366425 -0.0661,0.537172 z m -1.50976,0.994141 c -0.28741,0.654687 -0.29682,-0.528665 0,0 z" />
    <ellipse
       style="fill:#9fa18b;fill-opacity:1;stroke:#9fa18b;stroke-width:0;stroke-linecap:round;stroke-linejoin:round;stroke-miterlimit:4;stroke-dasharray:none;stroke-opacity:1"
       id="path1679"
       cx="355.25586"
       cy="40.001953"
       rx="3.8575199"
       ry="3.6489129" />
  </g>
  <g
     inkscape:label="Layer 1"
     inkscape:groupmode="layer"
     id="layer1"
     style="display:inline"
     transform="translate(-350.24819,-34.069819)"
     sodipodi:insensitive="true">
    <path
       id="path614"
       style="mix-blend-mode:normal;fill:#070707;fill-opacity:1;stroke:#9fa18b;stroke-width:0;stroke-linecap:round;stroke-linejoin:round;stroke-miterlimit:4;stroke-dasharray:none;stroke-opacity:1"
       d="m 355.14833,43.498656 c -0.22609,-0.01106 -0.80485,-0.162798 -1.28614,-0.337172 -0.48129,-0.174374 -1.2718,-0.704945 -1.75668,-1.17905 -0.53151,-0.519686 -0.99784,-1.323551 -1.17427,-2.024237 -0.16947,-0.673018 -0.20056,-1.411192 -0.0739,-1.753695 0.18541,-0.501206 0.24452,-0.524423 0.38738,-0.152133 0.10451,0.272333 0.49861,0.454401 1.03679,0.478975 0.82312,0.03758 0.8296,0.04545 0.12487,0.151384 -0.52639,0.07913 -0.71627,0.241298 -0.65061,0.55567 0.0605,0.289468 0.30823,0.419844 0.71213,0.374711 0.50862,-0.05684 0.56354,-0.0019 0.30703,0.307174 -0.21323,0.256939 -0.22433,0.430807 -0.035,0.547854 0.15259,0.0943 0.3965,0.09788 0.54202,0.0079 0.14552,-0.08994 0.26458,-0.03743 0.26458,0.116676 0,0.154109 0.16986,0.280199 0.37748,0.280199 0.20761,0 0.43016,-0.208359 0.49456,-0.463021 0.0798,-0.315671 0.18072,-0.189372 0.31705,0.396875 0.10999,0.472943 0.28927,0.859896 0.39841,0.859896 0.10914,0 0.28843,-0.386953 0.39841,-0.859896 0.13634,-0.586247 0.23723,-0.712546 0.31706,-0.396875 0.0644,0.254662 0.29968,0.463021 0.52286,0.463021 0.26754,0 0.34901,-0.147963 0.23913,-0.434297 -0.13739,-0.358043 -0.0979,-0.377272 0.22469,-0.109514 0.21523,0.178631 0.5214,0.244403 0.68036,0.146158 0.19909,-0.123047 0.20443,-0.280548 0.0171,-0.506208 -0.20275,-0.244303 -0.12194,-0.322395 0.31788,-0.307174 0.35524,0.0123 0.58975,-0.136371 0.58975,-0.373867 0,-0.223977 -0.34284,-0.467587 -0.79375,-0.564007 -0.79375,-0.169732 -0.79375,-0.169732 0.10313,-0.201038 0.5075,-0.0177 1.03911,-0.225827 1.2245,-0.479367 0.29042,-0.397174 0.34906,-0.350491 0.51632,0.41102 0.14444,0.657622 0.0255,1.192686 -0.50732,2.281674 -0.57982,1.185106 -0.92379,1.536097 -2.06046,2.102522 -0.75044,0.373962 -1.54942,0.670872 -1.77551,0.659802 z m 0.06,-4.103677 c -0.32297,0.03599 -0.70992,-0.05728 -0.8599,-0.207259 -0.14997,-0.149976 -0.27268,-0.486997 -0.27268,-0.748935 0,-0.2643 -0.1924,-0.47625 -0.43233,-0.47625 -0.23778,0 -0.89262,-0.137909 -1.45521,-0.306464 -0.56258,-0.168556 -1.02288,-0.386837 -1.02288,-0.485069 0,-0.09823 0.42279,-0.601395 0.93953,-1.118137 0.54663,-0.546632 1.42998,-1.076846 2.11233,-1.267891 1.08362,-0.303398 1.27875,-0.276434 2.5662,0.354584 0.76637,0.375624 1.5913,1.010759 1.83318,1.411417 0.43979,0.728464 0.43979,0.728464 -0.52916,1.06603 -0.53293,0.185658 -1.17731,0.339355 -1.43198,0.341545 -0.31643,0.0027 -0.46302,0.21339 -0.46302,0.665443 0,0.363803 -0.0893,0.671381 -0.19843,0.683507 -0.10914,0.01212 -0.46269,0.05149 -0.78565,0.08748 z" />
  </g>
</svg>
