<?xml version="1.0" encoding="UTF-8" standalone="no"?>
<svg
   xmlns:dc="http://purl.org/dc/elements/1.1/"
   xmlns:cc="http://creativecommons.org/ns#"
   xmlns:rdf="http://www.w3.org/1999/02/22-rdf-syntax-ns#"
   xmlns:svg="http://www.w3.org/2000/svg"
   xmlns="http://www.w3.org/2000/svg"
   xmlns:sodipodi="http://sodipodi.sourceforge.net/DTD/sodipodi-0.dtd"
   xmlns:inkscape="http://www.inkscape.org/namespaces/inkscape"
   width="24.188082mm"
   height="32.545891mm"
   viewBox="0 0 24.188081 32.545891"
   version="1.1"
   id="svg46"
   inkscape:version="1.0.2-2 (e86c870879, 2021-01-15)"
   sodipodi:docname="vah_medoh.svg">
  <defs
     id="defs40" />
  <sodipodi:namedview
     id="base"
     pagecolor="#ffffff"
     bordercolor="#666666"
     borderopacity="1.0"
     inkscape:pageopacity="0.0"
     inkscape:pageshadow="2"
     inkscape:zoom="3.959798"
     inkscape:cx="36.028152"
     inkscape:cy="76.634388"
     inkscape:document-units="mm"
     inkscape:current-layer="layer5"
     inkscape:document-rotation="0"
     showgrid="false"
     inkscape:window-width="1280"
     inkscape:window-height="961"
     inkscape:window-x="-8"
     inkscape:window-y="46"
     inkscape:window-maximized="1" />
  <metadata
     id="metadata43">
    <rdf:RDF>
      <cc:Work
         rdf:about="">
        <dc:format>image/svg+xml</dc:format>
        <dc:type
           rdf:resource="http://purl.org/dc/dcmitype/StillImage" />
        <dc:title />
      </cc:Work>
    </rdf:RDF>
  </metadata>
  <g
     inkscape:groupmode="layer"
     id="layer5"
     inkscape:label="Layer 3"
     transform="translate(-237.80433,-78.442867)">
    <path
       id="path550-3"
       style="display:inline;mix-blend-mode:darken;fill:#9fa18b;fill-opacity:1;stroke:#9fa18b;stroke-width:0;stroke-linecap:round;stroke-linejoin:round;stroke-miterlimit:4;stroke-dasharray:none;stroke-opacity:1"
       d="m 249.10938,78.457031 c -0.98166,0.177365 -0.75407,1.413183 -0.73903,2.141971 0.15406,1.834715 0.1447,3.702357 -0.41419,5.475243 -0.36956,1.265294 -0.58954,2.579056 -0.90788,3.852373 -0.42143,1.058835 -1.0741,2.173293 -1.3432,3.204241 -0.72246,-0.882892 -1.97841,-1.535043 -3.125,-1.230468 -0.59561,0.08299 -0.14453,1.13614 -0.72656,0.685547 -1.21002,-0.303873 -2.5577,-0.59001 -3.77149,-0.19336 -0.64036,0.439371 -0.0522,1.221094 0.54492,1.324219 0.86496,0.401249 2.07329,0.516755 2.54493,1.443359 -0.0364,0.525909 -0.22414,1.333451 0.50976,1.466797 0.43348,0.183896 1.15878,-0.384223 1.37084,0.06397 0.38016,0.793773 1.51874,0.598794 1.88697,-0.106939 -0.13002,1.127299 0.0621,2.279556 -0.23183,3.396617 -0.60109,2.815829 -1.05746,5.738139 -2.55738,8.251399 -0.31264,0.75597 -1.19136,1.52553 -0.79672,2.39691 0.78013,0.79017 2.08382,0.13526 2.68554,-0.58594 0.43242,-0.37145 0.34547,-1.02094 0.8418,-1.30274 0.0356,0.256 -0.25147,0.9686 -0.12662,1.41246 0.21165,0.86618 1.278,0.53643 1.77625,0.12928 0.93929,-0.45345 0.91087,-1.70017 0.92654,-2.49486 0.29183,0.78431 1.36617,1.12425 1.93945,0.42773 0.35586,-0.35757 0.37231,-0.91914 0.23829,-1.37695 0.63338,0.52422 1.38194,-0.229 1.25,-0.91797 0.0361,-0.44379 -0.61408,-0.90947 0.13086,-0.78519 1.15411,-0.3217 0.62894,-2.18022 -0.49415,-2.03317 -0.71966,0.27683 -0.14834,-0.53982 -0.22346,-0.93764 0.14096,-0.96546 -0.20356,-1.96691 0.0223,-2.908061 0.29341,-0.166736 0.76301,0.509134 1.22577,0.09009 0.50007,-0.181414 1.00493,-0.416506 1.35431,-0.832272 0.74402,0.532027 1.64658,-0.04553 2.33203,-0.408203 1.03155,0.942636 2.34516,1.890378 3.80301,1.813724 0.41587,-0.08899 0.95282,-0.438687 0.80637,-0.932865 0.72202,0.216185 1.83195,0.39421 2.1046,-0.545798 0.27542,-0.880091 -0.74654,-1.382142 -1.45226,-1.522561 0.47364,-0.678973 -0.43604,-1.449385 -1.08178,-1.561802 -1.11606,-0.240404 -2.2527,0.142022 -3.35572,0.313755 -0.15076,0.642199 -0.76535,-0.338908 -1.08643,-0.497202 -0.27465,-0.400198 -0.93464,-0.35457 -1.11995,-0.682593 -0.29631,-0.639143 -0.87664,-1.429189 -1.67057,-1.326065 -0.3038,-0.698988 -0.0812,-1.433869 0.36632,-2.010476 0.3789,-0.640005 0.69024,-1.331361 0.85047,-2.059836 0.79124,0.5725 2.24542,-0.125132 1.88086,-1.181641 -0.29185,-0.440949 -0.48361,-0.482707 -0.0488,-0.886718 0.34839,-0.567396 0.0171,-1.530486 -0.75196,-1.378907 0.97106,-0.604622 0.5833,-2.562755 -0.66406,-2.416015 -0.31651,-0.03179 -1.12775,0.887416 -0.80355,0.310186 0.45404,-0.784646 0.84957,-1.804447 0.2292,-2.620864 -0.23356,-0.580487 -1.03137,-1.262861 -1.55846,-0.597525 -0.34888,0.443403 -0.47646,1.005673 -0.62696,1.537109 -0.20358,-1.004106 -0.0981,-2.203771 -0.80211,-3.01898 -0.30848,-0.27175 -0.72445,-0.450513 -1.14124,-0.383364 z m 3.66015,7.91211 c -9.2e-4,0.0063 -0.009,-0.0044 0,0 z m -1.46875,1.310547 c -0.0219,0.26576 -0.0344,0.140256 0,0 z m 2.07031,-0.0039 c -0.006,0.02615 -0.0188,-0.01337 0,0 z m -10.21289,6.035157 c 0.19092,0.25087 0.87312,0.441828 0.70703,0.787109 -0.61131,0.287321 -0.71162,-0.502436 -0.85546,-0.900391 l 0.0795,0.06067 z m 5.39453,11.587895 c 0.19745,0.37882 -0.42838,0.0444 0,0 z" />
  </g>
  <g
     inkscape:label="Layer 1"
     inkscape:groupmode="layer"
     id="layer1"
     style="display:inline"
     transform="translate(-237.80433,-78.442867)"
     sodipodi:insensitive="true">
    <path
       id="path550"
       style="mix-blend-mode:darken;fill:#070707;fill-opacity:1;stroke:#9fa18b;stroke-width:0;stroke-linecap:round;stroke-linejoin:round;stroke-miterlimit:4;stroke-dasharray:none;stroke-opacity:1"
       d="m 242.24776,110.45841 c -0.46103,0 -0.56435,-0.10917 -0.43821,-0.46302 0.0908,-0.25466 0.25369,-0.58209 0.36201,-0.72761 0.10832,-0.14552 0.56349,-0.98856 1.01148,-1.87342 0.44799,-0.88487 1.00671,-2.49221 1.2416,-3.57188 0.23489,-1.07967 0.58084,-2.6774 0.76878,-3.55053 0.18794,-0.87312 0.29,-2.039389 0.22679,-2.591701 -0.0683,-0.596866 0.0515,-1.337789 0.29533,-1.826588 0.22565,-0.452311 0.41026,-1.273223 0.41026,-1.82425 0,-0.596818 0.32091,-1.620377 0.79375,-2.531739 0.43656,-0.841434 0.79375,-1.728489 0.79375,-1.971231 0,-0.242742 0.30849,-1.615244 0.68553,-3.050003 0.58378,-2.221471 0.66434,-2.971903 0.54284,-5.05605 -0.13314,-2.283685 -0.10882,-2.447396 0.3635,-2.447396 0.2784,0 0.61718,0.208359 0.75283,0.463021 0.13566,0.254661 0.33249,1.268349 0.4374,2.252636 0.10492,0.98429 0.29228,1.852361 0.41636,1.929051 0.12409,0.07669 0.29933,-0.192858 0.38942,-0.598991 0.0901,-0.406135 0.28142,-1.125378 0.42515,-1.598321 0.14374,-0.472943 0.36737,-0.859896 0.49696,-0.859896 0.12959,0 0.40407,0.321519 0.60997,0.714486 0.3438,0.656177 0.31211,0.836986 -0.38842,2.215542 -0.41954,0.825582 -0.76279,1.62016 -0.76279,1.765731 0,0.145571 0.31014,0.819565 0.68919,1.497767 0.54918,0.982585 0.65307,1.432803 0.51138,2.216139 -0.0978,0.540674 -0.47862,1.443821 -0.84626,2.006992 -0.48014,0.735512 -0.6212,1.219962 -0.50074,1.719792 0.0922,0.382714 0.18276,0.842782 0.20117,1.022371 0.0236,0.230357 0.13063,0.24588 0.3634,0.0527 0.23838,-0.197836 0.48355,-0.108955 0.88343,0.320273 0.30442,0.326755 0.49895,0.779291 0.43228,1.005634 -0.0667,0.226343 -0.18748,0.76872 -0.26846,1.205283 -0.14725,0.79375 -0.14725,0.79375 0.18587,-0.04716 0.18321,-0.462499 0.4242,-0.930611 0.53552,-1.040249 0.11132,-0.109638 0.58757,0.168553 1.05833,0.618199 0.69909,0.667734 1.21955,0.874665 2.84031,1.129297 1.09141,0.171466 2.10344,0.33849 2.24896,0.371163 0.14552,0.03267 0.53247,0.149453 0.85989,0.259511 0.32742,0.110057 0.59532,0.357937 0.59532,0.550842 0,0.192905 -0.15134,0.408813 -0.33631,0.47979 -0.18497,0.07098 -1.01541,-0.08106 -1.84541,-0.337868 -0.83,-0.256807 -1.95858,-0.541467 -2.50796,-0.632576 -0.96548,-0.160118 -0.97676,-0.153252 -0.33741,0.205396 0.3638,0.204078 1.16748,0.521779 1.78594,0.706003 0.61846,0.184222 1.12448,0.426437 1.12448,0.53825 0,0.11182 -0.20836,0.25037 -0.46302,0.30789 -0.25466,0.0575 -0.91445,-0.11728 -1.46619,-0.388447 -0.55174,-0.271172 -1.25249,-0.742363 -1.55721,-1.047092 -0.53411,-0.534103 -0.58184,-0.537641 -1.32564,-0.09826 -0.42438,0.250682 -0.95637,0.384879 -1.18222,0.298214 -0.23139,-0.08879 -0.34452,-0.329835 -0.25919,-0.552217 0.0833,-0.217053 0.0444,-0.394644 -0.0864,-0.394644 -0.13084,0 -0.27593,0.249089 -0.32243,0.553532 -0.0512,0.335338 -0.43451,0.699958 -0.97235,0.925002 -0.78016,0.326432 -0.86939,0.323477 -0.73591,-0.02437 0.0836,-0.217709 0.0631,-0.395837 -0.0455,-0.395837 -0.10857,0 -0.44853,0.175895 -0.75546,0.390874 -0.49502,0.346728 -0.543,0.578385 -0.42479,2.051075 0.0929,1.15722 0.01,1.95574 -0.27434,2.63575 -0.25182,0.60267 -0.81987,1.23579 -1.48617,1.65641 -1.07856,0.68087 -1.07856,0.68087 -1.07856,2.51463 0,1.59502 -0.0765,1.88738 -0.58804,2.24564 -0.32342,0.22653 -0.72939,0.41188 -0.90217,0.41188 -0.23941,0 -0.23338,-0.34742 0.0253,-1.46033 0.1867,-0.80318 0.24347,-1.51966 0.12614,-1.59217 -0.11733,-0.0725 -0.42556,0.22745 -0.68496,0.66658 -0.25939,0.43913 -0.56502,0.79842 -0.67917,0.79842 -0.11414,0 -0.20753,0.17395 -0.20753,0.38656 0,0.21262 -0.26058,0.62933 -0.57906,0.92604 -0.31848,0.29672 -0.85053,0.53948 -1.18232,0.53948 z m 4.30538,-5.5643 c 0.16228,0.004 0.61534,-0.24389 1.0068,-0.55182 0.51112,-0.40204 0.68899,-0.75631 0.631,-1.25677 -0.0469,-0.40491 -0.24596,-0.6969 -0.47504,-0.6969 -0.23078,0 -0.45106,0.32779 -0.5312,0.79052 -0.0874,0.50433 -0.32143,0.82605 -0.64657,0.88866 -0.28031,0.054 -0.66634,-0.11615 -0.85786,-0.37807 -0.32775,-0.44822 -0.34822,-0.44291 -0.34822,0.0904 0,0.31162 0.20836,0.68795 0.46302,0.83627 0.25466,0.14833 0.59579,0.27331 0.75807,0.27773 z m 4.4287,-16.131534 c 0.22935,0 0.54567,-0.240401 0.70292,-0.534223 0.21133,-0.394888 0.19651,-0.715629 -0.0568,-1.229765 -0.18851,-0.382548 -0.59353,-0.859692 -0.90005,-1.060315 -0.49183,-0.321913 -0.63172,-0.299606 -1.19063,0.18987 -0.63331,0.554644 -0.63331,0.554644 0.0303,0.414922 0.36502,-0.07685 0.82016,-0.043 1.01143,0.07521 0.24308,0.150236 0.29329,0.505322 0.16679,1.179618 -0.14602,0.778359 -0.10043,0.964682 0.23604,0.964683 z m -2.44994,19.314814 c -0.2744,0 -0.58191,-0.37111 -0.79438,-0.95869 -0.28691,-0.79345 -0.2862,-0.99606 0.004,-1.17549 0.1987,-0.1228 0.50429,-0.0894 0.70484,0.077 0.19472,0.16161 0.46618,0.50336 0.60323,0.75945 0.13706,0.25609 0.17735,0.65283 0.0895,0.88166 -0.0878,0.22882 -0.36112,0.41604 -0.60736,0.41604 z m 1.60366,-1.5875 c -0.12297,0 -0.43106,-0.22927 -0.68465,-0.50948 -0.25359,-0.28022 -0.42087,-0.70019 -0.37174,-0.93328 0.0816,-0.3872 0.14074,-0.38761 0.68465,-0.005 0.32743,0.23051 0.59532,0.65048 0.59532,0.93327 0,0.2828 -0.10061,0.51417 -0.22358,0.51417 z m 0.65285,-1.85208 c -0.20047,0 -0.51153,-0.17719 -0.69126,-0.39375 -0.26411,-0.31823 -0.24738,-0.42421 0.0872,-0.55261 0.2277,-0.0874 0.53876,-0.0818 0.69125,0.0125 0.15249,0.0942 0.27726,0.34292 0.27726,0.55261 0,0.20969 -0.16402,0.38126 -0.36448,0.38126 z m 9.3218,-8.01722 c -0.0516,0.120245 -0.98675,0.08368 -2.07816,-0.08127 -1.0914,-0.164944 -1.92484,-0.324162 -1.85208,-0.353817 0.0728,-0.02966 0.42995,-0.101137 0.79375,-0.158848 0.3638,-0.05771 1.02169,-0.156104 1.46197,-0.218651 0.44028,-0.06255 1.01826,0.0455 1.28441,0.240114 0.26614,0.194609 0.44169,0.452221 0.39011,0.572469 z m -16.16722,0.07537 c -0.25466,0.0024 -0.46302,-0.18773 -0.46302,-0.422207 0,-0.346831 -0.17907,-0.392726 -0.96041,-0.246147 -0.91953,0.172503 -0.95496,0.151651 -0.83233,-0.489841 0.088,-0.460145 -0.0463,-0.82866 -0.42865,-1.176473 -0.3062,-0.278551 -1.03299,-0.654566 -1.61507,-0.835591 -0.58208,-0.181025 -1.17144,-0.433814 -1.30969,-0.561756 -0.14756,-0.136564 0.23483,-0.232013 0.92605,-0.231145 0.64756,7.94e-4 1.62177,0.124889 2.1649,0.275728 0.79529,0.220869 1.03009,0.439465 1.20627,1.123003 0.15574,0.604274 0.39616,0.874471 0.83465,0.938045 0.33874,0.04911 0.71683,-0.06995 0.8402,-0.264583 0.12337,-0.194633 0.22613,-0.442428 0.22836,-0.550656 0.002,-0.108228 -0.47238,-0.541904 -1.05469,-0.963724 -0.80451,-0.582784 -0.95979,-0.804915 -0.64667,-0.925073 0.22664,-0.08697 0.81255,0.0092 1.30203,0.213722 0.48948,0.204515 1.03275,0.63866 1.20728,0.964767 0.26606,0.497146 0.21608,0.799258 -0.30944,1.870368 -0.39051,0.795944 -0.80127,1.278999 -1.08977,1.281563 z m 10.1047,-7.933423 c -0.28246,0 -0.51355,-0.164709 -0.51355,-0.366017 0,-0.201308 0.238,-0.428257 0.5289,-0.504328 0.2909,-0.07607 0.59558,-0.03043 0.67707,0.101434 0.0815,0.13186 0.0746,0.358806 -0.0153,0.504327 -0.0899,0.145521 -0.39462,0.264584 -0.67708,0.264584 z m -0.26272,-1.5875 c -0.51855,0 -0.78527,-0.116491 -0.71937,-0.314193 0.0576,-0.172807 0.43216,-0.423333 0.83234,-0.556728 0.40018,-0.133393 0.7944,-0.175737 0.87604,-0.09409 0.0817,0.08164 0.0779,0.332169 -0.008,0.556726 -0.0948,0.247071 -0.48209,0.408287 -0.98079,0.408287 z m -1.02873,-1.322917 c -0.1231,0 -0.28711,-0.164923 -0.36446,-0.366498 -0.0773,-0.201573 0.18432,-0.677823 0.58148,-1.058334 0.39717,-0.380508 0.8517,-0.691835 1.01007,-0.691835 0.15837,0 0.35647,0.178594 0.44024,0.396875 0.0838,0.218281 0.0899,0.559343 0.0138,0.757912 -0.0762,0.19857 -0.43525,0.496226 -0.7979,0.661459 -0.36264,0.165232 -0.76007,0.300421 -0.88318,0.300421 z" />
  </g>
</svg>
