<?xml version="1.0" encoding="UTF-8" standalone="no"?>
<svg
   xmlns:dc="http://purl.org/dc/elements/1.1/"
   xmlns:cc="http://creativecommons.org/ns#"
   xmlns:rdf="http://www.w3.org/1999/02/22-rdf-syntax-ns#"
   xmlns:svg="http://www.w3.org/2000/svg"
   xmlns="http://www.w3.org/2000/svg"
   xmlns:sodipodi="http://sodipodi.sourceforge.net/DTD/sodipodi-0.dtd"
   xmlns:inkscape="http://www.inkscape.org/namespaces/inkscape"
   width="28.133324mm"
   height="21.608309mm"
   viewBox="0 0 28.133323 21.608309"
   version="1.1"
   id="svg46"
   inkscape:version="1.0.2-2 (e86c870879, 2021-01-15)"
   sodipodi:docname="vah_ruta.svg">
  <defs
     id="defs40" />
  <sodipodi:namedview
     id="base"
     pagecolor="#ffffff"
     bordercolor="#666666"
     borderopacity="1.0"
     inkscape:pageopacity="0.0"
     inkscape:pageshadow="2"
     inkscape:zoom="5.6"
     inkscape:cx="52.05334"
     inkscape:cy="31.959331"
     inkscape:document-units="mm"
     inkscape:current-layer="layer5"
     inkscape:document-rotation="0"
     showgrid="false"
     inkscape:window-width="1280"
     inkscape:window-height="961"
     inkscape:window-x="-8"
     inkscape:window-y="46"
     inkscape:window-maximized="1" />
  <metadata
     id="metadata43">
    <rdf:RDF>
      <cc:Work
         rdf:about="">
        <dc:format>image/svg+xml</dc:format>
        <dc:type
           rdf:resource="http://purl.org/dc/dcmitype/StillImage" />
        <dc:title />
      </cc:Work>
    </rdf:RDF>
  </metadata>
  <g
     inkscape:groupmode="layer"
     id="layer5"
     inkscape:label="Layer 3"
     transform="translate(-332.68124,-89.611836)">
    <path
       id="path546-1"
       style="display:inline;mix-blend-mode:darken;fill:#9fa18b;fill-opacity:1;stroke:#9fa18b;stroke-width:0;stroke-linecap:round;stroke-linejoin:round;stroke-miterlimit:4;stroke-dasharray:none;stroke-opacity:1"
       d="m 346.64062,89.613281 c -0.59757,-0.02993 -0.98271,0.692767 -0.62695,1.173828 -0.42883,-0.490608 -1.1591,-1.353497 -1.82812,-0.724609 -0.42866,0.425678 -0.57375,1.161202 -0.79297,1.617188 -0.92492,-0.537236 -2.06331,-0.534978 -3.08399,-0.810547 -0.72055,-0.269405 -1.51613,0.08877 -1.7539,0.828125 -0.9051,1.993788 -1.20774,4.182058 -1.40039,6.341796 -1.32569,0.32533 -2.73731,0.307264 -4.02344,0.767579 -0.66687,0.303387 -0.58061,1.361009 0.18359,1.453129 1.38105,0.39352 2.848,0.28428 4.24414,0.55664 0.52375,0.2579 0.57031,1.03111 1.15821,1.19921 -0.49908,0.63029 0.12382,1.47956 0.7832,1.66016 -0.46324,0.44505 -0.18146,1.29484 0.27148,1.5625 -0.42142,0.39429 -0.23525,1.05701 0.13672,1.41406 -0.93191,0.12305 -2.32512,0.38741 -2.36132,1.57227 -0.12156,0.67953 0.1468,1.57271 0.97851,1.55078 0.82664,0.0261 1.67405,-0.004 2.44922,0.28711 1.08166,0.0524 1.26955,-1.23748 1.1875,-2.05664 0.0832,-0.49301 -0.5353,-0.92023 0.10937,-1.13672 0.47641,-0.47435 0.62319,-1.51926 -0.0918,-1.8457 0.42146,0.004 0.56772,-1.03921 0.73633,-0.52735 0.77097,1.12264 1.47228,2.38212 1.40234,3.78907 0.40778,0.54525 -0.35563,0.53693 -0.52539,1.01367 -0.4307,0.60594 -0.44616,1.77516 0.49414,1.86719 1.44934,0.10228 2.92511,0.0483 4.36719,-0.12891 1.19482,-0.19969 1.11371,-2.025 0.0645,-2.39258 0.0375,-0.27032 0.32334,-0.86959 0.26981,-1.31874 -0.0153,-0.92765 0.37218,-2.19774 1.51362,-2.14212 0.76355,-0.002 1.97154,-0.20335 2.19788,0.78145 0.3864,0.82297 0.16258,1.83604 0.68861,2.59347 -0.9941,0.28082 -1.64795,1.81694 -0.6582,2.48438 1.4154,0.31588 2.9055,0.12923 4.34375,0.0488 0.88173,0.0342 1.51016,-0.94925 1.06445,-1.71875 -0.0289,-0.42304 -0.8111,-0.60579 -0.66214,-0.85934 0.41171,-0.81353 0.27751,-1.80548 0.74755,-2.61513 0.43791,-1.23089 1.51255,-2.36145 1.29154,-3.74038 -0.26449,-0.73637 -0.66037,-1.41828 -1.07031,-2.08203 0.91083,0.5872 1.86671,-0.458037 2.22266,-1.238279 0.41127,-0.623481 -0.0986,-1.432945 -0.83985,-1.330079 -0.79685,0.0265 -1.77707,-0.156562 -2.42187,0.371094 0.44167,-0.719862 0.56698,-1.635045 0.0658,-2.362452 -0.4345,-0.821553 -1.01497,-1.731751 -1.96224,-1.99497 0.71652,-0.672156 -0.19581,-1.70697 -0.89112,-1.9682 -0.44696,-0.227665 -1.06724,-0.197931 -1.41943,0.184997 -0.1827,-0.905091 -1.30973,-0.84337 -2.01313,-1.048789 -0.45877,-0.325884 -0.9263,0.6573 -1.05024,0.03273 -0.71599,-0.738104 -1.88198,-0.676434 -2.80329,-1.014815 -0.22672,-0.04996 -0.45815,-0.105141 -0.69194,-0.09412 z m 0.75977,2.994141 c 0.42352,0.435027 0.8683,0.895369 1.45117,1.107422 -0.43008,0.731411 -0.25453,1.682965 -0.32999,2.508125 -0.0221,1.539445 0.14024,3.338424 -1.07235,4.505551 -0.76832,0.31821 -1.64733,0.40121 -2.36992,0.87011 -0.83346,0.45882 -1.80608,1.19272 -2.2668,1.86817 -0.0173,-0.48633 -1.17939,-0.37765 -0.67578,-0.69727 0.58065,-0.55219 0.1823,-1.59944 -0.45703,-1.91211 0.51213,-0.59096 0.0527,-1.329061 -0.44141,-1.738279 -0.53434,-0.80653 -1.21155,-1.586804 -1.49125,-2.516049 -0.14315,-0.787925 0.14274,-1.611544 0.71391,-2.165592 -0.60047,0.810921 -0.97714,2.041376 -0.24024,2.896484 0.51741,0.993715 1.67821,1.37962 2.73612,1.189084 1.62228,-0.154378 2.19608,-2.230736 1.65646,-3.554318 0.58041,0.808994 0.47926,1.903469 -0.11238,2.674418 -0.39971,0.628568 -0.72339,1.495984 -0.0942,2.10202 0.46396,0.659532 1.46522,1.562152 2.25542,0.870042 1.0521,-1.205341 1.84734,-2.784131 1.84238,-4.410505 -0.071,-1.393162 -0.58124,-2.72705 -1.35605,-3.878553 0.084,0.09375 0.16797,0.1875 0.25195,0.28125 z m 5.83984,0.484375 c 0.50163,0.463571 -0.43248,0.358002 0,0 z m -10.03125,0.111328 c -0.068,0.322928 0.92928,1.057036 0.28656,0.697982 -0.46525,-0.261621 -1.24234,-0.316489 -1.61077,-0.266341 0.45043,-0.08707 0.96956,-0.254283 1.32421,-0.431641 z m 7.03516,0.08594 c 0.30437,0.408617 -0.3734,0.129692 0,0 z" />
  </g>
  <g
     inkscape:label="Layer 1"
     inkscape:groupmode="layer"
     id="layer1"
     style="display:inline"
     transform="translate(-332.68124,-89.611836)"
     sodipodi:insensitive="true">
    <path
       id="path546"
       style="mix-blend-mode:darken;fill:#070707;fill-opacity:1;stroke:#9fa18b;stroke-width:0;stroke-linecap:round;stroke-linejoin:round;stroke-miterlimit:4;stroke-dasharray:none;stroke-opacity:1"
       d="m 346.46903,110.66678 c -2.20497,0.0685 -2.44657,0.0292 -2.43899,-0.39688 0.005,-0.26012 0.15346,-0.65154 0.33073,-0.86982 0.20715,-0.25507 0.90789,-0.42668 1.96113,-0.48027 0.90135,-0.0459 1.89084,0.0515 2.19887,0.21634 0.36212,0.19379 0.531,0.5038 0.47785,0.87714 -0.0768,0.53945 -0.2431,0.58241 -2.52959,0.65349 z m 8.91418,-5.3e-4 c -1.24219,0.0416 -2.34217,-0.008 -2.44442,-0.11025 -0.10225,-0.10213 -0.18591,-0.33603 -0.18591,-0.51967 0,-0.18363 0.1871,-0.52097 0.41577,-0.74965 0.2891,-0.2891 0.91858,-0.41577 2.0661,-0.41577 0.94685,0 1.85332,0.14843 2.12654,0.34822 0.26192,0.19152 0.43216,0.57847 0.37832,0.85989 -0.0863,0.45085 -0.36639,0.52068 -2.3564,0.58735 z m -14.11384,-1.18042 c -0.20405,0.0783 -0.45252,0.0613 -0.55216,-0.0378 -0.0996,-0.0991 -0.73634,-0.18021 -1.41492,-0.18021 -1.19408,0 -1.23378,-0.0255 -1.23378,-0.79259 0,-0.68177 0.13879,-0.83807 0.99259,-1.11779 0.54593,-0.17885 1.3496,-0.25378 1.78594,-0.16651 0.71296,0.14259 0.79334,0.25967 0.79334,1.15562 0,0.61121 -0.14355,1.05204 -0.37101,1.13932 z m 5.33195,-0.93333 c -1.78594,0.0782 -1.78594,0.0782 -1.78594,-0.87044 0,-0.52177 -0.23937,-1.39041 -0.53194,-1.93032 -0.29256,-0.5399 -0.67261,-1.18002 -0.84455,-1.42249 -0.2452,-0.34576 -0.23117,-0.53897 0.065,-0.89588 0.20771,-0.25027 0.85565,-0.76626 1.43987,-1.14666 0.58421,-0.38038 1.47578,-0.75114 1.98125,-0.8239 0.73416,-0.10568 1.03932,-0.3452 1.517,-1.19063 0.50648,-0.89642 0.59863,-1.453006 0.60232,-3.63802 0.002,-1.418828 0.0936,-2.584035 0.20279,-2.589345 0.10914,-0.0053 1.44859,-0.06286 2.97656,-0.127891 1.92127,-0.08177 2.98214,-0.0154 3.43958,0.215196 0.36381,0.183385 0.91045,0.806484 1.21477,1.384662 0.51106,0.970971 0.52305,1.115671 0.15701,1.895242 -0.38778,0.825863 -0.3714,0.882222 0.76184,2.621576 0.63697,0.97767 1.19635,2.06299 1.24307,2.41182 0.0485,0.36249 -0.28541,1.27981 -0.7794,2.14092 -0.47538,0.82867 -0.92683,2.04245 -1.0032,2.6973 -0.13888,1.19062 -0.13888,1.19062 -1.85764,1.19062 -1.71876,0 -1.71876,0 -1.89121,-1.40452 -0.0948,-0.77248 -0.38166,-1.63569 -0.63735,-1.91823 -0.34605,-0.38238 -0.81464,-0.5137 -1.83298,-0.5137 -1.07688,0 -1.48696,0.12671 -1.92658,0.59531 -0.37893,0.40391 -0.58516,1.02064 -0.64143,1.91823 -0.0829,1.32291 -0.0829,1.32291 -1.86887,1.40115 z m -5.09323,-1.86681 c -0.29104,0.0349 -0.73753,-0.0603 -0.99219,-0.21159 -0.25466,-0.1513 -0.46302,-0.44777 -0.46302,-0.65882 0,-0.27238 0.31242,-0.38372 1.07674,-0.38372 0.96527,0 1.06798,0.0616 0.99218,0.59531 -0.0514,0.36221 -0.29174,0.62018 -0.61371,0.65882 z m -0.47684,-1.88269 c -0.50452,0.0397 -0.99059,-10e-4 -1.08014,-0.0906 -0.0896,-0.0896 -0.16281,-0.30866 -0.16281,-0.48691 0,-0.17826 0.32742,-0.41688 0.7276,-0.53027 0.40018,-0.11339 0.95551,-0.2156 1.23406,-0.22712 0.27854,-0.0115 0.5445,0.0981 0.59101,0.24363 0.0465,0.14552 -0.0228,0.43433 -0.15392,0.64179 -0.13116,0.20747 -0.65127,0.40972 -1.1558,0.44945 z m -0.87487,-1.63106 c -0.34654,0.0962 -0.69249,-0.007 -0.913,-0.27291 -0.30533,-0.3679 -0.26426,-0.49652 0.29338,-0.9187 0.35662,-0.27 0.93477,-0.56333 1.28477,-0.65185 0.39125,-0.0989 0.7209,-0.0276 0.85585,0.18513 0.12071,0.19034 0.22131,0.47478 0.22353,0.63209 0.002,0.15731 -0.26384,0.41772 -0.59126,0.57868 -0.32742,0.16097 -0.84639,0.36237 -1.15327,0.44756 z m -0.5777,-1.86985 c -0.69563,0.35972 -0.7541,0.34281 -1.14016,-0.32986 -0.27898,-0.48611 -0.65068,-0.72509 -1.18222,-0.7601 -0.42641,-0.0281 -1.51943,-0.12484 -2.42894,-0.21501 -0.90951,-0.0902 -1.65365,-0.27725 -1.65365,-0.41576 0,-0.13851 0.14883,-0.30627 0.33073,-0.3728 0.1819,-0.0665 1.14706,-0.234211 2.1448,-0.372604 0.99773,-0.138392 1.87233,-0.309895 1.94355,-0.381116 0.0712,-0.07122 0.17948,-0.882081 0.24057,-1.80191 0.0611,-0.91983 0.39308,-2.505853 0.73773,-3.524499 0.49083,-1.450655 0.73367,-1.843217 1.12037,-1.811174 0.27154,0.02249 0.79137,0.11134 1.15517,0.197422 0.3638,0.08608 1.05438,0.23087 1.53461,0.321752 0.60914,0.115276 0.8485,0.293176 0.79165,0.588372 -0.0504,0.26166 -0.50753,0.507392 -1.19791,0.643919 -0.66681,0.131869 -1.42638,0.530736 -1.88606,0.990412 -0.47335,0.473359 -0.81151,1.128433 -0.87844,1.701705 -0.0599,0.512641 1.9e-4,1.142098 0.13343,1.398792 0.13323,0.256693 0.55561,0.942967 0.93862,1.52505 0.38302,0.582079 0.78569,1.098019 0.89483,1.146529 0.10914,0.0485 0.19844,0.24413 0.19844,0.43471 0,0.19059 -0.20836,0.42647 -0.46302,0.5242 -0.25467,0.0977 -0.49404,0.16758 -0.53194,0.15524 -0.0379,-0.0123 -0.39888,0.14818 -0.80216,0.35673 z m 6.53468,-0.95592 c -0.21739,0.0419 -0.6579,-0.20346 -0.97891,-0.54516 -0.32101,-0.3417 -0.58365,-0.755617 -0.58365,-0.91982 0,-0.164203 0.25101,-0.723993 0.55781,-1.243976 0.43096,-0.73043 0.51575,-1.169625 0.37286,-1.931337 -0.11631,-0.619977 -0.5077,-1.281271 -1.05451,-1.781677 -0.86954,-0.795769 -0.86954,-0.795769 -0.47126,-2.184832 0.22541,-0.786156 0.55212,-1.389062 0.7527,-1.389062 0.19493,0 0.83189,0.632407 1.41547,1.40535 0.58358,0.772943 1.24228,1.919007 1.46378,2.546808 0.2215,0.6278 0.40273,1.58914 0.40273,2.136309 0,0.575583 -0.31224,1.592548 -0.74088,2.413066 -0.40749,0.780011 -0.91875,1.452461 -1.13614,1.494331 z m 13.32519,-0.80487 c -0.48551,0.32236 -0.59958,0.28604 -1.10013,-0.35031 -0.30715,-0.39048 -0.55846,-0.812969 -0.55846,-0.938866 0,-0.125896 0.59148,-0.228901 1.3144,-0.228901 1.2411,0 1.30244,0.0323 1.10012,0.57921 -0.11784,0.318566 -0.45801,0.741057 -0.75593,0.938867 z m -17.00022,-1.518077 c -0.79124,0 -1.14882,-0.158528 -1.5725,-0.69714 -0.3016,-0.383427 -0.54837,-0.851927 -0.54837,-1.041109 0,-0.189183 0.11337,-0.642136 0.25192,-1.006565 0.13856,-0.364427 0.50273,-0.796825 0.80927,-0.96088 0.30654,-0.164057 0.90878,-0.221099 1.3383,-0.126759 0.42953,0.09434 0.95833,0.348895 1.17511,0.565679 0.21679,0.216786 0.39415,0.775878 0.39415,1.242425 0,0.466551 -0.18534,1.112891 -0.41187,1.436309 -0.305,0.435444 -0.67764,0.58804 -1.43601,0.58804 z m 6.80882,-4.762862 c -0.38494,-8.5e-5 -0.99267,-0.461545 -1.71979,-1.305875 -0.61846,-0.718161 -1.12448,-1.445384 -1.12448,-1.616054 0,-0.204705 0.24761,-0.250537 0.7276,-0.134673 0.40019,0.0966 1.17409,0.292687 1.7198,0.435756 0.95939,0.251526 0.99218,0.299132 0.99218,1.440547 0,1.047798 -0.0669,1.180413 -0.59531,1.180299 z m 2.4474,1.29e-4 c -1.05834,0 -1.05834,0 -1.05834,-1.079357 0,-1.079177 1.5e-4,-1.079325 0.8599,-0.894926 0.47294,0.101436 0.94919,0.236984 1.05833,0.30122 0.10914,0.06424 0.19844,0.466955 0.19844,0.894929 0,0.731435 -0.0635,0.778134 -1.05833,0.778134 z m 2.76233,0 c -0.32398,0 -0.66132,-0.18833 -0.74965,-0.418515 -0.0883,-0.230182 -0.1606,-0.527838 -0.1606,-0.661458 0,-0.133617 0.21967,-0.242943 0.48816,-0.242943 0.26849,0 0.68547,0.218022 0.92662,0.484492 0.24115,0.266469 0.35882,0.564126 0.26149,0.661458 -0.0973,0.09733 -0.44204,0.176966 -0.76602,0.176966 z" />
  </g>
</svg>
