<?xml version="1.0" encoding="UTF-8" standalone="no"?>
<svg
   xmlns:dc="http://purl.org/dc/elements/1.1/"
   xmlns:cc="http://creativecommons.org/ns#"
   xmlns:rdf="http://www.w3.org/1999/02/22-rdf-syntax-ns#"
   xmlns:svg="http://www.w3.org/2000/svg"
   xmlns="http://www.w3.org/2000/svg"
   xmlns:sodipodi="http://sodipodi.sourceforge.net/DTD/sodipodi-0.dtd"
   xmlns:inkscape="http://www.inkscape.org/namespaces/inkscape"
   width="25.17857mm"
   height="25.913218mm"
   viewBox="0 0 25.178569 25.913218"
   version="1.1"
   id="svg46"
   inkscape:version="1.0.2-2 (e86c870879, 2021-01-15)"
   sodipodi:docname="vah_naboris.svg">
  <defs
     id="defs40" />
  <sodipodi:namedview
     id="base"
     pagecolor="#ffffff"
     bordercolor="#666666"
     borderopacity="1.0"
     inkscape:pageopacity="0.0"
     inkscape:pageshadow="2"
     inkscape:zoom="2.8"
     inkscape:cx="-7.5878877"
     inkscape:cy="98.995434"
     inkscape:document-units="mm"
     inkscape:current-layer="layer5"
     inkscape:document-rotation="0"
     showgrid="false"
     inkscape:window-width="1280"
     inkscape:window-height="961"
     inkscape:window-x="-8"
     inkscape:window-y="46"
     inkscape:window-maximized="1" />
  <metadata
     id="metadata43">
    <rdf:RDF>
      <cc:Work
         rdf:about="">
        <dc:format>image/svg+xml</dc:format>
        <dc:type
           rdf:resource="http://purl.org/dc/dcmitype/StillImage" />
        <dc:title />
      </cc:Work>
    </rdf:RDF>
  </metadata>
  <g
     inkscape:groupmode="layer"
     id="layer5"
     inkscape:label="Layer 3"
     transform="translate(-267.94957,-85.328948)">
    <path
       id="path542-3"
       style="display:inline;mix-blend-mode:darken;fill:#9fa18b;fill-opacity:1;stroke:#9fa18b;stroke-width:0;stroke-linecap:round;stroke-linejoin:round;stroke-miterlimit:4;stroke-dasharray:none;stroke-opacity:1"
       d="m 275.69141,85.369141 c -0.71799,0.195218 -1.48373,0.58355 -2.00196,1.019531 -0.64377,-0.724702 -1.9139,-0.871663 -2.60351,-0.126953 -0.68942,-0.538238 -1.67167,-1.056533 -2.55664,-0.761719 -0.96347,0.612129 -0.52669,1.92386 -0.11208,2.746613 0.26383,0.887137 1.02513,1.814402 2.05739,1.540496 0.49306,-0.248459 0.68097,-0.237158 1.08203,0.152344 0.22031,0.151747 -0.65201,0.531015 -0.61328,0.957031 -0.26533,0.359212 0.0489,1.24755 -0.62891,0.97461 -0.91007,-0.119856 -1.17023,0.902259 -1.14648,1.611328 -0.17914,0.70608 0.54508,1.288404 1.20344,0.999475 0.39575,-0.386951 0.67479,0.474666 0.17547,0.289587 -0.92182,-0.09504 -1.18751,0.998009 -0.97276,1.703101 0.0253,0.783326 0.87789,1.45173 1.60752,0.988306 0.55511,-0.145108 0.2312,0.571123 -0.26858,0.403071 -0.95081,0.32892 -0.44544,1.510419 -0.0322,2.089116 0.35354,0.716312 1.51355,1.034602 1.91211,0.193362 0.28424,-0.0648 0.36083,0.21688 0.0772,0.31366 -0.61556,0.3717 -0.69019,1.21512 -0.15383,1.69157 0.40897,0.58409 1.21062,1.35052 1.93016,0.76821 0.42551,-0.13029 0.33211,-0.94892 0.76461,-0.84039 0.65744,0.11786 1.79514,0.35142 1.9268,-0.59321 0.0375,-1.43677 -1.52112,-1.930362 -2.41797,-2.728514 -0.80303,-0.657411 -1.2449,-1.636451 -1.58203,-2.59375 0.54368,1.068467 1.37064,2.306251 2.68555,2.376953 0.67759,-0.5042 0.47253,0.288756 0.5392,0.799585 -0.0323,0.543175 0.38535,1.280706 1.00572,0.977756 -0.0389,0.68892 -0.30601,1.57821 0.26953,2.10938 0.68752,-0.0548 0.0719,0.79019 0.45111,1.16893 0.0293,0.41547 0.67546,0.74056 0.56452,1.05177 -0.58214,0.74884 -0.10898,1.68259 0.20703,2.42383 0.0716,0.5507 -0.15077,1.16694 0.19531,1.6914 -0.6732,0.0186 -0.85621,0.81054 -0.4453,1.25997 0.30923,0.58317 0.94549,1.62326 1.69921,1.03886 0.59863,-0.51356 1.14927,-1.81431 0.19531,-2.24804 -0.008,-0.2587 0.39537,-0.85972 0.25603,-1.31305 -0.20188,-0.41028 0.0757,-0.65068 0.23225,-1.00531 0.20044,-0.62375 0.1426,-1.32638 -0.1543,-1.91016 0.4729,-0.57716 0.90188,-1.43711 0.64844,-2.16016 0.40356,0.12896 0.84639,-0.0443 1.09961,-0.37304 0.24292,0.55093 1.00352,0.30296 0.64655,1.04334 0.0232,0.40745 0.24356,0.78911 0.54486,1.05627 -0.49766,0.86823 0.094,1.89515 0.41992,2.67968 -0.16236,0.6401 -0.0394,1.33574 0.19336,1.94336 -0.96286,0.43406 -0.39992,1.74782 0.24023,2.22266 0.70841,0.67021 1.57429,-0.18801 1.7513,-0.9094 0.30463,-0.54808 0.0892,-1.34268 -0.56966,-1.42654 0.49305,-1.19896 0.52703,-2.52589 0.73828,-3.79101 -0.23561,-0.54182 0.095,-0.75188 0.32227,-1.18946 0.13269,-0.40808 0.0314,-0.84885 -0.14063,-1.22851 0.83239,0.16708 1.14623,-0.79574 0.96875,-1.44922 0.0765,-0.36017 -0.53841,-1.361265 -0.20522,-1.214877 1.03025,0.410937 1.74452,1.502007 2.9064,1.566437 1.14915,-0.24572 1.69115,-1.489038 2.18993,-2.435648 0.28647,-0.494453 0.51936,-1.060195 0.12647,-1.558491 -0.99553,-0.272306 -2.08032,0.0094 -3.07422,-0.240234 -0.50601,-1.252796 -0.93245,-2.588651 -1.92169,-3.568529 -0.44789,-0.382724 -0.5758,-0.5582 -0.0197,-0.88069 0.41085,-0.598937 1.04918,-1.590212 0.33593,-2.197266 -0.0131,-1.498863 -1.44862,-3.017967 -2.99804,-2.707031 -1.12835,0.310408 -2.05126,1.364838 -2.07813,2.552735 -0.4089,0.02517 -0.8736,-0.08054 -0.87109,-0.583985 -0.32106,-1.45615 -2.03917,-2.461293 -3.43013,-1.837866 -1.07154,0.519408 -1.511,1.74954 -1.5855,2.863257 -0.28419,0.444835 -0.61709,0.986652 -0.27811,1.518396 0.5776,0.849424 -0.17832,1.788684 -0.42068,2.619871 -0.306,0.2069 -0.23016,1.333109 -0.53956,0.989315 -1.15766,-0.787974 -1.90614,-2.051615 -2.06778,-3.439862 -0.2147,-0.84681 -0.30167,-1.871611 -1.06301,-2.427954 0.47546,-0.03929 0.65575,-0.717148 1.09571,-0.291016 0.87478,0.305708 1.87254,-0.133104 2.18207,-1.019259 0.36963,-0.851543 0.98193,-1.836711 0.62976,-2.77873 -0.19819,-0.414197 -0.65905,-0.718231 -1.12433,-0.565292 z" />
  </g>
  <g
     inkscape:label="Layer 1"
     inkscape:groupmode="layer"
     id="layer1"
     style="display:inline"
     transform="translate(-267.94957,-85.328948)"
     sodipodi:insensitive="true">
    <path
       id="path542"
       style="mix-blend-mode:darken;fill:#070707;fill-opacity:1;stroke:#9fa18b;stroke-width:0;stroke-linecap:round;stroke-linejoin:round;stroke-miterlimit:4;stroke-dasharray:none;stroke-opacity:1"
       d="m 280.0468,110.72298 c -0.10539,0 -0.35893,-0.26789 -0.5634,-0.59531 -0.20448,-0.32742 -0.38195,-0.65231 -0.39438,-0.72197 -0.0124,-0.0697 0.30233,-0.15164 0.69946,-0.18216 0.39712,-0.0305 0.78958,0.0538 0.87213,0.18734 0.0825,0.13356 0.0213,0.48342 -0.13605,0.77747 -0.15737,0.29405 -0.37236,0.53463 -0.47776,0.53463 z m 5.3908,0 c -0.15992,0 -0.4425,-0.24296 -0.62795,-0.53993 -0.18546,-0.29696 -0.2666,-0.65415 -0.18033,-0.79375 0.0863,-0.1396 0.42766,-0.25382 0.75862,-0.25382 0.33096,0 0.67316,0.0714 0.76044,0.15869 0.0873,0.0873 0.0285,0.44447 -0.13067,0.79375 -0.15914,0.34929 -0.42019,0.63506 -0.58011,0.63506 z m -0.0239,-2.11442 c -0.24341,0.20201 -0.36828,0.0611 -0.49137,-0.55433 -0.0908,-0.45385 -0.0958,-0.93722 -0.0111,-1.07417 0.0846,-0.13695 0.041,-0.39261 -0.097,-0.56814 -0.13798,-0.17552 -0.33373,-0.66503 -0.43499,-1.08779 -0.12331,-0.51478 -0.0698,-0.84408 0.16195,-0.99703 0.27291,-0.18009 0.24819,-0.28606 -0.11695,-0.50126 -0.25466,-0.15009 -0.46302,-0.49807 -0.46302,-0.7733 0,-0.27522 0.11907,-0.57399 0.26459,-0.66392 0.14552,-0.0899 0.26457,-0.35891 0.26457,-0.5977 0,-0.3377 -0.0706,-0.36362 -0.31749,-0.11668 -0.17462,0.17463 -0.47963,0.3175 -0.67778,0.3175 -0.26472,0 -0.32047,-0.25047 -0.21019,-0.94437 0.0825,-0.5194 0.35778,-1.22545 0.61163,-1.569 0.25385,-0.34355 0.68814,-0.686109 0.9651,-0.761251 0.27696,-0.07514 0.81933,0.02667 1.20526,0.226243 0.38594,0.199578 0.84395,0.675048 1.0178,1.056608 0.17385,0.38157 0.31609,0.99527 0.31609,1.36379 0,0.61777 -0.0671,0.65549 -0.8599,0.48365 -0.8385,-0.18173 -0.84837,-0.17351 -0.39687,0.33055 0.25466,0.2843 0.46302,0.77542 0.46302,1.09139 0,0.35352 -0.1651,0.57448 -0.42927,0.57448 -0.32623,0 -0.35948,0.0841 -0.13852,0.35033 0.15991,0.19268 0.22995,0.63917 0.15564,0.99219 -0.0743,0.35302 -0.20705,1.20649 -0.29497,1.89661 -0.0879,0.69012 -0.30671,1.37664 -0.4862,1.5256 z m -5.43395,-0.002 c -0.12137,0 -0.27092,-0.0893 -0.33234,-0.19844 -0.0614,-0.10914 -0.0833,-0.4961 -0.0487,-0.8599 0.0346,-0.3638 -0.024,-0.78052 -0.13031,-0.92604 -0.10632,-0.14552 -0.25775,-0.52809 -0.3365,-0.85017 -0.0833,-0.34064 0.0147,-0.71665 0.23436,-0.89892 0.32196,-0.26721 0.29845,-0.38704 -0.15961,-0.81379 -0.29543,-0.27524 -0.53716,-0.77894 -0.53716,-1.11932 0,-0.34237 0.26598,-0.80442 0.59531,-1.03415 0.59532,-0.41527 0.59532,-0.41527 0.0156,-0.42915 -0.31883,-0.008 -0.65328,0.10519 -0.74322,0.25071 -0.0899,0.14552 -0.26994,0.26458 -0.40002,0.26458 -0.13008,0 -0.16438,-0.62508 -0.0762,-1.38906 0.0881,-0.76398 0.2899,-1.4734 0.44834,-1.576483 0.20661,-0.134416 0.20412,-0.271388 -0.009,-0.484327 -0.21949,-0.219491 -0.39099,-0.08438 -0.65769,0.51815 -0.19843,0.44828 -0.45078,0.81506 -0.56078,0.81506 -0.11,0 -0.20284,-0.38696 -0.20631,-0.8599 -0.003,-0.472943 -0.11359,-1.322319 -0.2447,-1.8875 -0.13234,-0.570458 -0.1384,-1.21783 -0.0136,-1.455209 0.12362,-0.235183 0.42039,-0.956162 0.65948,-1.602176 0.35791,-0.967089 0.3764,-1.283507 0.10464,-1.791282 -0.25357,-0.473798 -0.25771,-0.689049 -0.0179,-0.928868 0.17168,-0.171683 0.31215,-0.62947 0.31215,-1.017304 0,-0.387834 0.24677,-1.018866 0.54837,-1.402292 0.35095,-0.446156 0.80603,-0.69714 1.26405,-0.69714 0.39362,0 0.97827,0.183928 1.29922,0.408731 0.32095,0.224803 0.68172,0.79035 0.80172,1.256771 0.181,0.703572 0.36206,0.862163 1.06282,0.93095 0.75516,0.07412 0.84466,0.0098 0.84466,-0.607341 0,-0.380077 0.29182,-0.982075 0.64943,-1.339678 0.35718,-0.357188 0.95791,-0.649433 1.33494,-0.649433 0.37703,0 0.97775,0.292245 1.33494,0.649433 0.35719,0.357188 0.64943,0.942578 0.64943,1.300866 0,0.358291 0.12397,0.692762 0.27549,0.743268 0.17358,0.05786 0.11991,0.403693 -0.14508,0.934879 -0.27226,0.545764 -0.55601,0.791075 -0.80465,0.695661 -0.21123,-0.08106 -0.38407,-0.253712 -0.38407,-0.383665 0,-0.12995 -0.65484,-0.236275 -1.45521,-0.236275 -0.80036,0 -1.4552,0.103724 -1.4552,0.230497 0,0.126772 0.61587,0.312195 1.3686,0.412049 1.10758,0.146925 1.55109,0.369596 2.32546,1.167532 0.52628,0.54229 1.11189,1.398667 1.30136,1.903055 0.18947,0.504391 0.45014,1.184966 0.57928,1.512388 0.20723,0.525457 0.42173,0.595312 1.82795,0.595312 0.87625,0 1.59318,0.03717 1.59318,0.08259 0,0.04543 -0.22722,0.552887 -0.50494,1.127689 -0.27771,0.574802 -0.74406,1.261492 -1.03632,1.525982 -0.44825,0.40566 -0.62798,0.43001 -1.14871,0.15562 -0.33953,-0.1789 -0.67686,-0.41254 -0.74962,-0.51921 -0.0728,-0.10667 -0.94585,-0.62463 -1.9402,-1.151018 -0.99435,-0.526391 -2.0076,-0.957074 -2.25166,-0.957074 -0.24406,0 -0.76452,0.297434 -1.15657,0.660963 -0.39205,0.36353 -0.78623,1.048139 -0.87596,1.521349 -0.0897,0.47321 -0.33129,1.08877 -0.5368,1.36791 -0.32289,0.43853 -0.46881,0.46416 -1.07376,0.18853 -0.38505,-0.17545 -0.76335,-0.25573 -0.84067,-0.17841 -0.0773,0.0773 0.0728,0.37639 0.33367,0.66461 0.41055,0.45365 0.42971,0.63156 0.14267,1.32454 -0.18237,0.44028 -0.46001,0.8005 -0.61698,0.8005 -0.18631,0 -0.17517,0.11024 0.0321,0.3175 0.17462,0.17463 0.3175,0.64385 0.3175,1.04272 0,0.39887 -0.12391,0.8018 -0.27535,0.89539 -0.15144,0.0936 -0.20827,0.38151 -0.12629,0.6398 0.082,0.2583 0.0741,0.66499 -0.0175,0.90378 -0.0916,0.23878 -0.2659,0.43415 -0.38726,0.43415 z m 2.12936,-7.14375 c 0.14552,0 0.26458,-0.42375 0.26458,-0.94166 0,-0.5604 -0.10713,-0.87545 -0.26458,-0.77814 -0.14553,0.0899 -0.26459,0.51369 -0.26459,0.94166 0,0.42797 0.11906,0.77814 0.26459,0.77814 z m -7.7622,1.02263 c -0.26979,0.22391 -0.48979,0.14898 -0.92604,-0.31539 -0.3147,-0.33498 -0.57218,-0.70732 -0.57218,-0.82742 0,-0.1201 0.19794,-0.3631 0.43986,-0.54 0.26056,-0.19052 0.3718,-0.49902 0.27289,-0.75677 -0.0918,-0.23933 -0.40884,-0.43514 -0.70445,-0.43514 -0.29561,0 -0.53747,0.11906 -0.53747,0.26459 0,0.14552 -0.17553,0.26458 -0.39008,0.26458 -0.21454,0 -0.56698,-0.34209 -0.7832,-0.76021 -0.21621,-0.418107 -0.31849,-0.834826 -0.22728,-0.926039 0.0912,-0.09121 0.38412,-0.165835 0.65091,-0.165835 0.29071,0 0.48507,-0.19082 0.48507,-0.47625 0,-0.261938 -0.1373,-0.613553 -0.30512,-0.781368 -0.20127,-0.201273 -0.46196,-0.221175 -0.76596,-0.05848 -0.31123,0.166566 -0.5406,0.14107 -0.70646,-0.07853 -0.13509,-0.178845 -0.23689,-0.622826 -0.22622,-0.986628 0.0161,-0.54836 0.13603,-0.649653 0.70159,-0.592415 0.6214,0.06289 0.6716,-0.0032 0.56323,-0.74158 -0.10918,-0.74391 -0.1832,-0.79652 -0.89928,-0.639241 -0.75352,0.165499 -0.7774,0.141002 -0.69552,-0.713626 0.076,-0.793483 0.16003,-0.876213 0.81238,-0.799931 0.59334,0.06938 0.72761,-0.01929 0.72761,-0.480417 0,-0.311021 0.12325,-0.795793 0.27389,-1.077267 0.15064,-0.281475 0.49338,-0.511773 0.76165,-0.511773 0.28864,0 0.6007,0.297032 0.76443,0.727604 0.15216,0.400182 0.3552,1.203854 0.45119,1.785937 0.096,0.582084 0.39505,1.417278 0.66458,1.855986 0.26954,0.438709 0.85485,1.067351 1.3007,1.396982 0.52392,0.387347 0.81064,0.83049 0.81064,1.252871 0,0.375838 -0.15347,0.653537 -0.36119,0.653537 -0.19866,0 -0.65577,-0.231715 -1.01581,-0.514919 -0.36004,-0.283205 -0.95578,-1.205939 -1.32388,-2.050521 -0.3681,-0.844582 -0.74358,-1.751507 -0.83441,-2.015392 -0.0908,-0.263885 -0.26681,-0.416955 -0.39107,-0.340154 -0.12427,0.0768 -0.13984,0.649893 -0.0346,1.27354 0.10523,0.623647 0.3821,1.647666 0.61528,2.275597 0.23318,0.62793 0.67367,1.461368 0.97887,1.852083 0.3052,0.390716 0.97973,0.969219 1.49896,1.285559 0.51922,0.31634 1.04414,0.73306 1.16649,0.92604 0.12234,0.19298 0.22427,0.51016 0.2265,0.70486 0.003,0.26667 -0.25699,0.30988 -1.05428,0.17518 -0.83461,-0.14101 -1.05834,-0.0968 -1.05834,0.20893 0,0.21325 -0.15923,0.51989 -0.35386,0.68141 z m -1.99496,-12.929124 c -0.60745,0 -0.82863,-0.156864 -1.02591,-0.727605 -0.13832,-0.400182 -0.21867,-0.945261 -0.17855,-1.211286 0.0401,-0.266025 0.13157,-0.636458 0.20322,-0.823182 0.0717,-0.186725 0.37078,-0.402389 0.66472,-0.479258 0.29394,-0.07687 0.78027,0.03242 1.08073,0.242871 0.30045,0.210447 0.54628,0.665787 0.54628,1.011862 0,0.346078 -0.11612,0.934641 -0.25804,1.307915 -0.19586,0.515165 -0.44461,0.678683 -1.03245,0.678683 z m -2.25124,-0.264584 c -0.4543,0 -0.74279,-0.241099 -1.0289,-0.859896 -0.21868,-0.472942 -0.46765,-1.09802 -0.55328,-1.389062 -0.0856,-0.291042 -0.0535,-0.691896 0.0714,-0.890791 0.1835,-0.29219 0.40645,-0.302432 1.16119,-0.05335 0.51374,0.169553 1.00414,0.490847 1.08977,0.713994 0.0856,0.223144 0.15569,0.458457 0.15569,0.522917 0,0.06446 -0.32743,0.244729 -0.72761,0.400598 -0.7276,0.283395 -0.7276,0.283395 -0.13229,0.687181 0.32742,0.22208 0.59531,0.508325 0.59531,0.636095 0,0.127773 -0.28409,0.232312 -0.63131,0.232312 z m 4.53392,-0.0054 c -0.40019,0.003 -0.72761,-0.106931 -0.72761,-0.244202 0,-0.137269 0.26789,-0.437841 0.59531,-0.667938 0.59532,-0.418357 0.59532,-0.418357 0,-0.575027 -0.33403,-0.08791 -0.59531,-0.362141 -0.59531,-0.624832 0,-0.272357 0.37637,-0.646758 0.89988,-0.895184 0.49494,-0.234862 1.01798,-0.427021 1.16232,-0.427021 0.14434,0 0.33369,0.18569 0.42078,0.412647 0.0871,0.226954 -0.10853,0.998439 -0.43471,1.71441 -0.49954,1.096491 -0.7078,1.302615 -1.32066,1.307147 z" />
  </g>
</svg>
