<?xml version="1.0" encoding="UTF-8" standalone="no"?>
<svg
   xmlns:dc="http://purl.org/dc/elements/1.1/"
   xmlns:cc="http://creativecommons.org/ns#"
   xmlns:rdf="http://www.w3.org/1999/02/22-rdf-syntax-ns#"
   xmlns:svg="http://www.w3.org/2000/svg"
   xmlns="http://www.w3.org/2000/svg"
   xmlns:sodipodi="http://sodipodi.sourceforge.net/DTD/sodipodi-0.dtd"
   xmlns:inkscape="http://www.inkscape.org/namespaces/inkscape"
   width="10.856094mm"
   height="10.611536mm"
   viewBox="0 0 10.856094 10.611536"
   version="1.1"
   id="svg46"
   inkscape:version="1.0.2-2 (e86c870879, 2021-01-15)"
   sodipodi:docname="shrine.svg">
  <defs
     id="defs40" />
  <sodipodi:namedview
     id="base"
     pagecolor="#ffffff"
     bordercolor="#666666"
     borderopacity="1.0"
     inkscape:pageopacity="0.0"
     inkscape:pageshadow="2"
     inkscape:zoom="1.979899"
     inkscape:cx="-139.17275"
     inkscape:cy="87.317195"
     inkscape:document-units="mm"
     inkscape:current-layer="layer1"
     inkscape:document-rotation="0"
     showgrid="false"
     inkscape:window-width="1920"
     inkscape:window-height="1017"
     inkscape:window-x="1272"
     inkscape:window-y="-8"
     inkscape:window-maximized="1" />
  <metadata
     id="metadata43">
    <rdf:RDF>
      <cc:Work
         rdf:about="">
        <dc:format>image/svg+xml</dc:format>
        <dc:type
           rdf:resource="http://purl.org/dc/dcmitype/StillImage" />
        <dc:title />
      </cc:Work>
    </rdf:RDF>
  </metadata>
  <g
     inkscape:groupmode="layer"
     id="layer5"
     inkscape:label="Layer 3"
     transform="translate(-349.81026,-44.834614)">
    <path
       id="path1465-9"
       style="display:inline;mix-blend-mode:darken;fill:#070707;fill-opacity:1;stroke:#9fa18b;stroke-width:0;stroke-linecap:round;stroke-linejoin:round;stroke-miterlimit:4;stroke-dasharray:none;stroke-opacity:1"
       d="m 354.58203,45.003906 c -1.57566,1.583844 -3.15183,3.167177 -4.72851,4.75 -0.19681,0.696505 0.31574,1.100552 0.77525,1.526464 1.3591,1.331731 2.65992,2.749842 4.05519,4.027967 0.69622,0.384744 1.41686,-0.09969 1.83368,-0.670911 1.3679,-1.375145 2.73664,-2.749468 4.10541,-4.123754 0.19704,-0.696747 -0.31614,-1.100163 -0.77622,-1.525508 -1.36069,-1.328708 -2.66092,-2.746504 -4.05633,-4.022719 -0.36883,-0.201333 -0.84742,-0.155967 -1.20847,0.03846 z m 1.16602,2.699219 c -0.87754,0.252262 -0.60274,-0.677369 -0.0939,-0.09634 l 0.0698,0.07162 z m 1.00781,1.035156 c 0.46354,0.475912 0.92708,0.951823 1.39062,1.427735 -0.38747,0.714942 -0.79914,-0.01842 -1.20011,-0.353902 -0.0918,-0.296784 -0.21497,-0.924725 -0.19051,-1.073833 z m -2.89844,0.304688 c -0.13567,0.601588 -0.39466,1.157861 -0.875,1.568359 -0.76156,-0.442495 -0.0541,-0.843494 0.34834,-1.254166 0.19068,-0.118429 0.84239,-1.019258 0.52666,-0.314193 z m 1.50781,2.816406 c 0.31053,0.08141 0.45762,1.265084 -0.25195,0.925781 0.12437,-0.23628 -0.13537,-0.993392 0.25195,-0.925781 z" />
    <circle
       style="fill:#070707;fill-opacity:1;stroke:#9fa18b;stroke-width:0;stroke-linecap:round;stroke-linejoin:round;stroke-miterlimit:4;stroke-dasharray:none;stroke-opacity:1"
       id="path1691"
       cx="355.3027"
       cy="50.095592"
       r="3.2239387" />
  </g>
  <g
     inkscape:label="Layer 1"
     inkscape:groupmode="layer"
     id="layer1"
     style="display:inline"
     transform="translate(-349.81026,-44.834614)">
    <path
       id="path1465"
       style="mix-blend-mode:darken;fill:#9fa18b;fill-opacity:1;stroke:#9fa18b;stroke-width:0;stroke-linecap:round;stroke-linejoin:round;stroke-miterlimit:4;stroke-dasharray:none;stroke-opacity:1"
       d="m 355.23751,54.898865 -0.2701,-0.003 -2.36901,-2.38454 -2.36901,-2.38454 2.36349,-2.3745 2.3635,-2.37449 h 0.27561 0.27562 l 2.37022,2.38125 2.37021,2.38125 -2.37021,2.38125 -2.37022,2.38125 -0.2701,-0.003 z m 0.12678,-1.58403 h 0.82569 l -0.0821,-0.99219 -0.0821,-0.99219 h -0.66146 -0.66146 l -0.0821,0.99219 -0.0821,0.99219 z m -2.38125,-2.11667 h 0.18256 l 0.42532,-0.46997 0.42532,-0.46997 0.34445,-1.05138 0.34444,-1.05139 0.46187,0.0331 0.46187,0.0331 0.23514,0.0331 0.23513,0.0331 0.16579,0.88373 0.16579,0.88373 0.66394,0.62374 0.66394,0.62374 0.56589,-0.56588 0.56588,-0.56588 -1.75481,-1.80149 -1.75481,-1.80148 -1.77981,1.77403 -1.77981,1.77403 0.48967,0.54107 0.48967,0.54108 z" />
  </g>
</svg>
