<?xml version="1.0" encoding="UTF-8" standalone="no"?>
<svg
   xmlns:dc="http://purl.org/dc/elements/1.1/"
   xmlns:cc="http://creativecommons.org/ns#"
   xmlns:rdf="http://www.w3.org/1999/02/22-rdf-syntax-ns#"
   xmlns:svg="http://www.w3.org/2000/svg"
   xmlns="http://www.w3.org/2000/svg"
   xmlns:sodipodi="http://sodipodi.sourceforge.net/DTD/sodipodi-0.dtd"
   xmlns:inkscape="http://www.inkscape.org/namespaces/inkscape"
   width="8.3150988mm"
   height="8.3186007mm"
   viewBox="0 0 8.3150984 8.3186007"
   version="1.1"
   id="svg46"
   inkscape:version="1.0.2-2 (e86c870879, 2021-01-15)"
   sodipodi:docname="stamina_3.svg">
  <defs
     id="defs40" />
  <sodipodi:namedview
     id="base"
     pagecolor="#ffffff"
     bordercolor="#666666"
     borderopacity="1.0"
     inkscape:pageopacity="0.0"
     inkscape:pageshadow="2"
     inkscape:zoom="11.2"
     inkscape:cx="15.447319"
     inkscape:cy="22.508206"
     inkscape:document-units="mm"
     inkscape:current-layer="layer3"
     inkscape:document-rotation="0"
     showgrid="false"
     inkscape:window-width="960"
     inkscape:window-height="1017"
     inkscape:window-x="2224"
     inkscape:window-y="0"
     inkscape:window-maximized="0" />
  <metadata
     id="metadata43">
    <rdf:RDF>
      <cc:Work
         rdf:about="">
        <dc:format>image/svg+xml</dc:format>
        <dc:type
           rdf:resource="http://purl.org/dc/dcmitype/StillImage" />
        <dc:title />
      </cc:Work>
    </rdf:RDF>
  </metadata>
  <g
     inkscape:groupmode="layer"
     id="layer3"
     inkscape:label="72d arc backdrop"
     style="mix-blend-mode:normal">
    <path
       id="path865"
       style="fill:#070707;fill-opacity:1;stroke:#9fa18b;stroke-width:0;stroke-linecap:round;stroke-linejoin:round"
       d="M 4.0881225,-0.02790527 C 3.9585309,0.05862501 3.7539726,0.0768901 3.6737985,0.20842023 3.5872811,0.3965752 3.5419405,0.59165518 3.569503,0.7989958 3.5839968,1.337492 3.5690159,1.8827818 3.6017459,2.4170748 3.700699,2.5693273 3.7084582,2.8217741 3.9263767,2.8433201 4.1589489,2.9580284 4.4343743,2.8941323 4.6653481,3.0235879 4.9924567,3.161502 5.2267926,3.4570093 5.3530677,3.778859 5.4891722,3.8833713 5.5652222,4.1197834 5.764957,4.0845427 6.0818119,4.1350977 6.3625319,3.9467877 6.6598442,3.8681593 7.0408257,3.7289623 7.4376504,3.6158836 7.8089071,3.4606547 7.9222144,3.3190008 8.1603989,3.232564 8.1107766,3.0188672 8.151257,2.7009304 7.9536786,2.4215967 7.8236317,2.1457478 7.0966604,0.80218102 5.6154933,-0.05863831 4.0881225,-0.02790527 Z" />
    <path
       id="path865-6"
       style="display:inline;mix-blend-mode:normal;fill:#070707;fill-opacity:1;stroke:#9fa18b;stroke-width:0;stroke-linecap:round;stroke-linejoin:round"
       d="M 5.6508178,3.0721638 C 5.5560306,3.1961542 5.3696263,3.2800245 5.335253,3.4304705 5.3104174,3.6214481 5.342515,3.8020802 5.3883014,3.9858031 5.4536191,4.4235295 5.2608874,4.8861469 4.9056438,5.1495565 4.8547453,5.2966286 4.702571,5.4345514 4.7183182,5.5876441 4.7633731,5.7902913 4.8448938,5.9738188 4.9928758,6.1224982 5.3353025,6.5486068 5.6583585,6.997996 6.0127604,7.4097115 6.183686,7.4707868 6.3430215,7.6678599 6.5290646,7.5515514 6.834149,7.4902707 7.0284374,7.2217583 7.2417119,7.0167454 8.2770794,5.9102828 8.6251287,4.2236016 8.1142334,2.7972453 8.0375463,2.6613082 7.8984358,2.5637478 7.7974567,2.4427449 7.5833287,2.4324756 7.3687653,2.4195654 7.1737801,2.5254253 6.6661259,2.7076715 6.1584718,2.8899178 5.6508178,3.0721638 Z" />
    <path
       id="path865-6-2"
       style="display:inline;mix-blend-mode:normal;fill:#070707;fill-opacity:1;stroke:#9fa18b;stroke-width:0;stroke-linecap:round;stroke-linejoin:round"
       d="M 4.9226969,5.1366372 C 4.5138398,5.4653738 3.8957562,5.4877811 3.464388,5.1888305 3.3763764,5.2008801 3.1536018,5.1063334 3.0258149,5.1328756 2.8496077,5.2485006 2.6766028,5.3671911 2.5865597,5.5652929 2.2865484,6.0410272 1.9586317,6.5061805 1.6760668,6.98853 1.679339,7.1601403 1.5418725,7.3672577 1.6942635,7.5012475 1.858742,7.7892089 2.1930599,7.8947435 2.4748975,8.03419 3.8423775,8.633316 5.5193059,8.418651 6.6926507,7.495895 6.8245484,7.3881561 6.8608736,7.2011849 6.9530639,7.0605509 6.8929837,6.8542233 6.8357331,6.6463698 6.6716899,6.4960967 6.3221554,6.0724263 5.9916149,5.6253101 5.6302973,5.2161847 5.4583663,5.1566545 5.2974112,4.9646419 5.1111631,5.0779206 5.048341,5.0974929 4.9855191,5.1170652 4.9226969,5.1366372 Z" />
    <path
       id="path865-6-2-3"
       style="display:none;mix-blend-mode:normal;fill:#070707;fill-opacity:1;stroke:#9fa18b;stroke-width:0;stroke-linecap:round;stroke-linejoin:round"
       d="M 0.25114746,2.8230835 C 0.12226395,2.9986941 -0.00685007,3.1762943 -0.01756999,3.4018595 -0.29844971,4.8815915 0.29986684,6.4823987 1.4805197,7.4171103 1.6698214,7.5594508 1.8531213,7.7421797 2.1072865,7.73202 2.2831267,7.8105486 2.4091912,7.6931559 2.5379752,7.5864669 2.73197,7.4085203 2.8313403,7.1433694 2.9876892,6.9307288 3.1983812,6.5827295 3.4376643,6.2451498 3.6307617,5.8907383 3.6312649,5.7088952 3.7600294,5.4947642 3.5931414,5.3550597 3.460719,5.1376048 3.2043526,5.0301633 3.0902507,4.7940227 2.9099409,4.5062624 2.8848796,4.1487571 2.9483473,3.8249386 2.8903776,3.6527623 2.9455025,3.4064487 2.7400213,3.330971 2.4891687,3.1281092 2.1448978,3.1336416 1.8478694,3.0337873 1.450326,2.9425021 1.0537104,2.820879 0.65559468,2.7483117 0.52077895,2.7732357 0.38596321,2.7981595 0.25114746,2.8230835 Z" />
    <path
       id="path865-6-2-3-6"
       style="display:none;mix-blend-mode:normal;fill:#070707;fill-opacity:1;stroke:#9fa18b;stroke-width:0;stroke-linecap:round;stroke-linejoin:round"
       d="M 4.0142252,-0.02635498 C 2.5207843,0.00614129 1.0872598,0.90566025 0.41186115,2.238623 0.25511733,2.5527023 0.11115341,2.8875238 0.05654674,3.2330456 0.11401492,3.4051509 0.05752409,3.651913 0.26367152,3.7266157 0.49971137,3.927535 0.82955941,3.9147538 1.1134988,4.0065552 1.5199979,4.0946268 1.9259568,4.213117 2.3327888,4.2824466 2.5046093,4.2232614 2.7511864,4.2765135 2.8255084,4.070686 2.9917099,3.8683258 2.998883,3.5819611 3.18361,3.386751 3.4106826,3.0856989 3.7830836,2.9300969 4.1494151,2.9046334 4.3028216,2.8075974 4.5561633,2.803431 4.5792231,2.5852641 4.7173514,2.3079706 4.6264284,1.9909347 4.6477078,1.6933668 4.6362302,1.287147 4.6544497,0.87419168 4.6247142,0.47211286 4.5263006,0.31970519 4.5197281,0.06665151 4.3014836,0.0455629 4.2059545,0.0191996 4.1168917,-0.04379873 4.0142252,-0.02635498 Z" />
    <circle
       style="display:none;fill:#9fa18b;fill-opacity:1;stroke:#9fa18b;stroke-width:0;stroke-linecap:round;stroke-linejoin:round"
       id="circle1213"
       cx="4.1577382"
       cy="4.1577382"
       r="1.7717634" />
  </g>
  <g
     id="g1251"
     inkscape:label="72d arc"
     style="mix-blend-mode:normal"
     sodipodi:insensitive="true"
     inkscape:groupmode="layer">
    <path
       id="path1243"
       style="display:inline;mix-blend-mode:normal;fill:#9fa18b;stroke:#9fa18b;stroke-width:0;stroke-linecap:round;stroke-linejoin:round"
       transform="scale(0.26458333)"
       d="m 19.808594,21.011719 a 6.6964288,6.6964288 0 0 1 -4.09375,1.398437 6.6964288,6.6964288 0 0 1 -3.716797,-1.126953 L 8.0273438,27.402344 A 13.889597,13.889597 0 0 0 24.28125,26.583984 Z m 8.921875,-9.921875 -6.697266,2.404297 a 6.6964288,6.6964288 0 0 1 0.376953,2.220703 6.6964288,6.6964288 0 0 1 -2.640625,5.326172 l 4.44336,5.685546 a 13.889597,13.889597 0 0 0 4.517578,-15.636718 z m -13.253907,-9.1953128 0.09375,7.125 a 6.6964288,6.6964288 0 0 1 0.144532,-0.00195 6.6964288,6.6964288 0 0 1 6.345703,4.5585938 l 6.728515,-2.31836 a 13.889597,13.889597 0 0 0 -13.3125,-9.3632807 z" />
    <path
       id="path1245"
       style="display:none;mix-blend-mode:normal;fill:#9fa18b;stroke:#9fa18b;stroke-width:0;stroke-linecap:round;stroke-linejoin:round"
       d="M 2.09375,12.310547 A 13.889597,13.889597 0 0 0 8.1601562,27.412109 L 12.017578,21.296875 A 6.6964288,6.6964288 0 0 1 9.0175781,15.714844 6.6964288,6.6964288 0 0 1 9.21875,14.083984 Z"
       transform="scale(0.26458333)" />
    <path
       id="path1247"
       style="display:none;mix-blend-mode:normal;fill:#9fa18b;stroke:#9fa18b;stroke-width:0;stroke-linecap:round;stroke-linejoin:round"
       d="M 15.521484,1.8945312 A 13.889597,13.889597 0 0 0 2.1367188,12.599609 l 7.0410156,1.658203 A 6.6964288,6.6964288 0 0 1 15.591797,9.0195312 Z"
       transform="scale(0.26458333)" />
    <circle
       style="display:none;fill:#9fa18b;fill-opacity:1;stroke:#9fa18b;stroke-width:0;stroke-linecap:round;stroke-linejoin:round"
       id="circle1249"
       cx="4.1577382"
       cy="4.1577382"
       r="1.7717634" />
  </g>
</svg>
