<?xml version="1.0" encoding="UTF-8" standalone="no"?>
<svg
   xmlns:dc="http://purl.org/dc/elements/1.1/"
   xmlns:cc="http://creativecommons.org/ns#"
   xmlns:rdf="http://www.w3.org/1999/02/22-rdf-syntax-ns#"
   xmlns:svg="http://www.w3.org/2000/svg"
   xmlns="http://www.w3.org/2000/svg"
   xmlns:sodipodi="http://sodipodi.sourceforge.net/DTD/sodipodi-0.dtd"
   xmlns:inkscape="http://www.inkscape.org/namespaces/inkscape"
   width="31.271214mm"
   height="22.604012mm"
   viewBox="0 0 31.271213 22.604012"
   version="1.1"
   id="svg46"
   inkscape:version="1.0.2-2 (e86c870879, 2021-01-15)"
   sodipodi:docname="vah_rudania.svg">
  <defs
     id="defs40" />
  <sodipodi:namedview
     id="base"
     pagecolor="#ffffff"
     bordercolor="#666666"
     borderopacity="1.0"
     inkscape:pageopacity="0.0"
     inkscape:pageshadow="2"
     inkscape:zoom="1.979899"
     inkscape:cx="-83.756038"
     inkscape:cy="-17.392399"
     inkscape:document-units="mm"
     inkscape:current-layer="layer1"
     inkscape:document-rotation="0"
     showgrid="false"
     inkscape:window-width="1280"
     inkscape:window-height="961"
     inkscape:window-x="-8"
     inkscape:window-y="46"
     inkscape:window-maximized="1" />
  <metadata
     id="metadata43">
    <rdf:RDF>
      <cc:Work
         rdf:about="">
        <dc:format>image/svg+xml</dc:format>
        <dc:type
           rdf:resource="http://purl.org/dc/dcmitype/StillImage" />
        <dc:title />
      </cc:Work>
    </rdf:RDF>
  </metadata>
  <g
     inkscape:groupmode="layer"
     id="layer5"
     inkscape:label="Layer 3"
     transform="translate(-297.73018,-88.157164)">
    <path
       id="path361-1"
       style="display:inline;mix-blend-mode:darken;fill:#070707;fill-opacity:1;stroke:#9fa18b;stroke-width:0;stroke-linecap:round;stroke-linejoin:round;stroke-miterlimit:4;stroke-dasharray:none;stroke-opacity:1"
       d="m 324.5957,88.158203 c -0.69271,0.01905 -0.43767,0.920233 -1.02717,1.077315 -0.50732,0.19392 -1.21045,0.705486 -0.74236,1.291826 0.44004,0.59036 1.37756,1.114377 1.99219,0.453125 0.47996,-0.364676 1.29001,-0.75666 1.73047,-0.128907 0.79481,0.671553 2.14418,0.02719 2.44336,-0.867187 0.0977,-0.637563 -0.60277,-0.958088 -1.13281,-0.792969 -0.65767,-0.005 -0.35162,-0.962112 -1.01567,-0.992039 -0.62517,-0.07701 -1.26629,0.511142 -1.85152,0.02915 -0.12521,-0.05072 -0.26148,-0.07705 -0.39649,-0.07031 z m -18.38476,2.017578 c -0.74626,0.07197 -0.72351,1.004498 -0.27399,1.419844 0.21613,0.475059 0.8771,0.550832 1.19196,0.496172 0.0602,0.451188 0.71875,0.562822 0.83034,0.786486 -0.33274,0.468395 0.42788,0.857614 0.30061,1.128601 -0.37812,0.303881 0.21038,1.096876 -0.48838,0.789991 -1.24286,-0.05933 -1.99872,1.483176 -3.28844,1.111156 -0.36295,-0.193666 -1.21105,0.138639 -1.22718,-0.230297 -0.0941,-1.070868 -1.42851,-1.112671 -2.22945,-1.347142 -0.972,-0.150564 -1.99206,-0.441075 -2.96782,-0.219264 -0.73973,0.598014 -0.028,1.539142 0.18067,2.231668 0.48798,0.965308 0.85273,2.143838 1.78613,2.764426 0.61373,0.15608 1.11429,-0.373769 1.52539,-0.748047 -0.15472,0.969334 1.10695,1.385425 1.0554,2.344755 0.494,0.40637 0.39788,0.58053 0.14382,1.16696 -0.0651,0.54676 0.0876,1.10134 0.32227,1.5918 -0.46246,0.24314 -0.41035,0.71849 -1.00782,0.49609 -0.50096,0.1471 -0.4327,0.85765 -1.00586,0.42188 -0.45041,-0.33669 -1.10394,0.38311 -0.99414,-0.37305 -0.24364,-0.90065 -1.83413,-1.10989 -2.01172,-0.0742 -0.0923,0.89261 1.10411,1.9322 1.84375,1.14649 0.16852,-0.62694 0.13483,0.54451 0.69336,0.58203 0.4124,0.34504 1.12265,0.84104 1.55078,0.25 0.45366,0.30102 1.17849,-0.0276 1.18555,-0.57422 0.50526,0.1137 1.25212,-0.18738 1.22266,-0.7832 1.06981,0.39528 2.17141,-0.52936 2.55859,-1.47071 0.47167,1.11365 1.8854,1.14726 2.89837,1.42059 0.653,0.19629 1.5111,0.0407 2.02351,0.53449 0.11534,0.70206 0.5972,1.32801 1.22265,1.66211 -0.36763,0.7197 0.41582,1.39644 1.03516,1.44336 -0.28587,0.51054 0.0646,1.31659 0.69922,1.27149 0.0777,0.75835 1.028,1.01369 1.64258,0.75781 0.13764,0.80637 1.1072,0.67511 1.57421,0.24609 0.63437,-0.26303 0.58293,-1.15992 -0.041,-1.40039 -0.40682,-0.29364 -1.12185,-0.55809 -1.42773,0.01 -0.28929,-0.41788 -0.85838,-0.46387 -0.85463,-1.02524 -0.45863,-0.25392 0.16657,-0.83719 -0.36803,-1.14664 -0.72805,-0.30326 0.43971,-0.41055 0.58445,-0.81164 0.33046,-0.35838 0.64327,-0.92531 0.355,-1.39734 1.64283,-0.29353 3.34636,-0.78225 4.67578,-1.82032 0.42423,-0.54751 -0.28464,-1.11664 -0.83656,-0.9491 -2.42342,0.15221 -4.77607,0.84208 -7.18445,0.20784 -1.52537,-0.33612 -3.04188,-0.83801 -4.3911,-1.63374 1.83806,0.52788 3.67912,1.1391 5.615,1.12335 1.50955,0.0407 3.08673,0.29906 4.5543,-0.14383 0.72027,-0.16167 0.7452,-1.16894 0.0553,-1.40139 -0.475,-0.349085 -1.16458,-0.399168 -1.55273,-0.841797 -0.0277,-0.869092 -0.29417,-1.82916 -1.04297,-2.351562 0.44614,-0.240687 0.12884,-0.88748 0.72852,-0.810547 -0.83449,-0.536952 -0.64969,-0.511898 0.14597,-0.134648 0.43125,-0.168582 0.23823,-0.919338 0.86438,-0.763409 0.83747,-0.170399 0.73369,-1.434621 -0.10215,-1.510146 -0.43105,-0.09241 -0.95715,0.106255 -1.10742,0.544921 -0.63981,-0.210071 -1.41203,0.304126 -1.38477,0.949219 -0.65977,-0.02171 -1.40397,0.82161 -0.78711,1.369141 -1.1922,0.209694 -2.21689,1.712161 -1.57617,2.841797 -1.19282,-0.2811 -2.25897,-1.034128 -3.48828,-1.134766 -0.025,-0.206867 0.45433,-0.766425 0.45312,-1.185547 0.11296,-0.470358 -0.12538,-1.032729 -0.39062,-1.320312 0.85197,-0.184156 0.81346,-1.3965 0.37695,-1.919922 0.45049,-0.726513 -0.43803,-1.65878 -1.19922,-1.576172 0.10682,-0.685985 -0.68395,-1.213267 -1.30664,-1.091797 0.0256,-0.698038 -0.75864,-1.04537 -1.35937,-0.919922 z m 19.33398,0.998047 c -0.62867,0.06706 -1.61363,0.314295 -1.45117,1.148438 0.3657,0.898797 1.59435,0.77456 2.38477,0.652343 0.63494,-0.01773 1.43972,-0.719142 0.86718,-1.324218 -0.50244,-0.363363 -1.18962,-0.495049 -1.80078,-0.476563 z m -0.002,2.357422 c -0.46501,1.025181 -0.29627,2.236992 -0.68559,3.302377 -0.38395,1.60064 -2.10148,2.148445 -3.35672,2.902231 -0.91205,0.500982 -1.01075,2.272192 0.0853,2.580552 0.96158,-0.0984 1.68772,-0.90172 2.45992,-1.41907 1.15585,-0.962204 2.57382,-1.971656 2.69798,-3.610691 0.10923,-1.221473 0.28658,-2.570984 -0.27509,-3.704618 -0.24588,-0.352197 -0.6193,-0.287089 -0.92578,-0.05078 z m -6.08985,0.07813 c -1.07997,0.149994 -1.01988,2.27327 0.16016,2.068359 0.77357,-0.09395 1.53004,-1.072778 0.8418,-1.722656 -0.26405,-0.247658 -0.63785,-0.399414 -1.00196,-0.345703 z" />
  </g>
  <g
     inkscape:label="Layer 1"
     inkscape:groupmode="layer"
     id="layer1"
     style="display:inline"
     transform="translate(-297.73018,-88.157164)">
    <path
       id="path361"
       style="mix-blend-mode:darken;fill:#9fa18b;fill-opacity:1;stroke:#9fa18b;stroke-width:0;stroke-linecap:round;stroke-linejoin:round;stroke-miterlimit:4;stroke-dasharray:none;stroke-opacity:1"
       d="m 317.29599,110.25938 c -0.10914,0.002 -0.19844,-0.23407 -0.19844,-0.52511 0,-0.29104 0.0893,-0.52735 0.19844,-0.52512 0.10914,0.002 0.37703,0.12129 0.59531,0.26459 0.35278,0.23158 0.35278,0.28948 0,0.52106 -0.21828,0.14329 -0.48617,0.26236 -0.59531,0.26458 z m -1.22438,-0.52511 c -0.32277,0 -0.56156,-0.16876 -0.56156,-0.39688 0,-0.21828 0.10449,-0.39687 0.23219,-0.39687 0.1277,0 0.3804,0.17859 0.56156,0.39687 0.27519,0.33158 0.23698,0.39688 -0.23219,0.39688 z m -1.04112,-0.85439 c -0.1728,0.0576 -0.31419,-0.0838 -0.31419,-0.31419 0,-0.23041 0.18852,-0.41892 0.41892,-0.41892 0.23041,0 0.3718,0.14138 0.3142,0.31419 -0.0576,0.17281 -0.24612,0.36132 -0.41893,0.41892 z m -0.43086,-1.26227 c -0.35522,0 -0.72433,-0.12698 -0.82025,-0.28218 -0.0959,-0.15521 -0.117,-0.33959 -0.0468,-0.40976 0.0702,-0.0702 0.43927,-0.0493 0.82024,0.0463 0.38098,0.0956 0.69268,0.28001 0.69268,0.40975 0,0.12975 -0.29063,0.2359 -0.64584,0.2359 z m -0.20534,-1.26353 c -0.47729,0.0853 -0.89965,-0.0399 -1.25677,-0.37263 -0.29584,-0.27562 -0.53789,-0.6605 -0.53789,-0.85529 0,-0.19479 -0.15059,-0.47915 -0.33465,-0.63191 -0.18406,-0.15276 -0.80914,-0.3269 -1.38906,-0.38698 -0.57993,-0.0601 -1.54761,-0.26234 -2.15041,-0.44947 -0.97241,-0.30185 -1.11356,-0.45006 -1.25177,-1.31438 -0.0857,-0.5358 -0.44626,-1.24707 -0.8013,-1.58062 -0.41602,-0.39083 -0.97082,-0.60644 -1.56046,-0.60644 -0.50321,0 -1.16747,0.13516 -1.47614,0.30035 -0.47082,0.25198 -0.56121,0.22703 -0.56121,-0.15493 0,-0.2504 -0.263,-0.73523 -0.58445,-1.0774 -0.58446,-0.622121 -0.58446,-0.622121 0.0538,-1.790548 0.63315,-1.159049 0.64753,-1.167159 1.79082,-1.010454 0.90746,0.124383 1.305,0.04526 1.86952,-0.372115 0.39434,-0.291547 0.9532,-0.60506 1.24192,-0.696696 0.31189,-0.09899 0.86485,0.04011 1.3625,0.342749 0.64858,0.394423 0.82039,0.665922 0.7614,1.203206 -0.0419,0.381617 -0.4117,1.044078 -0.8218,1.472134 -0.67336,0.702834 -0.69468,0.778284 -0.2199,0.778284 0.28916,0 0.66223,-0.13647 0.82903,-0.30328 0.22799,-0.227984 0.61883,-0.168786 1.57427,0.23845 0.69905,0.29796 1.72639,0.66543 2.28299,0.8166 0.58507,0.1589 1.2548,0.1811 1.58751,0.0526 0.44367,-0.17133 0.48458,-0.25505 0.17862,-0.36553 -0.21828,-0.0788 -0.635,-0.18125 -0.92604,-0.22764 -0.29695,-0.0473 -0.5637,-0.32475 -0.60785,-0.632161 -0.0433,-0.301302 0.14252,-0.820983 0.41286,-1.15485 0.30658,-0.378609 0.7782,-0.607029 1.25332,-0.607029 0.46933,0 0.94566,0.227095 1.24078,0.591551 0.26346,0.325355 0.47901,0.936513 0.47901,1.358129 0,0.64738 0.16457,0.83243 1.05833,1.19005 0.58209,0.2329 1.05834,0.51571 1.05834,0.62847 0,0.11276 -0.32463,0.26707 -0.72139,0.34291 -0.39676,0.0759 -1.73622,0.0875 -2.97656,0.0259 -1.24035,-0.0616 -2.55283,-0.16369 -2.91664,-0.2268 -0.3638,-0.0631 -1.3163,-0.30884 -2.11666,-0.54604 -0.80037,-0.2372 -1.7231,-0.49485 -2.05052,-0.57255 -0.41843,-0.0993 -0.59532,-0.0217 -0.59532,0.26129 0,0.22142 0.50602,0.6946 1.12448,1.05151 0.61847,0.3569 1.99133,0.90853 3.05082,1.22584 1.05949,0.31731 2.55206,0.5844 3.31683,0.59353 0.76477,0.009 2.31909,-0.12415 3.45404,-0.29619 1.13496,-0.17204 2.13123,-0.24512 2.21395,-0.1624 0.0827,0.0827 -0.54471,0.4578 -1.39429,0.83352 -0.84957,0.37572 -2.11803,0.75104 -2.81879,0.83403 -0.70077,0.083 -1.27412,0.25338 -1.27412,0.37864 0,0.12525 0.1786,0.22773 0.39688,0.22773 0.21828,0 0.39687,0.16014 0.39687,0.35586 0,0.19573 -0.20836,0.53737 -0.46302,0.75921 -0.25466,0.22183 -0.78652,0.46115 -1.18191,0.53181 z m -12.71089,-0.69664 c -0.0667,0.0667 -0.40606,-0.11363 -0.7541,-0.40077 -0.63279,-0.52207 -0.63279,-0.52207 -0.0334,-0.37156 0.32969,0.0828 0.66904,0.26313 0.7541,0.40077 0.0851,0.13764 0.10008,0.30484 0.0334,0.37156 z m 0.85377,-0.15651 c -0.15009,0 -0.3434,-0.18373 -0.42957,-0.40829 -0.0862,-0.22456 -0.076,-0.489 0.0227,-0.58765 0.0986,-0.0986 0.29014,-0.004 0.42551,0.20985 0.13538,0.21406 0.24797,0.47851 0.2502,0.58765 0.002,0.10914 -0.11874,0.19844 -0.26883,0.19844 z m -3.1097,-0.6967 c -0.13028,0.0805 -0.375,0.008 -0.54381,-0.16053 -0.16882,-0.16882 -0.30694,-0.45119 -0.30694,-0.62749 0,-0.1763 0.20836,-0.29007 0.46302,-0.25281 0.25466,0.0373 0.49938,0.25374 0.54382,0.48108 0.0444,0.22735 -0.0258,0.47924 -0.15609,0.55975 z m 4.31912,-0.005 c -0.25684,0.0986 -0.48924,0.003 -0.58236,-0.23982 -0.0852,-0.2221 -0.0779,-0.4809 0.0163,-0.5751 0.0942,-0.0942 0.35627,0.0137 0.58236,0.23981 0.37174,0.37174 0.37018,0.4268 -0.0163,0.57511 z m 1.39596,-0.65683 c -0.046,-0.0198 -0.35275,-0.0878 -0.68177,-0.15108 -0.32903,-0.0633 -0.75449,-0.43401 -0.94547,-0.82386 -0.19098,-0.38985 -0.29868,-0.94695 -0.23934,-1.23799 0.0593,-0.29104 0.2992,-0.67799 0.53301,-0.8599 0.23382,-0.1819 0.8547,-0.33072 1.37974,-0.33072 0.84908,0 0.99128,0.1014 1.28632,0.91732 0.24218,0.66973 0.25489,1.06087 0.0471,1.44915 -0.15654,0.29249 -0.51219,0.65361 -0.79033,0.80246 -0.27814,0.14886 -0.5433,0.25443 -0.58925,0.23462 z m 16.53896,-2.34522 c -0.20685,0 -0.34938,-0.29836 -0.34759,-0.72761 0.002,-0.59165 0.20924,-0.82646 1.10664,-1.25668 0.60697,-0.291 1.38189,-0.74799 1.72204,-1.015551 0.34014,-0.267557 0.78623,-0.81094 0.99131,-1.207516 0.20508,-0.396576 0.45895,-1.481968 0.56417,-2.411981 0.16268,-1.437868 0.22811,-1.593744 0.43721,-1.04153 0.13524,0.357175 0.20213,1.372132 0.14863,2.255465 -0.0684,1.129861 -0.26438,1.818518 -0.66091,2.322621 -0.31001,0.394112 -1.24927,1.248962 -2.08726,1.899672 -0.83799,0.65071 -1.68139,1.18311 -1.87424,1.18311 z m -21.44424,-3.175003 c -0.19641,0 -0.76328,-0.863203 -1.25971,-1.918229 -0.49644,-1.055026 -0.81948,-2.001319 -0.71787,-2.102874 0.1016,-0.101552 1.04433,-0.03967 2.09495,0.137507 1.05062,0.177183 2.05059,0.46252 2.22214,0.634079 0.23952,0.239517 0.20272,0.483994 -0.15852,1.053118 -0.25876,0.407654 -0.77498,1.068613 -1.14717,1.468795 -0.37219,0.400182 -0.83741,0.727604 -1.03382,0.727604 z m 15.5879,-2.120721 c -0.10056,-0.0021 -0.36142,-0.121291 -0.5797,-0.264584 -0.33646,-0.220874 -0.34055,-0.296809 -0.0269,-0.498858 0.23196,-0.149413 0.49305,-0.124735 0.69983,0.06615 0.18141,0.16746 0.27577,0.393768 0.20969,0.502909 -0.0661,0.109141 -0.2024,0.196615 -0.30295,0.194387 z m 1.07394,-0.97331 c -0.10914,0.06171 -0.34726,0.05881 -0.52916,-0.0064 -0.1819,-0.06525 -0.33073,-0.287309 -0.33073,-0.493461 0,-0.206156 0.23812,-0.374828 0.52917,-0.374828 0.29104,0 0.52916,0.171567 0.52916,0.38126 0,0.209693 -0.0893,0.431752 -0.19844,0.493464 z m -7.31216,-0.366445 c -0.16204,-0.01148 -0.44344,-0.08094 -0.62534,-0.154339 -0.1819,-0.0734 -0.33073,-0.302125 -0.33073,-0.508278 0,-0.206156 0.1786,-0.374828 0.39688,-0.374828 0.21828,0 0.48617,-0.0016 0.59531,-0.0034 0.10914,-0.0019 0.21195,0.236262 0.22846,0.529166 0.0165,0.292905 -0.10255,0.523153 -0.26458,0.511665 z m 9.82571,0.01683 c -0.10914,0.0022 -0.19844,-0.234063 -0.19844,-0.525105 0,-0.291042 0.17157,-0.529167 0.38126,-0.529167 0.20969,0 0.46307,0.132374 0.56306,0.294164 0.1,0.161793 0.0177,0.398092 -0.18282,0.525116 -0.20055,0.127024 -0.45392,0.232775 -0.56306,0.235003 z m -1.65365,-0.525105 c -0.21828,0 -0.39687,-0.119062 -0.39687,-0.264583 0,-0.145521 0.17859,-0.264584 0.39687,-0.264584 0.21828,0 0.39688,0.119063 0.39688,0.264584 0,0.145521 -0.1786,0.264583 -0.39688,0.264583 z m -8.58334,-1.058333 c -0.28246,0 -0.59537,-0.132374 -0.69536,-0.294164 -0.1,-0.161793 -0.0217,-0.393105 0.17395,-0.514032 0.20267,-0.12526 0.50188,-0.09859 0.69535,0.06198 0.18679,0.155014 0.33961,0.386329 0.33961,0.51403 0,0.127704 -0.2311,0.232188 -0.51355,0.232188 z m 16.47031,-1.062382 c -0.46435,0.0021 -0.91839,-0.115853 -1.00896,-0.262401 -0.0906,-0.14655 -0.008,-0.319487 0.18283,-0.384305 0.19112,-0.06482 0.52609,-0.146851 0.74437,-0.182295 0.21828,-0.03544 0.6805,0.03145 1.02715,0.148646 0.48818,0.165049 0.54783,0.265303 0.26458,0.444696 -0.20113,0.127383 -0.74562,0.233431 -1.20997,0.235659 z m -17.50016,-0.260533 c -0.12127,0 -0.29987,-0.07937 -0.39688,-0.17639 -0.097,-0.09701 -0.17639,-0.27187 -0.17639,-0.388569 0,-0.1167 0.17859,-0.143651 0.39688,-0.05989 0.21828,0.08377 0.39687,0.25862 0.39687,0.388573 0,0.12995 -0.0992,0.236275 -0.22048,0.236276 z m -1.31406,-0.694187 c -0.1164,0.07194 -0.35553,-0.09963 -0.53141,-0.38126 -0.27637,-0.442528 -0.24763,-0.512053 0.21163,-0.512053 0.29227,0 0.5314,0.171566 0.5314,0.381259 0,0.209693 -0.0952,0.440119 -0.21162,0.512054 z m 17.67413,-1.025187 c -0.333,0.298755 -0.47894,0.295876 -0.90673,-0.01789 -0.28042,-0.205669 -0.45901,-0.418579 -0.39688,-0.473131 0.0621,-0.05455 0.38087,-0.238567 0.70829,-0.408919 0.32742,-0.170352 0.59532,-0.488325 0.59532,-0.706607 0,-0.310409 0.11151,-0.337193 0.51184,-0.122944 0.33996,0.181941 0.73979,0.187265 1.19062,0.01585 0.53389,-0.202983 0.67879,-0.176739 0.67879,0.122946 0,0.209558 0.20835,0.488181 0.46302,0.619157 0.25466,0.130977 0.61184,0.184775 0.79375,0.119552 0.1819,-0.06522 0.33073,0.01294 0.33073,0.173718 0,0.160766 -0.29037,0.424603 -0.64527,0.586306 -0.52364,0.238588 -0.73029,0.208976 -1.09637,-0.157102 -0.31082,-0.310822 -0.66554,-0.397602 -1.14067,-0.279061 -0.37926,0.09462 -0.86816,0.332272 -1.08644,0.528108 z" />
  </g>
</svg>
